G04 #@! TF.GenerationSoftware,KiCad,Pcbnew,(5.1.6)-1*
G04 #@! TF.CreationDate,2022-01-03T12:18:26+01:00*
G04 #@! TF.ProjectId,CURSO_PCB_DRONE,43555253-4f5f-4504-9342-5f44524f4e45,rev?*
G04 #@! TF.SameCoordinates,Original*
G04 #@! TF.FileFunction,Soldermask,Top*
G04 #@! TF.FilePolarity,Negative*
%FSLAX46Y46*%
G04 Gerber Fmt 4.6, Leading zero omitted, Abs format (unit mm)*
G04 Created by KiCad (PCBNEW (5.1.6)-1) date 2022-01-03 12:18:26*
%MOMM*%
%LPD*%
G01*
G04 APERTURE LIST*
%ADD10R,2.500000X2.100000*%
%ADD11C,1.252000*%
%ADD12C,3.300000*%
%ADD13C,0.700000*%
%ADD14R,0.500000X2.200000*%
%ADD15R,1.600000X1.100000*%
%ADD16R,2.000000X2.000000*%
%ADD17O,1.200000X2.500000*%
%ADD18R,1.500000X1.300000*%
%ADD19R,1.600000X0.900000*%
%ADD20R,2.100000X1.550000*%
%ADD21C,5.600000*%
%ADD22O,1.800000X1.800000*%
%ADD23R,1.800000X1.800000*%
%ADD24C,1.600000*%
%ADD25C,2.462200*%
%ADD26C,2.652700*%
%ADD27C,5.616000*%
%ADD28R,5.616000X5.616000*%
%ADD29C,2.100000*%
%ADD30C,2.000000*%
%ADD31R,0.650000X1.600000*%
%ADD32R,1.600000X0.650000*%
%ADD33R,2.100000X0.700000*%
%ADD34R,2.600000X2.600000*%
%ADD35R,1.160000X0.750000*%
%ADD36R,0.750000X0.500000*%
%ADD37O,2.100000X2.005000*%
%ADD38R,2.100000X2.005000*%
%ADD39O,3.600000X3.600000*%
%ADD40R,2.100000X1.600000*%
%ADD41R,2.100000X3.900000*%
%ADD42R,1.300000X1.500000*%
%ADD43R,1.200000X0.700000*%
%ADD44R,1.300000X1.000000*%
G04 APERTURE END LIST*
D10*
X111810000Y-97810000D03*
X111810000Y-94110000D03*
D11*
X85125560Y-71749920D03*
X84632800Y-102905560D03*
X179044600Y-69469000D03*
D12*
X143340240Y-99348360D03*
X143340240Y-79348360D03*
X179348240Y-104598360D03*
X179348240Y-74098360D03*
X82340240Y-73848360D03*
X82340240Y-104848360D03*
D13*
X136780000Y-69410000D03*
X140780000Y-69410000D03*
D14*
X140080000Y-70360000D03*
X139430000Y-70360000D03*
X138780000Y-70360000D03*
X138130000Y-70360000D03*
X137480000Y-70360000D03*
D15*
X141980000Y-69560000D03*
X135580000Y-69560000D03*
D16*
X139880000Y-67310000D03*
X137680000Y-67310000D03*
D17*
X135955000Y-67310000D03*
X141605000Y-67310000D03*
X130845000Y-67360000D03*
X125195000Y-67360000D03*
D16*
X126920000Y-67360000D03*
X129120000Y-67360000D03*
D15*
X124820000Y-69610000D03*
X131220000Y-69610000D03*
D14*
X126720000Y-70410000D03*
X127370000Y-70410000D03*
X128020000Y-70410000D03*
X128670000Y-70410000D03*
X129320000Y-70410000D03*
D13*
X130020000Y-69460000D03*
X126020000Y-69460000D03*
D18*
X113980000Y-66440000D03*
X116180000Y-66440000D03*
X116180000Y-68140000D03*
X113980000Y-68140000D03*
D19*
X85220000Y-88410000D03*
X85220000Y-87310000D03*
X85220000Y-86210000D03*
X85220000Y-85110000D03*
X85220000Y-84010000D03*
X85220000Y-82910000D03*
X85220000Y-81810000D03*
X85220000Y-80710000D03*
D20*
X90920000Y-92090000D03*
X90920000Y-78330000D03*
X82620000Y-78330000D03*
X82620000Y-92090000D03*
G36*
G01*
X151780800Y-84070880D02*
X151780800Y-84270880D01*
G75*
G02*
X151680800Y-84370880I-100000J0D01*
G01*
X150930800Y-84370880D01*
G75*
G02*
X150830800Y-84270880I0J100000D01*
G01*
X150830800Y-84070880D01*
G75*
G02*
X150930800Y-83970880I100000J0D01*
G01*
X151680800Y-83970880D01*
G75*
G02*
X151780800Y-84070880I0J-100000D01*
G01*
G37*
G36*
G01*
X151780800Y-83570880D02*
X151780800Y-83770880D01*
G75*
G02*
X151680800Y-83870880I-100000J0D01*
G01*
X150930800Y-83870880D01*
G75*
G02*
X150830800Y-83770880I0J100000D01*
G01*
X150830800Y-83570880D01*
G75*
G02*
X150930800Y-83470880I100000J0D01*
G01*
X151680800Y-83470880D01*
G75*
G02*
X151780800Y-83570880I0J-100000D01*
G01*
G37*
G36*
G01*
X151780800Y-83070880D02*
X151780800Y-83270880D01*
G75*
G02*
X151680800Y-83370880I-100000J0D01*
G01*
X150930800Y-83370880D01*
G75*
G02*
X150830800Y-83270880I0J100000D01*
G01*
X150830800Y-83070880D01*
G75*
G02*
X150930800Y-82970880I100000J0D01*
G01*
X151680800Y-82970880D01*
G75*
G02*
X151780800Y-83070880I0J-100000D01*
G01*
G37*
G36*
G01*
X151780800Y-82570880D02*
X151780800Y-82770880D01*
G75*
G02*
X151680800Y-82870880I-100000J0D01*
G01*
X150930800Y-82870880D01*
G75*
G02*
X150830800Y-82770880I0J100000D01*
G01*
X150830800Y-82570880D01*
G75*
G02*
X150930800Y-82470880I100000J0D01*
G01*
X151680800Y-82470880D01*
G75*
G02*
X151780800Y-82570880I0J-100000D01*
G01*
G37*
G36*
G01*
X151780800Y-82070880D02*
X151780800Y-82270880D01*
G75*
G02*
X151680800Y-82370880I-100000J0D01*
G01*
X150930800Y-82370880D01*
G75*
G02*
X150830800Y-82270880I0J100000D01*
G01*
X150830800Y-82070880D01*
G75*
G02*
X150930800Y-81970880I100000J0D01*
G01*
X151680800Y-81970880D01*
G75*
G02*
X151780800Y-82070880I0J-100000D01*
G01*
G37*
G36*
G01*
X151780800Y-81570880D02*
X151780800Y-81770880D01*
G75*
G02*
X151680800Y-81870880I-100000J0D01*
G01*
X150930800Y-81870880D01*
G75*
G02*
X150830800Y-81770880I0J100000D01*
G01*
X150830800Y-81570880D01*
G75*
G02*
X150930800Y-81470880I100000J0D01*
G01*
X151680800Y-81470880D01*
G75*
G02*
X151780800Y-81570880I0J-100000D01*
G01*
G37*
G36*
G01*
X152105800Y-81445880D02*
X151905800Y-81445880D01*
G75*
G02*
X151805800Y-81345880I0J100000D01*
G01*
X151805800Y-80595880D01*
G75*
G02*
X151905800Y-80495880I100000J0D01*
G01*
X152105800Y-80495880D01*
G75*
G02*
X152205800Y-80595880I0J-100000D01*
G01*
X152205800Y-81345880D01*
G75*
G02*
X152105800Y-81445880I-100000J0D01*
G01*
G37*
G36*
G01*
X152605800Y-81445880D02*
X152405800Y-81445880D01*
G75*
G02*
X152305800Y-81345880I0J100000D01*
G01*
X152305800Y-80595880D01*
G75*
G02*
X152405800Y-80495880I100000J0D01*
G01*
X152605800Y-80495880D01*
G75*
G02*
X152705800Y-80595880I0J-100000D01*
G01*
X152705800Y-81345880D01*
G75*
G02*
X152605800Y-81445880I-100000J0D01*
G01*
G37*
G36*
G01*
X153105800Y-81445880D02*
X152905800Y-81445880D01*
G75*
G02*
X152805800Y-81345880I0J100000D01*
G01*
X152805800Y-80595880D01*
G75*
G02*
X152905800Y-80495880I100000J0D01*
G01*
X153105800Y-80495880D01*
G75*
G02*
X153205800Y-80595880I0J-100000D01*
G01*
X153205800Y-81345880D01*
G75*
G02*
X153105800Y-81445880I-100000J0D01*
G01*
G37*
G36*
G01*
X153605800Y-81445880D02*
X153405800Y-81445880D01*
G75*
G02*
X153305800Y-81345880I0J100000D01*
G01*
X153305800Y-80595880D01*
G75*
G02*
X153405800Y-80495880I100000J0D01*
G01*
X153605800Y-80495880D01*
G75*
G02*
X153705800Y-80595880I0J-100000D01*
G01*
X153705800Y-81345880D01*
G75*
G02*
X153605800Y-81445880I-100000J0D01*
G01*
G37*
G36*
G01*
X154105800Y-81445880D02*
X153905800Y-81445880D01*
G75*
G02*
X153805800Y-81345880I0J100000D01*
G01*
X153805800Y-80595880D01*
G75*
G02*
X153905800Y-80495880I100000J0D01*
G01*
X154105800Y-80495880D01*
G75*
G02*
X154205800Y-80595880I0J-100000D01*
G01*
X154205800Y-81345880D01*
G75*
G02*
X154105800Y-81445880I-100000J0D01*
G01*
G37*
G36*
G01*
X154605800Y-81445880D02*
X154405800Y-81445880D01*
G75*
G02*
X154305800Y-81345880I0J100000D01*
G01*
X154305800Y-80595880D01*
G75*
G02*
X154405800Y-80495880I100000J0D01*
G01*
X154605800Y-80495880D01*
G75*
G02*
X154705800Y-80595880I0J-100000D01*
G01*
X154705800Y-81345880D01*
G75*
G02*
X154605800Y-81445880I-100000J0D01*
G01*
G37*
G36*
G01*
X155680800Y-81570880D02*
X155680800Y-81770880D01*
G75*
G02*
X155580800Y-81870880I-100000J0D01*
G01*
X154830800Y-81870880D01*
G75*
G02*
X154730800Y-81770880I0J100000D01*
G01*
X154730800Y-81570880D01*
G75*
G02*
X154830800Y-81470880I100000J0D01*
G01*
X155580800Y-81470880D01*
G75*
G02*
X155680800Y-81570880I0J-100000D01*
G01*
G37*
G36*
G01*
X155680800Y-82070880D02*
X155680800Y-82270880D01*
G75*
G02*
X155580800Y-82370880I-100000J0D01*
G01*
X154830800Y-82370880D01*
G75*
G02*
X154730800Y-82270880I0J100000D01*
G01*
X154730800Y-82070880D01*
G75*
G02*
X154830800Y-81970880I100000J0D01*
G01*
X155580800Y-81970880D01*
G75*
G02*
X155680800Y-82070880I0J-100000D01*
G01*
G37*
G36*
G01*
X155680800Y-82570880D02*
X155680800Y-82770880D01*
G75*
G02*
X155580800Y-82870880I-100000J0D01*
G01*
X154830800Y-82870880D01*
G75*
G02*
X154730800Y-82770880I0J100000D01*
G01*
X154730800Y-82570880D01*
G75*
G02*
X154830800Y-82470880I100000J0D01*
G01*
X155580800Y-82470880D01*
G75*
G02*
X155680800Y-82570880I0J-100000D01*
G01*
G37*
G36*
G01*
X155680800Y-83070880D02*
X155680800Y-83270880D01*
G75*
G02*
X155580800Y-83370880I-100000J0D01*
G01*
X154830800Y-83370880D01*
G75*
G02*
X154730800Y-83270880I0J100000D01*
G01*
X154730800Y-83070880D01*
G75*
G02*
X154830800Y-82970880I100000J0D01*
G01*
X155580800Y-82970880D01*
G75*
G02*
X155680800Y-83070880I0J-100000D01*
G01*
G37*
G36*
G01*
X155680800Y-83570880D02*
X155680800Y-83770880D01*
G75*
G02*
X155580800Y-83870880I-100000J0D01*
G01*
X154830800Y-83870880D01*
G75*
G02*
X154730800Y-83770880I0J100000D01*
G01*
X154730800Y-83570880D01*
G75*
G02*
X154830800Y-83470880I100000J0D01*
G01*
X155580800Y-83470880D01*
G75*
G02*
X155680800Y-83570880I0J-100000D01*
G01*
G37*
G36*
G01*
X155680800Y-84070880D02*
X155680800Y-84270880D01*
G75*
G02*
X155580800Y-84370880I-100000J0D01*
G01*
X154830800Y-84370880D01*
G75*
G02*
X154730800Y-84270880I0J100000D01*
G01*
X154730800Y-84070880D01*
G75*
G02*
X154830800Y-83970880I100000J0D01*
G01*
X155580800Y-83970880D01*
G75*
G02*
X155680800Y-84070880I0J-100000D01*
G01*
G37*
G36*
G01*
X154605800Y-85345880D02*
X154405800Y-85345880D01*
G75*
G02*
X154305800Y-85245880I0J100000D01*
G01*
X154305800Y-84495880D01*
G75*
G02*
X154405800Y-84395880I100000J0D01*
G01*
X154605800Y-84395880D01*
G75*
G02*
X154705800Y-84495880I0J-100000D01*
G01*
X154705800Y-85245880D01*
G75*
G02*
X154605800Y-85345880I-100000J0D01*
G01*
G37*
G36*
G01*
X154105800Y-85345880D02*
X153905800Y-85345880D01*
G75*
G02*
X153805800Y-85245880I0J100000D01*
G01*
X153805800Y-84495880D01*
G75*
G02*
X153905800Y-84395880I100000J0D01*
G01*
X154105800Y-84395880D01*
G75*
G02*
X154205800Y-84495880I0J-100000D01*
G01*
X154205800Y-85245880D01*
G75*
G02*
X154105800Y-85345880I-100000J0D01*
G01*
G37*
G36*
G01*
X153605800Y-85345880D02*
X153405800Y-85345880D01*
G75*
G02*
X153305800Y-85245880I0J100000D01*
G01*
X153305800Y-84495880D01*
G75*
G02*
X153405800Y-84395880I100000J0D01*
G01*
X153605800Y-84395880D01*
G75*
G02*
X153705800Y-84495880I0J-100000D01*
G01*
X153705800Y-85245880D01*
G75*
G02*
X153605800Y-85345880I-100000J0D01*
G01*
G37*
G36*
G01*
X153105800Y-85345880D02*
X152905800Y-85345880D01*
G75*
G02*
X152805800Y-85245880I0J100000D01*
G01*
X152805800Y-84495880D01*
G75*
G02*
X152905800Y-84395880I100000J0D01*
G01*
X153105800Y-84395880D01*
G75*
G02*
X153205800Y-84495880I0J-100000D01*
G01*
X153205800Y-85245880D01*
G75*
G02*
X153105800Y-85345880I-100000J0D01*
G01*
G37*
G36*
G01*
X152605800Y-85345880D02*
X152405800Y-85345880D01*
G75*
G02*
X152305800Y-85245880I0J100000D01*
G01*
X152305800Y-84495880D01*
G75*
G02*
X152405800Y-84395880I100000J0D01*
G01*
X152605800Y-84395880D01*
G75*
G02*
X152705800Y-84495880I0J-100000D01*
G01*
X152705800Y-85245880D01*
G75*
G02*
X152605800Y-85345880I-100000J0D01*
G01*
G37*
G36*
G01*
X152105800Y-85345880D02*
X151905800Y-85345880D01*
G75*
G02*
X151805800Y-85245880I0J100000D01*
G01*
X151805800Y-84495880D01*
G75*
G02*
X151905800Y-84395880I100000J0D01*
G01*
X152105800Y-84395880D01*
G75*
G02*
X152205800Y-84495880I0J-100000D01*
G01*
X152205800Y-85245880D01*
G75*
G02*
X152105800Y-85345880I-100000J0D01*
G01*
G37*
G36*
G01*
X156276360Y-83964900D02*
X156276360Y-83569900D01*
G75*
G02*
X156448860Y-83397400I172500J0D01*
G01*
X156793860Y-83397400D01*
G75*
G02*
X156966360Y-83569900I0J-172500D01*
G01*
X156966360Y-83964900D01*
G75*
G02*
X156793860Y-84137400I-172500J0D01*
G01*
X156448860Y-84137400D01*
G75*
G02*
X156276360Y-83964900I0J172500D01*
G01*
G37*
G36*
G01*
X157246360Y-83964900D02*
X157246360Y-83569900D01*
G75*
G02*
X157418860Y-83397400I172500J0D01*
G01*
X157763860Y-83397400D01*
G75*
G02*
X157936360Y-83569900I0J-172500D01*
G01*
X157936360Y-83964900D01*
G75*
G02*
X157763860Y-84137400I-172500J0D01*
G01*
X157418860Y-84137400D01*
G75*
G02*
X157246360Y-83964900I0J172500D01*
G01*
G37*
G36*
G01*
X117830000Y-91250000D02*
X117830000Y-89800000D01*
G75*
G02*
X117930000Y-89700000I100000J0D01*
G01*
X118130000Y-89700000D01*
G75*
G02*
X118230000Y-89800000I0J-100000D01*
G01*
X118230000Y-91250000D01*
G75*
G02*
X118130000Y-91350000I-100000J0D01*
G01*
X117930000Y-91350000D01*
G75*
G02*
X117830000Y-91250000I0J100000D01*
G01*
G37*
G36*
G01*
X118330000Y-91250000D02*
X118330000Y-89800000D01*
G75*
G02*
X118430000Y-89700000I100000J0D01*
G01*
X118630000Y-89700000D01*
G75*
G02*
X118730000Y-89800000I0J-100000D01*
G01*
X118730000Y-91250000D01*
G75*
G02*
X118630000Y-91350000I-100000J0D01*
G01*
X118430000Y-91350000D01*
G75*
G02*
X118330000Y-91250000I0J100000D01*
G01*
G37*
G36*
G01*
X118830000Y-91250000D02*
X118830000Y-89800000D01*
G75*
G02*
X118930000Y-89700000I100000J0D01*
G01*
X119130000Y-89700000D01*
G75*
G02*
X119230000Y-89800000I0J-100000D01*
G01*
X119230000Y-91250000D01*
G75*
G02*
X119130000Y-91350000I-100000J0D01*
G01*
X118930000Y-91350000D01*
G75*
G02*
X118830000Y-91250000I0J100000D01*
G01*
G37*
G36*
G01*
X119330000Y-91250000D02*
X119330000Y-89800000D01*
G75*
G02*
X119430000Y-89700000I100000J0D01*
G01*
X119630000Y-89700000D01*
G75*
G02*
X119730000Y-89800000I0J-100000D01*
G01*
X119730000Y-91250000D01*
G75*
G02*
X119630000Y-91350000I-100000J0D01*
G01*
X119430000Y-91350000D01*
G75*
G02*
X119330000Y-91250000I0J100000D01*
G01*
G37*
G36*
G01*
X119830000Y-91250000D02*
X119830000Y-89800000D01*
G75*
G02*
X119930000Y-89700000I100000J0D01*
G01*
X120130000Y-89700000D01*
G75*
G02*
X120230000Y-89800000I0J-100000D01*
G01*
X120230000Y-91250000D01*
G75*
G02*
X120130000Y-91350000I-100000J0D01*
G01*
X119930000Y-91350000D01*
G75*
G02*
X119830000Y-91250000I0J100000D01*
G01*
G37*
G36*
G01*
X120330000Y-91250000D02*
X120330000Y-89800000D01*
G75*
G02*
X120430000Y-89700000I100000J0D01*
G01*
X120630000Y-89700000D01*
G75*
G02*
X120730000Y-89800000I0J-100000D01*
G01*
X120730000Y-91250000D01*
G75*
G02*
X120630000Y-91350000I-100000J0D01*
G01*
X120430000Y-91350000D01*
G75*
G02*
X120330000Y-91250000I0J100000D01*
G01*
G37*
G36*
G01*
X120830000Y-91250000D02*
X120830000Y-89800000D01*
G75*
G02*
X120930000Y-89700000I100000J0D01*
G01*
X121130000Y-89700000D01*
G75*
G02*
X121230000Y-89800000I0J-100000D01*
G01*
X121230000Y-91250000D01*
G75*
G02*
X121130000Y-91350000I-100000J0D01*
G01*
X120930000Y-91350000D01*
G75*
G02*
X120830000Y-91250000I0J100000D01*
G01*
G37*
G36*
G01*
X121330000Y-91250000D02*
X121330000Y-89800000D01*
G75*
G02*
X121430000Y-89700000I100000J0D01*
G01*
X121630000Y-89700000D01*
G75*
G02*
X121730000Y-89800000I0J-100000D01*
G01*
X121730000Y-91250000D01*
G75*
G02*
X121630000Y-91350000I-100000J0D01*
G01*
X121430000Y-91350000D01*
G75*
G02*
X121330000Y-91250000I0J100000D01*
G01*
G37*
G36*
G01*
X121830000Y-91250000D02*
X121830000Y-89800000D01*
G75*
G02*
X121930000Y-89700000I100000J0D01*
G01*
X122130000Y-89700000D01*
G75*
G02*
X122230000Y-89800000I0J-100000D01*
G01*
X122230000Y-91250000D01*
G75*
G02*
X122130000Y-91350000I-100000J0D01*
G01*
X121930000Y-91350000D01*
G75*
G02*
X121830000Y-91250000I0J100000D01*
G01*
G37*
G36*
G01*
X122330000Y-91250000D02*
X122330000Y-89800000D01*
G75*
G02*
X122430000Y-89700000I100000J0D01*
G01*
X122630000Y-89700000D01*
G75*
G02*
X122730000Y-89800000I0J-100000D01*
G01*
X122730000Y-91250000D01*
G75*
G02*
X122630000Y-91350000I-100000J0D01*
G01*
X122430000Y-91350000D01*
G75*
G02*
X122330000Y-91250000I0J100000D01*
G01*
G37*
G36*
G01*
X122830000Y-91250000D02*
X122830000Y-89800000D01*
G75*
G02*
X122930000Y-89700000I100000J0D01*
G01*
X123130000Y-89700000D01*
G75*
G02*
X123230000Y-89800000I0J-100000D01*
G01*
X123230000Y-91250000D01*
G75*
G02*
X123130000Y-91350000I-100000J0D01*
G01*
X122930000Y-91350000D01*
G75*
G02*
X122830000Y-91250000I0J100000D01*
G01*
G37*
G36*
G01*
X123330000Y-91250000D02*
X123330000Y-89800000D01*
G75*
G02*
X123430000Y-89700000I100000J0D01*
G01*
X123630000Y-89700000D01*
G75*
G02*
X123730000Y-89800000I0J-100000D01*
G01*
X123730000Y-91250000D01*
G75*
G02*
X123630000Y-91350000I-100000J0D01*
G01*
X123430000Y-91350000D01*
G75*
G02*
X123330000Y-91250000I0J100000D01*
G01*
G37*
G36*
G01*
X123830000Y-91250000D02*
X123830000Y-89800000D01*
G75*
G02*
X123930000Y-89700000I100000J0D01*
G01*
X124130000Y-89700000D01*
G75*
G02*
X124230000Y-89800000I0J-100000D01*
G01*
X124230000Y-91250000D01*
G75*
G02*
X124130000Y-91350000I-100000J0D01*
G01*
X123930000Y-91350000D01*
G75*
G02*
X123830000Y-91250000I0J100000D01*
G01*
G37*
G36*
G01*
X124330000Y-91250000D02*
X124330000Y-89800000D01*
G75*
G02*
X124430000Y-89700000I100000J0D01*
G01*
X124630000Y-89700000D01*
G75*
G02*
X124730000Y-89800000I0J-100000D01*
G01*
X124730000Y-91250000D01*
G75*
G02*
X124630000Y-91350000I-100000J0D01*
G01*
X124430000Y-91350000D01*
G75*
G02*
X124330000Y-91250000I0J100000D01*
G01*
G37*
G36*
G01*
X124830000Y-91250000D02*
X124830000Y-89800000D01*
G75*
G02*
X124930000Y-89700000I100000J0D01*
G01*
X125130000Y-89700000D01*
G75*
G02*
X125230000Y-89800000I0J-100000D01*
G01*
X125230000Y-91250000D01*
G75*
G02*
X125130000Y-91350000I-100000J0D01*
G01*
X124930000Y-91350000D01*
G75*
G02*
X124830000Y-91250000I0J100000D01*
G01*
G37*
G36*
G01*
X125330000Y-91250000D02*
X125330000Y-89800000D01*
G75*
G02*
X125430000Y-89700000I100000J0D01*
G01*
X125630000Y-89700000D01*
G75*
G02*
X125730000Y-89800000I0J-100000D01*
G01*
X125730000Y-91250000D01*
G75*
G02*
X125630000Y-91350000I-100000J0D01*
G01*
X125430000Y-91350000D01*
G75*
G02*
X125330000Y-91250000I0J100000D01*
G01*
G37*
G36*
G01*
X126630000Y-92550000D02*
X126630000Y-92350000D01*
G75*
G02*
X126730000Y-92250000I100000J0D01*
G01*
X128180000Y-92250000D01*
G75*
G02*
X128280000Y-92350000I0J-100000D01*
G01*
X128280000Y-92550000D01*
G75*
G02*
X128180000Y-92650000I-100000J0D01*
G01*
X126730000Y-92650000D01*
G75*
G02*
X126630000Y-92550000I0J100000D01*
G01*
G37*
G36*
G01*
X126630000Y-93050000D02*
X126630000Y-92850000D01*
G75*
G02*
X126730000Y-92750000I100000J0D01*
G01*
X128180000Y-92750000D01*
G75*
G02*
X128280000Y-92850000I0J-100000D01*
G01*
X128280000Y-93050000D01*
G75*
G02*
X128180000Y-93150000I-100000J0D01*
G01*
X126730000Y-93150000D01*
G75*
G02*
X126630000Y-93050000I0J100000D01*
G01*
G37*
G36*
G01*
X126630000Y-93550000D02*
X126630000Y-93350000D01*
G75*
G02*
X126730000Y-93250000I100000J0D01*
G01*
X128180000Y-93250000D01*
G75*
G02*
X128280000Y-93350000I0J-100000D01*
G01*
X128280000Y-93550000D01*
G75*
G02*
X128180000Y-93650000I-100000J0D01*
G01*
X126730000Y-93650000D01*
G75*
G02*
X126630000Y-93550000I0J100000D01*
G01*
G37*
G36*
G01*
X126630000Y-94050000D02*
X126630000Y-93850000D01*
G75*
G02*
X126730000Y-93750000I100000J0D01*
G01*
X128180000Y-93750000D01*
G75*
G02*
X128280000Y-93850000I0J-100000D01*
G01*
X128280000Y-94050000D01*
G75*
G02*
X128180000Y-94150000I-100000J0D01*
G01*
X126730000Y-94150000D01*
G75*
G02*
X126630000Y-94050000I0J100000D01*
G01*
G37*
G36*
G01*
X126630000Y-94550000D02*
X126630000Y-94350000D01*
G75*
G02*
X126730000Y-94250000I100000J0D01*
G01*
X128180000Y-94250000D01*
G75*
G02*
X128280000Y-94350000I0J-100000D01*
G01*
X128280000Y-94550000D01*
G75*
G02*
X128180000Y-94650000I-100000J0D01*
G01*
X126730000Y-94650000D01*
G75*
G02*
X126630000Y-94550000I0J100000D01*
G01*
G37*
G36*
G01*
X126630000Y-95050000D02*
X126630000Y-94850000D01*
G75*
G02*
X126730000Y-94750000I100000J0D01*
G01*
X128180000Y-94750000D01*
G75*
G02*
X128280000Y-94850000I0J-100000D01*
G01*
X128280000Y-95050000D01*
G75*
G02*
X128180000Y-95150000I-100000J0D01*
G01*
X126730000Y-95150000D01*
G75*
G02*
X126630000Y-95050000I0J100000D01*
G01*
G37*
G36*
G01*
X126630000Y-95550000D02*
X126630000Y-95350000D01*
G75*
G02*
X126730000Y-95250000I100000J0D01*
G01*
X128180000Y-95250000D01*
G75*
G02*
X128280000Y-95350000I0J-100000D01*
G01*
X128280000Y-95550000D01*
G75*
G02*
X128180000Y-95650000I-100000J0D01*
G01*
X126730000Y-95650000D01*
G75*
G02*
X126630000Y-95550000I0J100000D01*
G01*
G37*
G36*
G01*
X126630000Y-96050000D02*
X126630000Y-95850000D01*
G75*
G02*
X126730000Y-95750000I100000J0D01*
G01*
X128180000Y-95750000D01*
G75*
G02*
X128280000Y-95850000I0J-100000D01*
G01*
X128280000Y-96050000D01*
G75*
G02*
X128180000Y-96150000I-100000J0D01*
G01*
X126730000Y-96150000D01*
G75*
G02*
X126630000Y-96050000I0J100000D01*
G01*
G37*
G36*
G01*
X126630000Y-96550000D02*
X126630000Y-96350000D01*
G75*
G02*
X126730000Y-96250000I100000J0D01*
G01*
X128180000Y-96250000D01*
G75*
G02*
X128280000Y-96350000I0J-100000D01*
G01*
X128280000Y-96550000D01*
G75*
G02*
X128180000Y-96650000I-100000J0D01*
G01*
X126730000Y-96650000D01*
G75*
G02*
X126630000Y-96550000I0J100000D01*
G01*
G37*
G36*
G01*
X126630000Y-97050000D02*
X126630000Y-96850000D01*
G75*
G02*
X126730000Y-96750000I100000J0D01*
G01*
X128180000Y-96750000D01*
G75*
G02*
X128280000Y-96850000I0J-100000D01*
G01*
X128280000Y-97050000D01*
G75*
G02*
X128180000Y-97150000I-100000J0D01*
G01*
X126730000Y-97150000D01*
G75*
G02*
X126630000Y-97050000I0J100000D01*
G01*
G37*
G36*
G01*
X126630000Y-97550000D02*
X126630000Y-97350000D01*
G75*
G02*
X126730000Y-97250000I100000J0D01*
G01*
X128180000Y-97250000D01*
G75*
G02*
X128280000Y-97350000I0J-100000D01*
G01*
X128280000Y-97550000D01*
G75*
G02*
X128180000Y-97650000I-100000J0D01*
G01*
X126730000Y-97650000D01*
G75*
G02*
X126630000Y-97550000I0J100000D01*
G01*
G37*
G36*
G01*
X126630000Y-98050000D02*
X126630000Y-97850000D01*
G75*
G02*
X126730000Y-97750000I100000J0D01*
G01*
X128180000Y-97750000D01*
G75*
G02*
X128280000Y-97850000I0J-100000D01*
G01*
X128280000Y-98050000D01*
G75*
G02*
X128180000Y-98150000I-100000J0D01*
G01*
X126730000Y-98150000D01*
G75*
G02*
X126630000Y-98050000I0J100000D01*
G01*
G37*
G36*
G01*
X126630000Y-98550000D02*
X126630000Y-98350000D01*
G75*
G02*
X126730000Y-98250000I100000J0D01*
G01*
X128180000Y-98250000D01*
G75*
G02*
X128280000Y-98350000I0J-100000D01*
G01*
X128280000Y-98550000D01*
G75*
G02*
X128180000Y-98650000I-100000J0D01*
G01*
X126730000Y-98650000D01*
G75*
G02*
X126630000Y-98550000I0J100000D01*
G01*
G37*
G36*
G01*
X126630000Y-99050000D02*
X126630000Y-98850000D01*
G75*
G02*
X126730000Y-98750000I100000J0D01*
G01*
X128180000Y-98750000D01*
G75*
G02*
X128280000Y-98850000I0J-100000D01*
G01*
X128280000Y-99050000D01*
G75*
G02*
X128180000Y-99150000I-100000J0D01*
G01*
X126730000Y-99150000D01*
G75*
G02*
X126630000Y-99050000I0J100000D01*
G01*
G37*
G36*
G01*
X126630000Y-99550000D02*
X126630000Y-99350000D01*
G75*
G02*
X126730000Y-99250000I100000J0D01*
G01*
X128180000Y-99250000D01*
G75*
G02*
X128280000Y-99350000I0J-100000D01*
G01*
X128280000Y-99550000D01*
G75*
G02*
X128180000Y-99650000I-100000J0D01*
G01*
X126730000Y-99650000D01*
G75*
G02*
X126630000Y-99550000I0J100000D01*
G01*
G37*
G36*
G01*
X126630000Y-100050000D02*
X126630000Y-99850000D01*
G75*
G02*
X126730000Y-99750000I100000J0D01*
G01*
X128180000Y-99750000D01*
G75*
G02*
X128280000Y-99850000I0J-100000D01*
G01*
X128280000Y-100050000D01*
G75*
G02*
X128180000Y-100150000I-100000J0D01*
G01*
X126730000Y-100150000D01*
G75*
G02*
X126630000Y-100050000I0J100000D01*
G01*
G37*
G36*
G01*
X125330000Y-102600000D02*
X125330000Y-101150000D01*
G75*
G02*
X125430000Y-101050000I100000J0D01*
G01*
X125630000Y-101050000D01*
G75*
G02*
X125730000Y-101150000I0J-100000D01*
G01*
X125730000Y-102600000D01*
G75*
G02*
X125630000Y-102700000I-100000J0D01*
G01*
X125430000Y-102700000D01*
G75*
G02*
X125330000Y-102600000I0J100000D01*
G01*
G37*
G36*
G01*
X124830000Y-102600000D02*
X124830000Y-101150000D01*
G75*
G02*
X124930000Y-101050000I100000J0D01*
G01*
X125130000Y-101050000D01*
G75*
G02*
X125230000Y-101150000I0J-100000D01*
G01*
X125230000Y-102600000D01*
G75*
G02*
X125130000Y-102700000I-100000J0D01*
G01*
X124930000Y-102700000D01*
G75*
G02*
X124830000Y-102600000I0J100000D01*
G01*
G37*
G36*
G01*
X124330000Y-102600000D02*
X124330000Y-101150000D01*
G75*
G02*
X124430000Y-101050000I100000J0D01*
G01*
X124630000Y-101050000D01*
G75*
G02*
X124730000Y-101150000I0J-100000D01*
G01*
X124730000Y-102600000D01*
G75*
G02*
X124630000Y-102700000I-100000J0D01*
G01*
X124430000Y-102700000D01*
G75*
G02*
X124330000Y-102600000I0J100000D01*
G01*
G37*
G36*
G01*
X123830000Y-102600000D02*
X123830000Y-101150000D01*
G75*
G02*
X123930000Y-101050000I100000J0D01*
G01*
X124130000Y-101050000D01*
G75*
G02*
X124230000Y-101150000I0J-100000D01*
G01*
X124230000Y-102600000D01*
G75*
G02*
X124130000Y-102700000I-100000J0D01*
G01*
X123930000Y-102700000D01*
G75*
G02*
X123830000Y-102600000I0J100000D01*
G01*
G37*
G36*
G01*
X123330000Y-102600000D02*
X123330000Y-101150000D01*
G75*
G02*
X123430000Y-101050000I100000J0D01*
G01*
X123630000Y-101050000D01*
G75*
G02*
X123730000Y-101150000I0J-100000D01*
G01*
X123730000Y-102600000D01*
G75*
G02*
X123630000Y-102700000I-100000J0D01*
G01*
X123430000Y-102700000D01*
G75*
G02*
X123330000Y-102600000I0J100000D01*
G01*
G37*
G36*
G01*
X122830000Y-102600000D02*
X122830000Y-101150000D01*
G75*
G02*
X122930000Y-101050000I100000J0D01*
G01*
X123130000Y-101050000D01*
G75*
G02*
X123230000Y-101150000I0J-100000D01*
G01*
X123230000Y-102600000D01*
G75*
G02*
X123130000Y-102700000I-100000J0D01*
G01*
X122930000Y-102700000D01*
G75*
G02*
X122830000Y-102600000I0J100000D01*
G01*
G37*
G36*
G01*
X122330000Y-102600000D02*
X122330000Y-101150000D01*
G75*
G02*
X122430000Y-101050000I100000J0D01*
G01*
X122630000Y-101050000D01*
G75*
G02*
X122730000Y-101150000I0J-100000D01*
G01*
X122730000Y-102600000D01*
G75*
G02*
X122630000Y-102700000I-100000J0D01*
G01*
X122430000Y-102700000D01*
G75*
G02*
X122330000Y-102600000I0J100000D01*
G01*
G37*
G36*
G01*
X121830000Y-102600000D02*
X121830000Y-101150000D01*
G75*
G02*
X121930000Y-101050000I100000J0D01*
G01*
X122130000Y-101050000D01*
G75*
G02*
X122230000Y-101150000I0J-100000D01*
G01*
X122230000Y-102600000D01*
G75*
G02*
X122130000Y-102700000I-100000J0D01*
G01*
X121930000Y-102700000D01*
G75*
G02*
X121830000Y-102600000I0J100000D01*
G01*
G37*
G36*
G01*
X121330000Y-102600000D02*
X121330000Y-101150000D01*
G75*
G02*
X121430000Y-101050000I100000J0D01*
G01*
X121630000Y-101050000D01*
G75*
G02*
X121730000Y-101150000I0J-100000D01*
G01*
X121730000Y-102600000D01*
G75*
G02*
X121630000Y-102700000I-100000J0D01*
G01*
X121430000Y-102700000D01*
G75*
G02*
X121330000Y-102600000I0J100000D01*
G01*
G37*
G36*
G01*
X120830000Y-102600000D02*
X120830000Y-101150000D01*
G75*
G02*
X120930000Y-101050000I100000J0D01*
G01*
X121130000Y-101050000D01*
G75*
G02*
X121230000Y-101150000I0J-100000D01*
G01*
X121230000Y-102600000D01*
G75*
G02*
X121130000Y-102700000I-100000J0D01*
G01*
X120930000Y-102700000D01*
G75*
G02*
X120830000Y-102600000I0J100000D01*
G01*
G37*
G36*
G01*
X120330000Y-102600000D02*
X120330000Y-101150000D01*
G75*
G02*
X120430000Y-101050000I100000J0D01*
G01*
X120630000Y-101050000D01*
G75*
G02*
X120730000Y-101150000I0J-100000D01*
G01*
X120730000Y-102600000D01*
G75*
G02*
X120630000Y-102700000I-100000J0D01*
G01*
X120430000Y-102700000D01*
G75*
G02*
X120330000Y-102600000I0J100000D01*
G01*
G37*
G36*
G01*
X119830000Y-102600000D02*
X119830000Y-101150000D01*
G75*
G02*
X119930000Y-101050000I100000J0D01*
G01*
X120130000Y-101050000D01*
G75*
G02*
X120230000Y-101150000I0J-100000D01*
G01*
X120230000Y-102600000D01*
G75*
G02*
X120130000Y-102700000I-100000J0D01*
G01*
X119930000Y-102700000D01*
G75*
G02*
X119830000Y-102600000I0J100000D01*
G01*
G37*
G36*
G01*
X119330000Y-102600000D02*
X119330000Y-101150000D01*
G75*
G02*
X119430000Y-101050000I100000J0D01*
G01*
X119630000Y-101050000D01*
G75*
G02*
X119730000Y-101150000I0J-100000D01*
G01*
X119730000Y-102600000D01*
G75*
G02*
X119630000Y-102700000I-100000J0D01*
G01*
X119430000Y-102700000D01*
G75*
G02*
X119330000Y-102600000I0J100000D01*
G01*
G37*
G36*
G01*
X118830000Y-102600000D02*
X118830000Y-101150000D01*
G75*
G02*
X118930000Y-101050000I100000J0D01*
G01*
X119130000Y-101050000D01*
G75*
G02*
X119230000Y-101150000I0J-100000D01*
G01*
X119230000Y-102600000D01*
G75*
G02*
X119130000Y-102700000I-100000J0D01*
G01*
X118930000Y-102700000D01*
G75*
G02*
X118830000Y-102600000I0J100000D01*
G01*
G37*
G36*
G01*
X118330000Y-102600000D02*
X118330000Y-101150000D01*
G75*
G02*
X118430000Y-101050000I100000J0D01*
G01*
X118630000Y-101050000D01*
G75*
G02*
X118730000Y-101150000I0J-100000D01*
G01*
X118730000Y-102600000D01*
G75*
G02*
X118630000Y-102700000I-100000J0D01*
G01*
X118430000Y-102700000D01*
G75*
G02*
X118330000Y-102600000I0J100000D01*
G01*
G37*
G36*
G01*
X117830000Y-102600000D02*
X117830000Y-101150000D01*
G75*
G02*
X117930000Y-101050000I100000J0D01*
G01*
X118130000Y-101050000D01*
G75*
G02*
X118230000Y-101150000I0J-100000D01*
G01*
X118230000Y-102600000D01*
G75*
G02*
X118130000Y-102700000I-100000J0D01*
G01*
X117930000Y-102700000D01*
G75*
G02*
X117830000Y-102600000I0J100000D01*
G01*
G37*
G36*
G01*
X115280000Y-100050000D02*
X115280000Y-99850000D01*
G75*
G02*
X115380000Y-99750000I100000J0D01*
G01*
X116830000Y-99750000D01*
G75*
G02*
X116930000Y-99850000I0J-100000D01*
G01*
X116930000Y-100050000D01*
G75*
G02*
X116830000Y-100150000I-100000J0D01*
G01*
X115380000Y-100150000D01*
G75*
G02*
X115280000Y-100050000I0J100000D01*
G01*
G37*
G36*
G01*
X115280000Y-99550000D02*
X115280000Y-99350000D01*
G75*
G02*
X115380000Y-99250000I100000J0D01*
G01*
X116830000Y-99250000D01*
G75*
G02*
X116930000Y-99350000I0J-100000D01*
G01*
X116930000Y-99550000D01*
G75*
G02*
X116830000Y-99650000I-100000J0D01*
G01*
X115380000Y-99650000D01*
G75*
G02*
X115280000Y-99550000I0J100000D01*
G01*
G37*
G36*
G01*
X115280000Y-99050000D02*
X115280000Y-98850000D01*
G75*
G02*
X115380000Y-98750000I100000J0D01*
G01*
X116830000Y-98750000D01*
G75*
G02*
X116930000Y-98850000I0J-100000D01*
G01*
X116930000Y-99050000D01*
G75*
G02*
X116830000Y-99150000I-100000J0D01*
G01*
X115380000Y-99150000D01*
G75*
G02*
X115280000Y-99050000I0J100000D01*
G01*
G37*
G36*
G01*
X115280000Y-98550000D02*
X115280000Y-98350000D01*
G75*
G02*
X115380000Y-98250000I100000J0D01*
G01*
X116830000Y-98250000D01*
G75*
G02*
X116930000Y-98350000I0J-100000D01*
G01*
X116930000Y-98550000D01*
G75*
G02*
X116830000Y-98650000I-100000J0D01*
G01*
X115380000Y-98650000D01*
G75*
G02*
X115280000Y-98550000I0J100000D01*
G01*
G37*
G36*
G01*
X115280000Y-98050000D02*
X115280000Y-97850000D01*
G75*
G02*
X115380000Y-97750000I100000J0D01*
G01*
X116830000Y-97750000D01*
G75*
G02*
X116930000Y-97850000I0J-100000D01*
G01*
X116930000Y-98050000D01*
G75*
G02*
X116830000Y-98150000I-100000J0D01*
G01*
X115380000Y-98150000D01*
G75*
G02*
X115280000Y-98050000I0J100000D01*
G01*
G37*
G36*
G01*
X115280000Y-97550000D02*
X115280000Y-97350000D01*
G75*
G02*
X115380000Y-97250000I100000J0D01*
G01*
X116830000Y-97250000D01*
G75*
G02*
X116930000Y-97350000I0J-100000D01*
G01*
X116930000Y-97550000D01*
G75*
G02*
X116830000Y-97650000I-100000J0D01*
G01*
X115380000Y-97650000D01*
G75*
G02*
X115280000Y-97550000I0J100000D01*
G01*
G37*
G36*
G01*
X115280000Y-97050000D02*
X115280000Y-96850000D01*
G75*
G02*
X115380000Y-96750000I100000J0D01*
G01*
X116830000Y-96750000D01*
G75*
G02*
X116930000Y-96850000I0J-100000D01*
G01*
X116930000Y-97050000D01*
G75*
G02*
X116830000Y-97150000I-100000J0D01*
G01*
X115380000Y-97150000D01*
G75*
G02*
X115280000Y-97050000I0J100000D01*
G01*
G37*
G36*
G01*
X115280000Y-96550000D02*
X115280000Y-96350000D01*
G75*
G02*
X115380000Y-96250000I100000J0D01*
G01*
X116830000Y-96250000D01*
G75*
G02*
X116930000Y-96350000I0J-100000D01*
G01*
X116930000Y-96550000D01*
G75*
G02*
X116830000Y-96650000I-100000J0D01*
G01*
X115380000Y-96650000D01*
G75*
G02*
X115280000Y-96550000I0J100000D01*
G01*
G37*
G36*
G01*
X115280000Y-96050000D02*
X115280000Y-95850000D01*
G75*
G02*
X115380000Y-95750000I100000J0D01*
G01*
X116830000Y-95750000D01*
G75*
G02*
X116930000Y-95850000I0J-100000D01*
G01*
X116930000Y-96050000D01*
G75*
G02*
X116830000Y-96150000I-100000J0D01*
G01*
X115380000Y-96150000D01*
G75*
G02*
X115280000Y-96050000I0J100000D01*
G01*
G37*
G36*
G01*
X115280000Y-95550000D02*
X115280000Y-95350000D01*
G75*
G02*
X115380000Y-95250000I100000J0D01*
G01*
X116830000Y-95250000D01*
G75*
G02*
X116930000Y-95350000I0J-100000D01*
G01*
X116930000Y-95550000D01*
G75*
G02*
X116830000Y-95650000I-100000J0D01*
G01*
X115380000Y-95650000D01*
G75*
G02*
X115280000Y-95550000I0J100000D01*
G01*
G37*
G36*
G01*
X115280000Y-95050000D02*
X115280000Y-94850000D01*
G75*
G02*
X115380000Y-94750000I100000J0D01*
G01*
X116830000Y-94750000D01*
G75*
G02*
X116930000Y-94850000I0J-100000D01*
G01*
X116930000Y-95050000D01*
G75*
G02*
X116830000Y-95150000I-100000J0D01*
G01*
X115380000Y-95150000D01*
G75*
G02*
X115280000Y-95050000I0J100000D01*
G01*
G37*
G36*
G01*
X115280000Y-94550000D02*
X115280000Y-94350000D01*
G75*
G02*
X115380000Y-94250000I100000J0D01*
G01*
X116830000Y-94250000D01*
G75*
G02*
X116930000Y-94350000I0J-100000D01*
G01*
X116930000Y-94550000D01*
G75*
G02*
X116830000Y-94650000I-100000J0D01*
G01*
X115380000Y-94650000D01*
G75*
G02*
X115280000Y-94550000I0J100000D01*
G01*
G37*
G36*
G01*
X115280000Y-94050000D02*
X115280000Y-93850000D01*
G75*
G02*
X115380000Y-93750000I100000J0D01*
G01*
X116830000Y-93750000D01*
G75*
G02*
X116930000Y-93850000I0J-100000D01*
G01*
X116930000Y-94050000D01*
G75*
G02*
X116830000Y-94150000I-100000J0D01*
G01*
X115380000Y-94150000D01*
G75*
G02*
X115280000Y-94050000I0J100000D01*
G01*
G37*
G36*
G01*
X115280000Y-93550000D02*
X115280000Y-93350000D01*
G75*
G02*
X115380000Y-93250000I100000J0D01*
G01*
X116830000Y-93250000D01*
G75*
G02*
X116930000Y-93350000I0J-100000D01*
G01*
X116930000Y-93550000D01*
G75*
G02*
X116830000Y-93650000I-100000J0D01*
G01*
X115380000Y-93650000D01*
G75*
G02*
X115280000Y-93550000I0J100000D01*
G01*
G37*
G36*
G01*
X115280000Y-93050000D02*
X115280000Y-92850000D01*
G75*
G02*
X115380000Y-92750000I100000J0D01*
G01*
X116830000Y-92750000D01*
G75*
G02*
X116930000Y-92850000I0J-100000D01*
G01*
X116930000Y-93050000D01*
G75*
G02*
X116830000Y-93150000I-100000J0D01*
G01*
X115380000Y-93150000D01*
G75*
G02*
X115280000Y-93050000I0J100000D01*
G01*
G37*
G36*
G01*
X115280000Y-92550000D02*
X115280000Y-92350000D01*
G75*
G02*
X115380000Y-92250000I100000J0D01*
G01*
X116830000Y-92250000D01*
G75*
G02*
X116930000Y-92350000I0J-100000D01*
G01*
X116930000Y-92550000D01*
G75*
G02*
X116830000Y-92650000I-100000J0D01*
G01*
X115380000Y-92650000D01*
G75*
G02*
X115280000Y-92550000I0J100000D01*
G01*
G37*
G36*
G01*
X113500000Y-78880000D02*
X113500000Y-79230000D01*
G75*
G02*
X113325000Y-79405000I-175000J0D01*
G01*
X111625000Y-79405000D01*
G75*
G02*
X111450000Y-79230000I0J175000D01*
G01*
X111450000Y-78880000D01*
G75*
G02*
X111625000Y-78705000I175000J0D01*
G01*
X113325000Y-78705000D01*
G75*
G02*
X113500000Y-78880000I0J-175000D01*
G01*
G37*
G36*
G01*
X113500000Y-77610000D02*
X113500000Y-77960000D01*
G75*
G02*
X113325000Y-78135000I-175000J0D01*
G01*
X111625000Y-78135000D01*
G75*
G02*
X111450000Y-77960000I0J175000D01*
G01*
X111450000Y-77610000D01*
G75*
G02*
X111625000Y-77435000I175000J0D01*
G01*
X113325000Y-77435000D01*
G75*
G02*
X113500000Y-77610000I0J-175000D01*
G01*
G37*
G36*
G01*
X113500000Y-76340000D02*
X113500000Y-76690000D01*
G75*
G02*
X113325000Y-76865000I-175000J0D01*
G01*
X111625000Y-76865000D01*
G75*
G02*
X111450000Y-76690000I0J175000D01*
G01*
X111450000Y-76340000D01*
G75*
G02*
X111625000Y-76165000I175000J0D01*
G01*
X113325000Y-76165000D01*
G75*
G02*
X113500000Y-76340000I0J-175000D01*
G01*
G37*
G36*
G01*
X113500000Y-75070000D02*
X113500000Y-75420000D01*
G75*
G02*
X113325000Y-75595000I-175000J0D01*
G01*
X111625000Y-75595000D01*
G75*
G02*
X111450000Y-75420000I0J175000D01*
G01*
X111450000Y-75070000D01*
G75*
G02*
X111625000Y-74895000I175000J0D01*
G01*
X113325000Y-74895000D01*
G75*
G02*
X113500000Y-75070000I0J-175000D01*
G01*
G37*
G36*
G01*
X113500000Y-73800000D02*
X113500000Y-74150000D01*
G75*
G02*
X113325000Y-74325000I-175000J0D01*
G01*
X111625000Y-74325000D01*
G75*
G02*
X111450000Y-74150000I0J175000D01*
G01*
X111450000Y-73800000D01*
G75*
G02*
X111625000Y-73625000I175000J0D01*
G01*
X113325000Y-73625000D01*
G75*
G02*
X113500000Y-73800000I0J-175000D01*
G01*
G37*
G36*
G01*
X113500000Y-72530000D02*
X113500000Y-72880000D01*
G75*
G02*
X113325000Y-73055000I-175000J0D01*
G01*
X111625000Y-73055000D01*
G75*
G02*
X111450000Y-72880000I0J175000D01*
G01*
X111450000Y-72530000D01*
G75*
G02*
X111625000Y-72355000I175000J0D01*
G01*
X113325000Y-72355000D01*
G75*
G02*
X113500000Y-72530000I0J-175000D01*
G01*
G37*
G36*
G01*
X113500000Y-71260000D02*
X113500000Y-71610000D01*
G75*
G02*
X113325000Y-71785000I-175000J0D01*
G01*
X111625000Y-71785000D01*
G75*
G02*
X111450000Y-71610000I0J175000D01*
G01*
X111450000Y-71260000D01*
G75*
G02*
X111625000Y-71085000I175000J0D01*
G01*
X113325000Y-71085000D01*
G75*
G02*
X113500000Y-71260000I0J-175000D01*
G01*
G37*
G36*
G01*
X113500000Y-69990000D02*
X113500000Y-70340000D01*
G75*
G02*
X113325000Y-70515000I-175000J0D01*
G01*
X111625000Y-70515000D01*
G75*
G02*
X111450000Y-70340000I0J175000D01*
G01*
X111450000Y-69990000D01*
G75*
G02*
X111625000Y-69815000I175000J0D01*
G01*
X113325000Y-69815000D01*
G75*
G02*
X113500000Y-69990000I0J-175000D01*
G01*
G37*
G36*
G01*
X118450000Y-69990000D02*
X118450000Y-70340000D01*
G75*
G02*
X118275000Y-70515000I-175000J0D01*
G01*
X116575000Y-70515000D01*
G75*
G02*
X116400000Y-70340000I0J175000D01*
G01*
X116400000Y-69990000D01*
G75*
G02*
X116575000Y-69815000I175000J0D01*
G01*
X118275000Y-69815000D01*
G75*
G02*
X118450000Y-69990000I0J-175000D01*
G01*
G37*
G36*
G01*
X118450000Y-71260000D02*
X118450000Y-71610000D01*
G75*
G02*
X118275000Y-71785000I-175000J0D01*
G01*
X116575000Y-71785000D01*
G75*
G02*
X116400000Y-71610000I0J175000D01*
G01*
X116400000Y-71260000D01*
G75*
G02*
X116575000Y-71085000I175000J0D01*
G01*
X118275000Y-71085000D01*
G75*
G02*
X118450000Y-71260000I0J-175000D01*
G01*
G37*
G36*
G01*
X118450000Y-72530000D02*
X118450000Y-72880000D01*
G75*
G02*
X118275000Y-73055000I-175000J0D01*
G01*
X116575000Y-73055000D01*
G75*
G02*
X116400000Y-72880000I0J175000D01*
G01*
X116400000Y-72530000D01*
G75*
G02*
X116575000Y-72355000I175000J0D01*
G01*
X118275000Y-72355000D01*
G75*
G02*
X118450000Y-72530000I0J-175000D01*
G01*
G37*
G36*
G01*
X118450000Y-73800000D02*
X118450000Y-74150000D01*
G75*
G02*
X118275000Y-74325000I-175000J0D01*
G01*
X116575000Y-74325000D01*
G75*
G02*
X116400000Y-74150000I0J175000D01*
G01*
X116400000Y-73800000D01*
G75*
G02*
X116575000Y-73625000I175000J0D01*
G01*
X118275000Y-73625000D01*
G75*
G02*
X118450000Y-73800000I0J-175000D01*
G01*
G37*
G36*
G01*
X118450000Y-75070000D02*
X118450000Y-75420000D01*
G75*
G02*
X118275000Y-75595000I-175000J0D01*
G01*
X116575000Y-75595000D01*
G75*
G02*
X116400000Y-75420000I0J175000D01*
G01*
X116400000Y-75070000D01*
G75*
G02*
X116575000Y-74895000I175000J0D01*
G01*
X118275000Y-74895000D01*
G75*
G02*
X118450000Y-75070000I0J-175000D01*
G01*
G37*
G36*
G01*
X118450000Y-76340000D02*
X118450000Y-76690000D01*
G75*
G02*
X118275000Y-76865000I-175000J0D01*
G01*
X116575000Y-76865000D01*
G75*
G02*
X116400000Y-76690000I0J175000D01*
G01*
X116400000Y-76340000D01*
G75*
G02*
X116575000Y-76165000I175000J0D01*
G01*
X118275000Y-76165000D01*
G75*
G02*
X118450000Y-76340000I0J-175000D01*
G01*
G37*
G36*
G01*
X118450000Y-77610000D02*
X118450000Y-77960000D01*
G75*
G02*
X118275000Y-78135000I-175000J0D01*
G01*
X116575000Y-78135000D01*
G75*
G02*
X116400000Y-77960000I0J175000D01*
G01*
X116400000Y-77610000D01*
G75*
G02*
X116575000Y-77435000I175000J0D01*
G01*
X118275000Y-77435000D01*
G75*
G02*
X118450000Y-77610000I0J-175000D01*
G01*
G37*
G36*
G01*
X118450000Y-78880000D02*
X118450000Y-79230000D01*
G75*
G02*
X118275000Y-79405000I-175000J0D01*
G01*
X116575000Y-79405000D01*
G75*
G02*
X116400000Y-79230000I0J175000D01*
G01*
X116400000Y-78880000D01*
G75*
G02*
X116575000Y-78705000I175000J0D01*
G01*
X118275000Y-78705000D01*
G75*
G02*
X118450000Y-78880000I0J-175000D01*
G01*
G37*
G36*
G01*
X113110000Y-80597500D02*
X113110000Y-80202500D01*
G75*
G02*
X113282500Y-80030000I172500J0D01*
G01*
X113627500Y-80030000D01*
G75*
G02*
X113800000Y-80202500I0J-172500D01*
G01*
X113800000Y-80597500D01*
G75*
G02*
X113627500Y-80770000I-172500J0D01*
G01*
X113282500Y-80770000D01*
G75*
G02*
X113110000Y-80597500I0J172500D01*
G01*
G37*
G36*
G01*
X112140000Y-80597500D02*
X112140000Y-80202500D01*
G75*
G02*
X112312500Y-80030000I172500J0D01*
G01*
X112657500Y-80030000D01*
G75*
G02*
X112830000Y-80202500I0J-172500D01*
G01*
X112830000Y-80597500D01*
G75*
G02*
X112657500Y-80770000I-172500J0D01*
G01*
X112312500Y-80770000D01*
G75*
G02*
X112140000Y-80597500I0J172500D01*
G01*
G37*
G36*
G01*
X119864100Y-75424800D02*
X119864100Y-75029800D01*
G75*
G02*
X120036600Y-74857300I172500J0D01*
G01*
X120381600Y-74857300D01*
G75*
G02*
X120554100Y-75029800I0J-172500D01*
G01*
X120554100Y-75424800D01*
G75*
G02*
X120381600Y-75597300I-172500J0D01*
G01*
X120036600Y-75597300D01*
G75*
G02*
X119864100Y-75424800I0J172500D01*
G01*
G37*
G36*
G01*
X118894100Y-75424800D02*
X118894100Y-75029800D01*
G75*
G02*
X119066600Y-74857300I172500J0D01*
G01*
X119411600Y-74857300D01*
G75*
G02*
X119584100Y-75029800I0J-172500D01*
G01*
X119584100Y-75424800D01*
G75*
G02*
X119411600Y-75597300I-172500J0D01*
G01*
X119066600Y-75597300D01*
G75*
G02*
X118894100Y-75424800I0J172500D01*
G01*
G37*
G36*
G01*
X87162500Y-101100000D02*
X87557500Y-101100000D01*
G75*
G02*
X87730000Y-101272500I0J-172500D01*
G01*
X87730000Y-101617500D01*
G75*
G02*
X87557500Y-101790000I-172500J0D01*
G01*
X87162500Y-101790000D01*
G75*
G02*
X86990000Y-101617500I0J172500D01*
G01*
X86990000Y-101272500D01*
G75*
G02*
X87162500Y-101100000I172500J0D01*
G01*
G37*
G36*
G01*
X87162500Y-102070000D02*
X87557500Y-102070000D01*
G75*
G02*
X87730000Y-102242500I0J-172500D01*
G01*
X87730000Y-102587500D01*
G75*
G02*
X87557500Y-102760000I-172500J0D01*
G01*
X87162500Y-102760000D01*
G75*
G02*
X86990000Y-102587500I0J172500D01*
G01*
X86990000Y-102242500D01*
G75*
G02*
X87162500Y-102070000I172500J0D01*
G01*
G37*
G36*
G01*
X99872500Y-102770000D02*
X100267500Y-102770000D01*
G75*
G02*
X100440000Y-102942500I0J-172500D01*
G01*
X100440000Y-103287500D01*
G75*
G02*
X100267500Y-103460000I-172500J0D01*
G01*
X99872500Y-103460000D01*
G75*
G02*
X99700000Y-103287500I0J172500D01*
G01*
X99700000Y-102942500D01*
G75*
G02*
X99872500Y-102770000I172500J0D01*
G01*
G37*
G36*
G01*
X99872500Y-101800000D02*
X100267500Y-101800000D01*
G75*
G02*
X100440000Y-101972500I0J-172500D01*
G01*
X100440000Y-102317500D01*
G75*
G02*
X100267500Y-102490000I-172500J0D01*
G01*
X99872500Y-102490000D01*
G75*
G02*
X99700000Y-102317500I0J172500D01*
G01*
X99700000Y-101972500D01*
G75*
G02*
X99872500Y-101800000I172500J0D01*
G01*
G37*
G36*
G01*
X99872500Y-103740000D02*
X100267500Y-103740000D01*
G75*
G02*
X100440000Y-103912500I0J-172500D01*
G01*
X100440000Y-104257500D01*
G75*
G02*
X100267500Y-104430000I-172500J0D01*
G01*
X99872500Y-104430000D01*
G75*
G02*
X99700000Y-104257500I0J172500D01*
G01*
X99700000Y-103912500D01*
G75*
G02*
X99872500Y-103740000I172500J0D01*
G01*
G37*
G36*
G01*
X99872500Y-104710000D02*
X100267500Y-104710000D01*
G75*
G02*
X100440000Y-104882500I0J-172500D01*
G01*
X100440000Y-105227500D01*
G75*
G02*
X100267500Y-105400000I-172500J0D01*
G01*
X99872500Y-105400000D01*
G75*
G02*
X99700000Y-105227500I0J172500D01*
G01*
X99700000Y-104882500D01*
G75*
G02*
X99872500Y-104710000I172500J0D01*
G01*
G37*
G36*
G01*
X88212500Y-102070000D02*
X88607500Y-102070000D01*
G75*
G02*
X88780000Y-102242500I0J-172500D01*
G01*
X88780000Y-102587500D01*
G75*
G02*
X88607500Y-102760000I-172500J0D01*
G01*
X88212500Y-102760000D01*
G75*
G02*
X88040000Y-102587500I0J172500D01*
G01*
X88040000Y-102242500D01*
G75*
G02*
X88212500Y-102070000I172500J0D01*
G01*
G37*
G36*
G01*
X88212500Y-101100000D02*
X88607500Y-101100000D01*
G75*
G02*
X88780000Y-101272500I0J-172500D01*
G01*
X88780000Y-101617500D01*
G75*
G02*
X88607500Y-101790000I-172500J0D01*
G01*
X88212500Y-101790000D01*
G75*
G02*
X88040000Y-101617500I0J172500D01*
G01*
X88040000Y-101272500D01*
G75*
G02*
X88212500Y-101100000I172500J0D01*
G01*
G37*
G36*
G01*
X118650000Y-88997500D02*
X118650000Y-88602500D01*
G75*
G02*
X118822500Y-88430000I172500J0D01*
G01*
X119167500Y-88430000D01*
G75*
G02*
X119340000Y-88602500I0J-172500D01*
G01*
X119340000Y-88997500D01*
G75*
G02*
X119167500Y-89170000I-172500J0D01*
G01*
X118822500Y-89170000D01*
G75*
G02*
X118650000Y-88997500I0J172500D01*
G01*
G37*
G36*
G01*
X117680000Y-88997500D02*
X117680000Y-88602500D01*
G75*
G02*
X117852500Y-88430000I172500J0D01*
G01*
X118197500Y-88430000D01*
G75*
G02*
X118370000Y-88602500I0J-172500D01*
G01*
X118370000Y-88997500D01*
G75*
G02*
X118197500Y-89170000I-172500J0D01*
G01*
X117852500Y-89170000D01*
G75*
G02*
X117680000Y-88997500I0J172500D01*
G01*
G37*
G36*
G01*
X127987500Y-90840000D02*
X127592500Y-90840000D01*
G75*
G02*
X127420000Y-90667500I0J172500D01*
G01*
X127420000Y-90322500D01*
G75*
G02*
X127592500Y-90150000I172500J0D01*
G01*
X127987500Y-90150000D01*
G75*
G02*
X128160000Y-90322500I0J-172500D01*
G01*
X128160000Y-90667500D01*
G75*
G02*
X127987500Y-90840000I-172500J0D01*
G01*
G37*
G36*
G01*
X127987500Y-91810000D02*
X127592500Y-91810000D01*
G75*
G02*
X127420000Y-91637500I0J172500D01*
G01*
X127420000Y-91292500D01*
G75*
G02*
X127592500Y-91120000I172500J0D01*
G01*
X127987500Y-91120000D01*
G75*
G02*
X128160000Y-91292500I0J-172500D01*
G01*
X128160000Y-91637500D01*
G75*
G02*
X127987500Y-91810000I-172500J0D01*
G01*
G37*
G36*
G01*
X117157500Y-90650000D02*
X116762500Y-90650000D01*
G75*
G02*
X116590000Y-90477500I0J172500D01*
G01*
X116590000Y-90132500D01*
G75*
G02*
X116762500Y-89960000I172500J0D01*
G01*
X117157500Y-89960000D01*
G75*
G02*
X117330000Y-90132500I0J-172500D01*
G01*
X117330000Y-90477500D01*
G75*
G02*
X117157500Y-90650000I-172500J0D01*
G01*
G37*
G36*
G01*
X117157500Y-89680000D02*
X116762500Y-89680000D01*
G75*
G02*
X116590000Y-89507500I0J172500D01*
G01*
X116590000Y-89162500D01*
G75*
G02*
X116762500Y-88990000I172500J0D01*
G01*
X117157500Y-88990000D01*
G75*
G02*
X117330000Y-89162500I0J-172500D01*
G01*
X117330000Y-89507500D01*
G75*
G02*
X117157500Y-89680000I-172500J0D01*
G01*
G37*
G36*
G01*
X115907500Y-90765000D02*
X115512500Y-90765000D01*
G75*
G02*
X115340000Y-90592500I0J172500D01*
G01*
X115340000Y-90247500D01*
G75*
G02*
X115512500Y-90075000I172500J0D01*
G01*
X115907500Y-90075000D01*
G75*
G02*
X116080000Y-90247500I0J-172500D01*
G01*
X116080000Y-90592500D01*
G75*
G02*
X115907500Y-90765000I-172500J0D01*
G01*
G37*
G36*
G01*
X115907500Y-91735000D02*
X115512500Y-91735000D01*
G75*
G02*
X115340000Y-91562500I0J172500D01*
G01*
X115340000Y-91217500D01*
G75*
G02*
X115512500Y-91045000I172500J0D01*
G01*
X115907500Y-91045000D01*
G75*
G02*
X116080000Y-91217500I0J-172500D01*
G01*
X116080000Y-91562500D01*
G75*
G02*
X115907500Y-91735000I-172500J0D01*
G01*
G37*
G36*
G01*
X113386220Y-100061200D02*
X113781220Y-100061200D01*
G75*
G02*
X113953720Y-100233700I0J-172500D01*
G01*
X113953720Y-100578700D01*
G75*
G02*
X113781220Y-100751200I-172500J0D01*
G01*
X113386220Y-100751200D01*
G75*
G02*
X113213720Y-100578700I0J172500D01*
G01*
X113213720Y-100233700D01*
G75*
G02*
X113386220Y-100061200I172500J0D01*
G01*
G37*
G36*
G01*
X113386220Y-101031200D02*
X113781220Y-101031200D01*
G75*
G02*
X113953720Y-101203700I0J-172500D01*
G01*
X113953720Y-101548700D01*
G75*
G02*
X113781220Y-101721200I-172500J0D01*
G01*
X113386220Y-101721200D01*
G75*
G02*
X113213720Y-101548700I0J172500D01*
G01*
X113213720Y-101203700D01*
G75*
G02*
X113386220Y-101031200I172500J0D01*
G01*
G37*
G36*
G01*
X112329580Y-100066280D02*
X112724580Y-100066280D01*
G75*
G02*
X112897080Y-100238780I0J-172500D01*
G01*
X112897080Y-100583780D01*
G75*
G02*
X112724580Y-100756280I-172500J0D01*
G01*
X112329580Y-100756280D01*
G75*
G02*
X112157080Y-100583780I0J172500D01*
G01*
X112157080Y-100238780D01*
G75*
G02*
X112329580Y-100066280I172500J0D01*
G01*
G37*
G36*
G01*
X112329580Y-101036280D02*
X112724580Y-101036280D01*
G75*
G02*
X112897080Y-101208780I0J-172500D01*
G01*
X112897080Y-101553780D01*
G75*
G02*
X112724580Y-101726280I-172500J0D01*
G01*
X112329580Y-101726280D01*
G75*
G02*
X112157080Y-101553780I0J172500D01*
G01*
X112157080Y-101208780D01*
G75*
G02*
X112329580Y-101036280I172500J0D01*
G01*
G37*
G36*
G01*
X119609320Y-82732260D02*
X119609320Y-82337260D01*
G75*
G02*
X119781820Y-82164760I172500J0D01*
G01*
X120126820Y-82164760D01*
G75*
G02*
X120299320Y-82337260I0J-172500D01*
G01*
X120299320Y-82732260D01*
G75*
G02*
X120126820Y-82904760I-172500J0D01*
G01*
X119781820Y-82904760D01*
G75*
G02*
X119609320Y-82732260I0J172500D01*
G01*
G37*
G36*
G01*
X120579320Y-82732260D02*
X120579320Y-82337260D01*
G75*
G02*
X120751820Y-82164760I172500J0D01*
G01*
X121096820Y-82164760D01*
G75*
G02*
X121269320Y-82337260I0J-172500D01*
G01*
X121269320Y-82732260D01*
G75*
G02*
X121096820Y-82904760I-172500J0D01*
G01*
X120751820Y-82904760D01*
G75*
G02*
X120579320Y-82732260I0J172500D01*
G01*
G37*
G36*
G01*
X112855000Y-81352500D02*
X112855000Y-81747500D01*
G75*
G02*
X112682500Y-81920000I-172500J0D01*
G01*
X112337500Y-81920000D01*
G75*
G02*
X112165000Y-81747500I0J172500D01*
G01*
X112165000Y-81352500D01*
G75*
G02*
X112337500Y-81180000I172500J0D01*
G01*
X112682500Y-81180000D01*
G75*
G02*
X112855000Y-81352500I0J-172500D01*
G01*
G37*
G36*
G01*
X113825000Y-81352500D02*
X113825000Y-81747500D01*
G75*
G02*
X113652500Y-81920000I-172500J0D01*
G01*
X113307500Y-81920000D01*
G75*
G02*
X113135000Y-81747500I0J172500D01*
G01*
X113135000Y-81352500D01*
G75*
G02*
X113307500Y-81180000I172500J0D01*
G01*
X113652500Y-81180000D01*
G75*
G02*
X113825000Y-81352500I0J-172500D01*
G01*
G37*
G36*
G01*
X104087500Y-100485000D02*
X103692500Y-100485000D01*
G75*
G02*
X103520000Y-100312500I0J172500D01*
G01*
X103520000Y-99967500D01*
G75*
G02*
X103692500Y-99795000I172500J0D01*
G01*
X104087500Y-99795000D01*
G75*
G02*
X104260000Y-99967500I0J-172500D01*
G01*
X104260000Y-100312500D01*
G75*
G02*
X104087500Y-100485000I-172500J0D01*
G01*
G37*
G36*
G01*
X104087500Y-99515000D02*
X103692500Y-99515000D01*
G75*
G02*
X103520000Y-99342500I0J172500D01*
G01*
X103520000Y-98997500D01*
G75*
G02*
X103692500Y-98825000I172500J0D01*
G01*
X104087500Y-98825000D01*
G75*
G02*
X104260000Y-98997500I0J-172500D01*
G01*
X104260000Y-99342500D01*
G75*
G02*
X104087500Y-99515000I-172500J0D01*
G01*
G37*
G36*
G01*
X101300000Y-96497500D02*
X101300000Y-96102500D01*
G75*
G02*
X101472500Y-95930000I172500J0D01*
G01*
X101817500Y-95930000D01*
G75*
G02*
X101990000Y-96102500I0J-172500D01*
G01*
X101990000Y-96497500D01*
G75*
G02*
X101817500Y-96670000I-172500J0D01*
G01*
X101472500Y-96670000D01*
G75*
G02*
X101300000Y-96497500I0J172500D01*
G01*
G37*
G36*
G01*
X100330000Y-96497500D02*
X100330000Y-96102500D01*
G75*
G02*
X100502500Y-95930000I172500J0D01*
G01*
X100847500Y-95930000D01*
G75*
G02*
X101020000Y-96102500I0J-172500D01*
G01*
X101020000Y-96497500D01*
G75*
G02*
X100847500Y-96670000I-172500J0D01*
G01*
X100502500Y-96670000D01*
G75*
G02*
X100330000Y-96497500I0J172500D01*
G01*
G37*
G36*
G01*
X114245000Y-105827500D02*
X114245000Y-105432500D01*
G75*
G02*
X114417500Y-105260000I172500J0D01*
G01*
X114762500Y-105260000D01*
G75*
G02*
X114935000Y-105432500I0J-172500D01*
G01*
X114935000Y-105827500D01*
G75*
G02*
X114762500Y-106000000I-172500J0D01*
G01*
X114417500Y-106000000D01*
G75*
G02*
X114245000Y-105827500I0J172500D01*
G01*
G37*
G36*
G01*
X113275000Y-105827500D02*
X113275000Y-105432500D01*
G75*
G02*
X113447500Y-105260000I172500J0D01*
G01*
X113792500Y-105260000D01*
G75*
G02*
X113965000Y-105432500I0J-172500D01*
G01*
X113965000Y-105827500D01*
G75*
G02*
X113792500Y-106000000I-172500J0D01*
G01*
X113447500Y-106000000D01*
G75*
G02*
X113275000Y-105827500I0J172500D01*
G01*
G37*
G36*
G01*
X112577500Y-68490000D02*
X112182500Y-68490000D01*
G75*
G02*
X112010000Y-68317500I0J172500D01*
G01*
X112010000Y-67972500D01*
G75*
G02*
X112182500Y-67800000I172500J0D01*
G01*
X112577500Y-67800000D01*
G75*
G02*
X112750000Y-67972500I0J-172500D01*
G01*
X112750000Y-68317500D01*
G75*
G02*
X112577500Y-68490000I-172500J0D01*
G01*
G37*
G36*
G01*
X112577500Y-67520000D02*
X112182500Y-67520000D01*
G75*
G02*
X112010000Y-67347500I0J172500D01*
G01*
X112010000Y-67002500D01*
G75*
G02*
X112182500Y-66830000I172500J0D01*
G01*
X112577500Y-66830000D01*
G75*
G02*
X112750000Y-67002500I0J-172500D01*
G01*
X112750000Y-67347500D01*
G75*
G02*
X112577500Y-67520000I-172500J0D01*
G01*
G37*
G36*
G01*
X117612500Y-66085000D02*
X118007500Y-66085000D01*
G75*
G02*
X118180000Y-66257500I0J-172500D01*
G01*
X118180000Y-66602500D01*
G75*
G02*
X118007500Y-66775000I-172500J0D01*
G01*
X117612500Y-66775000D01*
G75*
G02*
X117440000Y-66602500I0J172500D01*
G01*
X117440000Y-66257500D01*
G75*
G02*
X117612500Y-66085000I172500J0D01*
G01*
G37*
G36*
G01*
X117612500Y-67055000D02*
X118007500Y-67055000D01*
G75*
G02*
X118180000Y-67227500I0J-172500D01*
G01*
X118180000Y-67572500D01*
G75*
G02*
X118007500Y-67745000I-172500J0D01*
G01*
X117612500Y-67745000D01*
G75*
G02*
X117440000Y-67572500I0J172500D01*
G01*
X117440000Y-67227500D01*
G75*
G02*
X117612500Y-67055000I172500J0D01*
G01*
G37*
G36*
G01*
X104035000Y-112127500D02*
X104035000Y-111732500D01*
G75*
G02*
X104207500Y-111560000I172500J0D01*
G01*
X104552500Y-111560000D01*
G75*
G02*
X104725000Y-111732500I0J-172500D01*
G01*
X104725000Y-112127500D01*
G75*
G02*
X104552500Y-112300000I-172500J0D01*
G01*
X104207500Y-112300000D01*
G75*
G02*
X104035000Y-112127500I0J172500D01*
G01*
G37*
G36*
G01*
X103065000Y-112127500D02*
X103065000Y-111732500D01*
G75*
G02*
X103237500Y-111560000I172500J0D01*
G01*
X103582500Y-111560000D01*
G75*
G02*
X103755000Y-111732500I0J-172500D01*
G01*
X103755000Y-112127500D01*
G75*
G02*
X103582500Y-112300000I-172500J0D01*
G01*
X103237500Y-112300000D01*
G75*
G02*
X103065000Y-112127500I0J172500D01*
G01*
G37*
G36*
G01*
X145576940Y-104807440D02*
X145181940Y-104807440D01*
G75*
G02*
X145009440Y-104634940I0J172500D01*
G01*
X145009440Y-104289940D01*
G75*
G02*
X145181940Y-104117440I172500J0D01*
G01*
X145576940Y-104117440D01*
G75*
G02*
X145749440Y-104289940I0J-172500D01*
G01*
X145749440Y-104634940D01*
G75*
G02*
X145576940Y-104807440I-172500J0D01*
G01*
G37*
G36*
G01*
X145576940Y-103837440D02*
X145181940Y-103837440D01*
G75*
G02*
X145009440Y-103664940I0J172500D01*
G01*
X145009440Y-103319940D01*
G75*
G02*
X145181940Y-103147440I172500J0D01*
G01*
X145576940Y-103147440D01*
G75*
G02*
X145749440Y-103319940I0J-172500D01*
G01*
X145749440Y-103664940D01*
G75*
G02*
X145576940Y-103837440I-172500J0D01*
G01*
G37*
G36*
G01*
X88760000Y-103302500D02*
X88760000Y-103697500D01*
G75*
G02*
X88587500Y-103870000I-172500J0D01*
G01*
X88242500Y-103870000D01*
G75*
G02*
X88070000Y-103697500I0J172500D01*
G01*
X88070000Y-103302500D01*
G75*
G02*
X88242500Y-103130000I172500J0D01*
G01*
X88587500Y-103130000D01*
G75*
G02*
X88760000Y-103302500I0J-172500D01*
G01*
G37*
G36*
G01*
X87790000Y-103302500D02*
X87790000Y-103697500D01*
G75*
G02*
X87617500Y-103870000I-172500J0D01*
G01*
X87272500Y-103870000D01*
G75*
G02*
X87100000Y-103697500I0J172500D01*
G01*
X87100000Y-103302500D01*
G75*
G02*
X87272500Y-103130000I172500J0D01*
G01*
X87617500Y-103130000D01*
G75*
G02*
X87790000Y-103302500I0J-172500D01*
G01*
G37*
G36*
G01*
X109092500Y-93760000D02*
X109487500Y-93760000D01*
G75*
G02*
X109660000Y-93932500I0J-172500D01*
G01*
X109660000Y-94277500D01*
G75*
G02*
X109487500Y-94450000I-172500J0D01*
G01*
X109092500Y-94450000D01*
G75*
G02*
X108920000Y-94277500I0J172500D01*
G01*
X108920000Y-93932500D01*
G75*
G02*
X109092500Y-93760000I172500J0D01*
G01*
G37*
G36*
G01*
X109092500Y-94730000D02*
X109487500Y-94730000D01*
G75*
G02*
X109660000Y-94902500I0J-172500D01*
G01*
X109660000Y-95247500D01*
G75*
G02*
X109487500Y-95420000I-172500J0D01*
G01*
X109092500Y-95420000D01*
G75*
G02*
X108920000Y-95247500I0J172500D01*
G01*
X108920000Y-94902500D01*
G75*
G02*
X109092500Y-94730000I172500J0D01*
G01*
G37*
G36*
G01*
X109477500Y-97190000D02*
X109082500Y-97190000D01*
G75*
G02*
X108910000Y-97017500I0J172500D01*
G01*
X108910000Y-96672500D01*
G75*
G02*
X109082500Y-96500000I172500J0D01*
G01*
X109477500Y-96500000D01*
G75*
G02*
X109650000Y-96672500I0J-172500D01*
G01*
X109650000Y-97017500D01*
G75*
G02*
X109477500Y-97190000I-172500J0D01*
G01*
G37*
G36*
G01*
X109477500Y-98160000D02*
X109082500Y-98160000D01*
G75*
G02*
X108910000Y-97987500I0J172500D01*
G01*
X108910000Y-97642500D01*
G75*
G02*
X109082500Y-97470000I172500J0D01*
G01*
X109477500Y-97470000D01*
G75*
G02*
X109650000Y-97642500I0J-172500D01*
G01*
X109650000Y-97987500D01*
G75*
G02*
X109477500Y-98160000I-172500J0D01*
G01*
G37*
G36*
G01*
X97607500Y-74300000D02*
X97212500Y-74300000D01*
G75*
G02*
X97040000Y-74127500I0J172500D01*
G01*
X97040000Y-73782500D01*
G75*
G02*
X97212500Y-73610000I172500J0D01*
G01*
X97607500Y-73610000D01*
G75*
G02*
X97780000Y-73782500I0J-172500D01*
G01*
X97780000Y-74127500D01*
G75*
G02*
X97607500Y-74300000I-172500J0D01*
G01*
G37*
G36*
G01*
X97607500Y-75270000D02*
X97212500Y-75270000D01*
G75*
G02*
X97040000Y-75097500I0J172500D01*
G01*
X97040000Y-74752500D01*
G75*
G02*
X97212500Y-74580000I172500J0D01*
G01*
X97607500Y-74580000D01*
G75*
G02*
X97780000Y-74752500I0J-172500D01*
G01*
X97780000Y-75097500D01*
G75*
G02*
X97607500Y-75270000I-172500J0D01*
G01*
G37*
G36*
G01*
X100636900Y-71468600D02*
X100636900Y-71863600D01*
G75*
G02*
X100464400Y-72036100I-172500J0D01*
G01*
X100119400Y-72036100D01*
G75*
G02*
X99946900Y-71863600I0J172500D01*
G01*
X99946900Y-71468600D01*
G75*
G02*
X100119400Y-71296100I172500J0D01*
G01*
X100464400Y-71296100D01*
G75*
G02*
X100636900Y-71468600I0J-172500D01*
G01*
G37*
G36*
G01*
X99666900Y-71468600D02*
X99666900Y-71863600D01*
G75*
G02*
X99494400Y-72036100I-172500J0D01*
G01*
X99149400Y-72036100D01*
G75*
G02*
X98976900Y-71863600I0J172500D01*
G01*
X98976900Y-71468600D01*
G75*
G02*
X99149400Y-71296100I172500J0D01*
G01*
X99494400Y-71296100D01*
G75*
G02*
X99666900Y-71468600I0J-172500D01*
G01*
G37*
G36*
G01*
X104732500Y-75250000D02*
X105127500Y-75250000D01*
G75*
G02*
X105300000Y-75422500I0J-172500D01*
G01*
X105300000Y-75767500D01*
G75*
G02*
X105127500Y-75940000I-172500J0D01*
G01*
X104732500Y-75940000D01*
G75*
G02*
X104560000Y-75767500I0J172500D01*
G01*
X104560000Y-75422500D01*
G75*
G02*
X104732500Y-75250000I172500J0D01*
G01*
G37*
G36*
G01*
X104732500Y-76220000D02*
X105127500Y-76220000D01*
G75*
G02*
X105300000Y-76392500I0J-172500D01*
G01*
X105300000Y-76737500D01*
G75*
G02*
X105127500Y-76910000I-172500J0D01*
G01*
X104732500Y-76910000D01*
G75*
G02*
X104560000Y-76737500I0J172500D01*
G01*
X104560000Y-76392500D01*
G75*
G02*
X104732500Y-76220000I172500J0D01*
G01*
G37*
G36*
G01*
X98707500Y-75260000D02*
X98312500Y-75260000D01*
G75*
G02*
X98140000Y-75087500I0J172500D01*
G01*
X98140000Y-74742500D01*
G75*
G02*
X98312500Y-74570000I172500J0D01*
G01*
X98707500Y-74570000D01*
G75*
G02*
X98880000Y-74742500I0J-172500D01*
G01*
X98880000Y-75087500D01*
G75*
G02*
X98707500Y-75260000I-172500J0D01*
G01*
G37*
G36*
G01*
X98707500Y-74290000D02*
X98312500Y-74290000D01*
G75*
G02*
X98140000Y-74117500I0J172500D01*
G01*
X98140000Y-73772500D01*
G75*
G02*
X98312500Y-73600000I172500J0D01*
G01*
X98707500Y-73600000D01*
G75*
G02*
X98880000Y-73772500I0J-172500D01*
G01*
X98880000Y-74117500D01*
G75*
G02*
X98707500Y-74290000I-172500J0D01*
G01*
G37*
G36*
G01*
X111570000Y-90402500D02*
X111570000Y-90797500D01*
G75*
G02*
X111397500Y-90970000I-172500J0D01*
G01*
X111052500Y-90970000D01*
G75*
G02*
X110880000Y-90797500I0J172500D01*
G01*
X110880000Y-90402500D01*
G75*
G02*
X111052500Y-90230000I172500J0D01*
G01*
X111397500Y-90230000D01*
G75*
G02*
X111570000Y-90402500I0J-172500D01*
G01*
G37*
G36*
G01*
X110600000Y-90402500D02*
X110600000Y-90797500D01*
G75*
G02*
X110427500Y-90970000I-172500J0D01*
G01*
X110082500Y-90970000D01*
G75*
G02*
X109910000Y-90797500I0J172500D01*
G01*
X109910000Y-90402500D01*
G75*
G02*
X110082500Y-90230000I172500J0D01*
G01*
X110427500Y-90230000D01*
G75*
G02*
X110600000Y-90402500I0J-172500D01*
G01*
G37*
G36*
G01*
X110590000Y-91792500D02*
X110590000Y-92187500D01*
G75*
G02*
X110417500Y-92360000I-172500J0D01*
G01*
X110072500Y-92360000D01*
G75*
G02*
X109900000Y-92187500I0J172500D01*
G01*
X109900000Y-91792500D01*
G75*
G02*
X110072500Y-91620000I172500J0D01*
G01*
X110417500Y-91620000D01*
G75*
G02*
X110590000Y-91792500I0J-172500D01*
G01*
G37*
G36*
G01*
X111560000Y-91792500D02*
X111560000Y-92187500D01*
G75*
G02*
X111387500Y-92360000I-172500J0D01*
G01*
X111042500Y-92360000D01*
G75*
G02*
X110870000Y-92187500I0J172500D01*
G01*
X110870000Y-91792500D01*
G75*
G02*
X111042500Y-91620000I172500J0D01*
G01*
X111387500Y-91620000D01*
G75*
G02*
X111560000Y-91792500I0J-172500D01*
G01*
G37*
G36*
G01*
X96803900Y-92347400D02*
X96803900Y-92742400D01*
G75*
G02*
X96631400Y-92914900I-172500J0D01*
G01*
X96286400Y-92914900D01*
G75*
G02*
X96113900Y-92742400I0J172500D01*
G01*
X96113900Y-92347400D01*
G75*
G02*
X96286400Y-92174900I172500J0D01*
G01*
X96631400Y-92174900D01*
G75*
G02*
X96803900Y-92347400I0J-172500D01*
G01*
G37*
G36*
G01*
X95833900Y-92347400D02*
X95833900Y-92742400D01*
G75*
G02*
X95661400Y-92914900I-172500J0D01*
G01*
X95316400Y-92914900D01*
G75*
G02*
X95143900Y-92742400I0J172500D01*
G01*
X95143900Y-92347400D01*
G75*
G02*
X95316400Y-92174900I172500J0D01*
G01*
X95661400Y-92174900D01*
G75*
G02*
X95833900Y-92347400I0J-172500D01*
G01*
G37*
G36*
G01*
X98845000Y-75802500D02*
X98845000Y-76197500D01*
G75*
G02*
X98672500Y-76370000I-172500J0D01*
G01*
X98327500Y-76370000D01*
G75*
G02*
X98155000Y-76197500I0J172500D01*
G01*
X98155000Y-75802500D01*
G75*
G02*
X98327500Y-75630000I172500J0D01*
G01*
X98672500Y-75630000D01*
G75*
G02*
X98845000Y-75802500I0J-172500D01*
G01*
G37*
G36*
G01*
X97875000Y-75802500D02*
X97875000Y-76197500D01*
G75*
G02*
X97702500Y-76370000I-172500J0D01*
G01*
X97357500Y-76370000D01*
G75*
G02*
X97185000Y-76197500I0J172500D01*
G01*
X97185000Y-75802500D01*
G75*
G02*
X97357500Y-75630000I172500J0D01*
G01*
X97702500Y-75630000D01*
G75*
G02*
X97875000Y-75802500I0J-172500D01*
G01*
G37*
G36*
G01*
X107140000Y-70657500D02*
X107140000Y-70262500D01*
G75*
G02*
X107312500Y-70090000I172500J0D01*
G01*
X107657500Y-70090000D01*
G75*
G02*
X107830000Y-70262500I0J-172500D01*
G01*
X107830000Y-70657500D01*
G75*
G02*
X107657500Y-70830000I-172500J0D01*
G01*
X107312500Y-70830000D01*
G75*
G02*
X107140000Y-70657500I0J172500D01*
G01*
G37*
G36*
G01*
X106170000Y-70657500D02*
X106170000Y-70262500D01*
G75*
G02*
X106342500Y-70090000I172500J0D01*
G01*
X106687500Y-70090000D01*
G75*
G02*
X106860000Y-70262500I0J-172500D01*
G01*
X106860000Y-70657500D01*
G75*
G02*
X106687500Y-70830000I-172500J0D01*
G01*
X106342500Y-70830000D01*
G75*
G02*
X106170000Y-70657500I0J172500D01*
G01*
G37*
G36*
G01*
X108600000Y-75712500D02*
X108600000Y-76107500D01*
G75*
G02*
X108427500Y-76280000I-172500J0D01*
G01*
X108082500Y-76280000D01*
G75*
G02*
X107910000Y-76107500I0J172500D01*
G01*
X107910000Y-75712500D01*
G75*
G02*
X108082500Y-75540000I172500J0D01*
G01*
X108427500Y-75540000D01*
G75*
G02*
X108600000Y-75712500I0J-172500D01*
G01*
G37*
G36*
G01*
X107630000Y-75712500D02*
X107630000Y-76107500D01*
G75*
G02*
X107457500Y-76280000I-172500J0D01*
G01*
X107112500Y-76280000D01*
G75*
G02*
X106940000Y-76107500I0J172500D01*
G01*
X106940000Y-75712500D01*
G75*
G02*
X107112500Y-75540000I172500J0D01*
G01*
X107457500Y-75540000D01*
G75*
G02*
X107630000Y-75712500I0J-172500D01*
G01*
G37*
G36*
G01*
X99170000Y-68617500D02*
X99170000Y-68222500D01*
G75*
G02*
X99342500Y-68050000I172500J0D01*
G01*
X99687500Y-68050000D01*
G75*
G02*
X99860000Y-68222500I0J-172500D01*
G01*
X99860000Y-68617500D01*
G75*
G02*
X99687500Y-68790000I-172500J0D01*
G01*
X99342500Y-68790000D01*
G75*
G02*
X99170000Y-68617500I0J172500D01*
G01*
G37*
G36*
G01*
X100140000Y-68617500D02*
X100140000Y-68222500D01*
G75*
G02*
X100312500Y-68050000I172500J0D01*
G01*
X100657500Y-68050000D01*
G75*
G02*
X100830000Y-68222500I0J-172500D01*
G01*
X100830000Y-68617500D01*
G75*
G02*
X100657500Y-68790000I-172500J0D01*
G01*
X100312500Y-68790000D01*
G75*
G02*
X100140000Y-68617500I0J172500D01*
G01*
G37*
G36*
G01*
X99727500Y-69795000D02*
X99332500Y-69795000D01*
G75*
G02*
X99160000Y-69622500I0J172500D01*
G01*
X99160000Y-69277500D01*
G75*
G02*
X99332500Y-69105000I172500J0D01*
G01*
X99727500Y-69105000D01*
G75*
G02*
X99900000Y-69277500I0J-172500D01*
G01*
X99900000Y-69622500D01*
G75*
G02*
X99727500Y-69795000I-172500J0D01*
G01*
G37*
G36*
G01*
X99727500Y-70765000D02*
X99332500Y-70765000D01*
G75*
G02*
X99160000Y-70592500I0J172500D01*
G01*
X99160000Y-70247500D01*
G75*
G02*
X99332500Y-70075000I172500J0D01*
G01*
X99727500Y-70075000D01*
G75*
G02*
X99900000Y-70247500I0J-172500D01*
G01*
X99900000Y-70592500D01*
G75*
G02*
X99727500Y-70765000I-172500J0D01*
G01*
G37*
G36*
G01*
X85996880Y-77551100D02*
X85996880Y-77156100D01*
G75*
G02*
X86169380Y-76983600I172500J0D01*
G01*
X86514380Y-76983600D01*
G75*
G02*
X86686880Y-77156100I0J-172500D01*
G01*
X86686880Y-77551100D01*
G75*
G02*
X86514380Y-77723600I-172500J0D01*
G01*
X86169380Y-77723600D01*
G75*
G02*
X85996880Y-77551100I0J172500D01*
G01*
G37*
G36*
G01*
X85026880Y-77551100D02*
X85026880Y-77156100D01*
G75*
G02*
X85199380Y-76983600I172500J0D01*
G01*
X85544380Y-76983600D01*
G75*
G02*
X85716880Y-77156100I0J-172500D01*
G01*
X85716880Y-77551100D01*
G75*
G02*
X85544380Y-77723600I-172500J0D01*
G01*
X85199380Y-77723600D01*
G75*
G02*
X85026880Y-77551100I0J172500D01*
G01*
G37*
G36*
G01*
X88691880Y-77156100D02*
X88691880Y-77551100D01*
G75*
G02*
X88519380Y-77723600I-172500J0D01*
G01*
X88174380Y-77723600D01*
G75*
G02*
X88001880Y-77551100I0J172500D01*
G01*
X88001880Y-77156100D01*
G75*
G02*
X88174380Y-76983600I172500J0D01*
G01*
X88519380Y-76983600D01*
G75*
G02*
X88691880Y-77156100I0J-172500D01*
G01*
G37*
G36*
G01*
X87721880Y-77156100D02*
X87721880Y-77551100D01*
G75*
G02*
X87549380Y-77723600I-172500J0D01*
G01*
X87204380Y-77723600D01*
G75*
G02*
X87031880Y-77551100I0J172500D01*
G01*
X87031880Y-77156100D01*
G75*
G02*
X87204380Y-76983600I172500J0D01*
G01*
X87549380Y-76983600D01*
G75*
G02*
X87721880Y-77156100I0J-172500D01*
G01*
G37*
G36*
G01*
X104980000Y-67122500D02*
X104980000Y-67517500D01*
G75*
G02*
X104807500Y-67690000I-172500J0D01*
G01*
X104462500Y-67690000D01*
G75*
G02*
X104290000Y-67517500I0J172500D01*
G01*
X104290000Y-67122500D01*
G75*
G02*
X104462500Y-66950000I172500J0D01*
G01*
X104807500Y-66950000D01*
G75*
G02*
X104980000Y-67122500I0J-172500D01*
G01*
G37*
G36*
G01*
X104010000Y-67122500D02*
X104010000Y-67517500D01*
G75*
G02*
X103837500Y-67690000I-172500J0D01*
G01*
X103492500Y-67690000D01*
G75*
G02*
X103320000Y-67517500I0J172500D01*
G01*
X103320000Y-67122500D01*
G75*
G02*
X103492500Y-66950000I172500J0D01*
G01*
X103837500Y-66950000D01*
G75*
G02*
X104010000Y-67122500I0J-172500D01*
G01*
G37*
G36*
G01*
X104960000Y-68212500D02*
X104960000Y-68607500D01*
G75*
G02*
X104787500Y-68780000I-172500J0D01*
G01*
X104442500Y-68780000D01*
G75*
G02*
X104270000Y-68607500I0J172500D01*
G01*
X104270000Y-68212500D01*
G75*
G02*
X104442500Y-68040000I172500J0D01*
G01*
X104787500Y-68040000D01*
G75*
G02*
X104960000Y-68212500I0J-172500D01*
G01*
G37*
G36*
G01*
X103990000Y-68212500D02*
X103990000Y-68607500D01*
G75*
G02*
X103817500Y-68780000I-172500J0D01*
G01*
X103472500Y-68780000D01*
G75*
G02*
X103300000Y-68607500I0J172500D01*
G01*
X103300000Y-68212500D01*
G75*
G02*
X103472500Y-68040000I172500J0D01*
G01*
X103817500Y-68040000D01*
G75*
G02*
X103990000Y-68212500I0J-172500D01*
G01*
G37*
G36*
G01*
X92037500Y-95450000D02*
X91642500Y-95450000D01*
G75*
G02*
X91470000Y-95277500I0J172500D01*
G01*
X91470000Y-94932500D01*
G75*
G02*
X91642500Y-94760000I172500J0D01*
G01*
X92037500Y-94760000D01*
G75*
G02*
X92210000Y-94932500I0J-172500D01*
G01*
X92210000Y-95277500D01*
G75*
G02*
X92037500Y-95450000I-172500J0D01*
G01*
G37*
G36*
G01*
X92037500Y-96420000D02*
X91642500Y-96420000D01*
G75*
G02*
X91470000Y-96247500I0J172500D01*
G01*
X91470000Y-95902500D01*
G75*
G02*
X91642500Y-95730000I172500J0D01*
G01*
X92037500Y-95730000D01*
G75*
G02*
X92210000Y-95902500I0J-172500D01*
G01*
X92210000Y-96247500D01*
G75*
G02*
X92037500Y-96420000I-172500J0D01*
G01*
G37*
G36*
G01*
X154145800Y-79858380D02*
X154145800Y-79463380D01*
G75*
G02*
X154318300Y-79290880I172500J0D01*
G01*
X154663300Y-79290880D01*
G75*
G02*
X154835800Y-79463380I0J-172500D01*
G01*
X154835800Y-79858380D01*
G75*
G02*
X154663300Y-80030880I-172500J0D01*
G01*
X154318300Y-80030880D01*
G75*
G02*
X154145800Y-79858380I0J172500D01*
G01*
G37*
G36*
G01*
X155115800Y-79858380D02*
X155115800Y-79463380D01*
G75*
G02*
X155288300Y-79290880I172500J0D01*
G01*
X155633300Y-79290880D01*
G75*
G02*
X155805800Y-79463380I0J-172500D01*
G01*
X155805800Y-79858380D01*
G75*
G02*
X155633300Y-80030880I-172500J0D01*
G01*
X155288300Y-80030880D01*
G75*
G02*
X155115800Y-79858380I0J172500D01*
G01*
G37*
G36*
G01*
X157258540Y-81349040D02*
X156863540Y-81349040D01*
G75*
G02*
X156691040Y-81176540I0J172500D01*
G01*
X156691040Y-80831540D01*
G75*
G02*
X156863540Y-80659040I172500J0D01*
G01*
X157258540Y-80659040D01*
G75*
G02*
X157431040Y-80831540I0J-172500D01*
G01*
X157431040Y-81176540D01*
G75*
G02*
X157258540Y-81349040I-172500J0D01*
G01*
G37*
G36*
G01*
X157258540Y-82319040D02*
X156863540Y-82319040D01*
G75*
G02*
X156691040Y-82146540I0J172500D01*
G01*
X156691040Y-81801540D01*
G75*
G02*
X156863540Y-81629040I172500J0D01*
G01*
X157258540Y-81629040D01*
G75*
G02*
X157431040Y-81801540I0J-172500D01*
G01*
X157431040Y-82146540D01*
G75*
G02*
X157258540Y-82319040I-172500J0D01*
G01*
G37*
G36*
G01*
X150183300Y-81525880D02*
X149788300Y-81525880D01*
G75*
G02*
X149615800Y-81353380I0J172500D01*
G01*
X149615800Y-81008380D01*
G75*
G02*
X149788300Y-80835880I172500J0D01*
G01*
X150183300Y-80835880D01*
G75*
G02*
X150355800Y-81008380I0J-172500D01*
G01*
X150355800Y-81353380D01*
G75*
G02*
X150183300Y-81525880I-172500J0D01*
G01*
G37*
G36*
G01*
X150183300Y-82495880D02*
X149788300Y-82495880D01*
G75*
G02*
X149615800Y-82323380I0J172500D01*
G01*
X149615800Y-81978380D01*
G75*
G02*
X149788300Y-81805880I172500J0D01*
G01*
X150183300Y-81805880D01*
G75*
G02*
X150355800Y-81978380I0J-172500D01*
G01*
X150355800Y-82323380D01*
G75*
G02*
X150183300Y-82495880I-172500J0D01*
G01*
G37*
G36*
G01*
X153135000Y-102935000D02*
X151825000Y-102935000D01*
G75*
G02*
X151555000Y-102665000I0J270000D01*
G01*
X151555000Y-101855000D01*
G75*
G02*
X151825000Y-101585000I270000J0D01*
G01*
X153135000Y-101585000D01*
G75*
G02*
X153405000Y-101855000I0J-270000D01*
G01*
X153405000Y-102665000D01*
G75*
G02*
X153135000Y-102935000I-270000J0D01*
G01*
G37*
G36*
G01*
X153135000Y-100135000D02*
X151825000Y-100135000D01*
G75*
G02*
X151555000Y-99865000I0J270000D01*
G01*
X151555000Y-99055000D01*
G75*
G02*
X151825000Y-98785000I270000J0D01*
G01*
X153135000Y-98785000D01*
G75*
G02*
X153405000Y-99055000I0J-270000D01*
G01*
X153405000Y-99865000D01*
G75*
G02*
X153135000Y-100135000I-270000J0D01*
G01*
G37*
G36*
G01*
X153131200Y-97304680D02*
X151821200Y-97304680D01*
G75*
G02*
X151551200Y-97034680I0J270000D01*
G01*
X151551200Y-96224680D01*
G75*
G02*
X151821200Y-95954680I270000J0D01*
G01*
X153131200Y-95954680D01*
G75*
G02*
X153401200Y-96224680I0J-270000D01*
G01*
X153401200Y-97034680D01*
G75*
G02*
X153131200Y-97304680I-270000J0D01*
G01*
G37*
G36*
G01*
X153131200Y-94504680D02*
X151821200Y-94504680D01*
G75*
G02*
X151551200Y-94234680I0J270000D01*
G01*
X151551200Y-93424680D01*
G75*
G02*
X151821200Y-93154680I270000J0D01*
G01*
X153131200Y-93154680D01*
G75*
G02*
X153401200Y-93424680I0J-270000D01*
G01*
X153401200Y-94234680D01*
G75*
G02*
X153131200Y-94504680I-270000J0D01*
G01*
G37*
G36*
G01*
X154941440Y-88666640D02*
X154941440Y-89976640D01*
G75*
G02*
X154671440Y-90246640I-270000J0D01*
G01*
X153861440Y-90246640D01*
G75*
G02*
X153591440Y-89976640I0J270000D01*
G01*
X153591440Y-88666640D01*
G75*
G02*
X153861440Y-88396640I270000J0D01*
G01*
X154671440Y-88396640D01*
G75*
G02*
X154941440Y-88666640I0J-270000D01*
G01*
G37*
G36*
G01*
X157741440Y-88666640D02*
X157741440Y-89976640D01*
G75*
G02*
X157471440Y-90246640I-270000J0D01*
G01*
X156661440Y-90246640D01*
G75*
G02*
X156391440Y-89976640I0J270000D01*
G01*
X156391440Y-88666640D01*
G75*
G02*
X156661440Y-88396640I270000J0D01*
G01*
X157471440Y-88396640D01*
G75*
G02*
X157741440Y-88666640I0J-270000D01*
G01*
G37*
G36*
G01*
X161049800Y-89961400D02*
X161049800Y-88651400D01*
G75*
G02*
X161319800Y-88381400I270000J0D01*
G01*
X162129800Y-88381400D01*
G75*
G02*
X162399800Y-88651400I0J-270000D01*
G01*
X162399800Y-89961400D01*
G75*
G02*
X162129800Y-90231400I-270000J0D01*
G01*
X161319800Y-90231400D01*
G75*
G02*
X161049800Y-89961400I0J270000D01*
G01*
G37*
G36*
G01*
X158249800Y-89961400D02*
X158249800Y-88651400D01*
G75*
G02*
X158519800Y-88381400I270000J0D01*
G01*
X159329800Y-88381400D01*
G75*
G02*
X159599800Y-88651400I0J-270000D01*
G01*
X159599800Y-89961400D01*
G75*
G02*
X159329800Y-90231400I-270000J0D01*
G01*
X158519800Y-90231400D01*
G75*
G02*
X158249800Y-89961400I0J270000D01*
G01*
G37*
G36*
G01*
X132803210Y-108142760D02*
X132240710Y-108142760D01*
G75*
G02*
X131996960Y-107899010I0J243750D01*
G01*
X131996960Y-107411510D01*
G75*
G02*
X132240710Y-107167760I243750J0D01*
G01*
X132803210Y-107167760D01*
G75*
G02*
X133046960Y-107411510I0J-243750D01*
G01*
X133046960Y-107899010D01*
G75*
G02*
X132803210Y-108142760I-243750J0D01*
G01*
G37*
G36*
G01*
X132803210Y-109717760D02*
X132240710Y-109717760D01*
G75*
G02*
X131996960Y-109474010I0J243750D01*
G01*
X131996960Y-108986510D01*
G75*
G02*
X132240710Y-108742760I243750J0D01*
G01*
X132803210Y-108742760D01*
G75*
G02*
X133046960Y-108986510I0J-243750D01*
G01*
X133046960Y-109474010D01*
G75*
G02*
X132803210Y-109717760I-243750J0D01*
G01*
G37*
G36*
G01*
X134418650Y-109717760D02*
X133856150Y-109717760D01*
G75*
G02*
X133612400Y-109474010I0J243750D01*
G01*
X133612400Y-108986510D01*
G75*
G02*
X133856150Y-108742760I243750J0D01*
G01*
X134418650Y-108742760D01*
G75*
G02*
X134662400Y-108986510I0J-243750D01*
G01*
X134662400Y-109474010D01*
G75*
G02*
X134418650Y-109717760I-243750J0D01*
G01*
G37*
G36*
G01*
X134418650Y-108142760D02*
X133856150Y-108142760D01*
G75*
G02*
X133612400Y-107899010I0J243750D01*
G01*
X133612400Y-107411510D01*
G75*
G02*
X133856150Y-107167760I243750J0D01*
G01*
X134418650Y-107167760D01*
G75*
G02*
X134662400Y-107411510I0J-243750D01*
G01*
X134662400Y-107899010D01*
G75*
G02*
X134418650Y-108142760I-243750J0D01*
G01*
G37*
G36*
G01*
X136039170Y-108142860D02*
X135476670Y-108142860D01*
G75*
G02*
X135232920Y-107899110I0J243750D01*
G01*
X135232920Y-107411610D01*
G75*
G02*
X135476670Y-107167860I243750J0D01*
G01*
X136039170Y-107167860D01*
G75*
G02*
X136282920Y-107411610I0J-243750D01*
G01*
X136282920Y-107899110D01*
G75*
G02*
X136039170Y-108142860I-243750J0D01*
G01*
G37*
G36*
G01*
X136039170Y-109717860D02*
X135476670Y-109717860D01*
G75*
G02*
X135232920Y-109474110I0J243750D01*
G01*
X135232920Y-108986610D01*
G75*
G02*
X135476670Y-108742860I243750J0D01*
G01*
X136039170Y-108742860D01*
G75*
G02*
X136282920Y-108986610I0J-243750D01*
G01*
X136282920Y-109474110D01*
G75*
G02*
X136039170Y-109717860I-243750J0D01*
G01*
G37*
G36*
G01*
X139249730Y-109717860D02*
X138687230Y-109717860D01*
G75*
G02*
X138443480Y-109474110I0J243750D01*
G01*
X138443480Y-108986610D01*
G75*
G02*
X138687230Y-108742860I243750J0D01*
G01*
X139249730Y-108742860D01*
G75*
G02*
X139493480Y-108986610I0J-243750D01*
G01*
X139493480Y-109474110D01*
G75*
G02*
X139249730Y-109717860I-243750J0D01*
G01*
G37*
G36*
G01*
X139249730Y-108142860D02*
X138687230Y-108142860D01*
G75*
G02*
X138443480Y-107899110I0J243750D01*
G01*
X138443480Y-107411610D01*
G75*
G02*
X138687230Y-107167860I243750J0D01*
G01*
X139249730Y-107167860D01*
G75*
G02*
X139493480Y-107411610I0J-243750D01*
G01*
X139493480Y-107899110D01*
G75*
G02*
X139249730Y-108142860I-243750J0D01*
G01*
G37*
G36*
G01*
X140860090Y-108142860D02*
X140297590Y-108142860D01*
G75*
G02*
X140053840Y-107899110I0J243750D01*
G01*
X140053840Y-107411610D01*
G75*
G02*
X140297590Y-107167860I243750J0D01*
G01*
X140860090Y-107167860D01*
G75*
G02*
X141103840Y-107411610I0J-243750D01*
G01*
X141103840Y-107899110D01*
G75*
G02*
X140860090Y-108142860I-243750J0D01*
G01*
G37*
G36*
G01*
X140860090Y-109717860D02*
X140297590Y-109717860D01*
G75*
G02*
X140053840Y-109474110I0J243750D01*
G01*
X140053840Y-108986610D01*
G75*
G02*
X140297590Y-108742860I243750J0D01*
G01*
X140860090Y-108742860D01*
G75*
G02*
X141103840Y-108986610I0J-243750D01*
G01*
X141103840Y-109474110D01*
G75*
G02*
X140860090Y-109717860I-243750J0D01*
G01*
G37*
G36*
G01*
X137644450Y-108137680D02*
X137081950Y-108137680D01*
G75*
G02*
X136838200Y-107893930I0J243750D01*
G01*
X136838200Y-107406430D01*
G75*
G02*
X137081950Y-107162680I243750J0D01*
G01*
X137644450Y-107162680D01*
G75*
G02*
X137888200Y-107406430I0J-243750D01*
G01*
X137888200Y-107893930D01*
G75*
G02*
X137644450Y-108137680I-243750J0D01*
G01*
G37*
G36*
G01*
X137644450Y-109712680D02*
X137081950Y-109712680D01*
G75*
G02*
X136838200Y-109468930I0J243750D01*
G01*
X136838200Y-108981430D01*
G75*
G02*
X137081950Y-108737680I243750J0D01*
G01*
X137644450Y-108737680D01*
G75*
G02*
X137888200Y-108981430I0J-243750D01*
G01*
X137888200Y-109468930D01*
G75*
G02*
X137644450Y-109712680I-243750J0D01*
G01*
G37*
G36*
G01*
X123103130Y-70343020D02*
X122540630Y-70343020D01*
G75*
G02*
X122296880Y-70099270I0J243750D01*
G01*
X122296880Y-69611770D01*
G75*
G02*
X122540630Y-69368020I243750J0D01*
G01*
X123103130Y-69368020D01*
G75*
G02*
X123346880Y-69611770I0J-243750D01*
G01*
X123346880Y-70099270D01*
G75*
G02*
X123103130Y-70343020I-243750J0D01*
G01*
G37*
G36*
G01*
X123103130Y-71918020D02*
X122540630Y-71918020D01*
G75*
G02*
X122296880Y-71674270I0J243750D01*
G01*
X122296880Y-71186770D01*
G75*
G02*
X122540630Y-70943020I243750J0D01*
G01*
X123103130Y-70943020D01*
G75*
G02*
X123346880Y-71186770I0J-243750D01*
G01*
X123346880Y-71674270D01*
G75*
G02*
X123103130Y-71918020I-243750J0D01*
G01*
G37*
G36*
G01*
X121415530Y-71923220D02*
X120853030Y-71923220D01*
G75*
G02*
X120609280Y-71679470I0J243750D01*
G01*
X120609280Y-71191970D01*
G75*
G02*
X120853030Y-70948220I243750J0D01*
G01*
X121415530Y-70948220D01*
G75*
G02*
X121659280Y-71191970I0J-243750D01*
G01*
X121659280Y-71679470D01*
G75*
G02*
X121415530Y-71923220I-243750J0D01*
G01*
G37*
G36*
G01*
X121415530Y-70348220D02*
X120853030Y-70348220D01*
G75*
G02*
X120609280Y-70104470I0J243750D01*
G01*
X120609280Y-69616970D01*
G75*
G02*
X120853030Y-69373220I243750J0D01*
G01*
X121415530Y-69373220D01*
G75*
G02*
X121659280Y-69616970I0J-243750D01*
G01*
X121659280Y-70104470D01*
G75*
G02*
X121415530Y-70348220I-243750J0D01*
G01*
G37*
G36*
G01*
X81718750Y-110322500D02*
X82281250Y-110322500D01*
G75*
G02*
X82525000Y-110566250I0J-243750D01*
G01*
X82525000Y-111053750D01*
G75*
G02*
X82281250Y-111297500I-243750J0D01*
G01*
X81718750Y-111297500D01*
G75*
G02*
X81475000Y-111053750I0J243750D01*
G01*
X81475000Y-110566250D01*
G75*
G02*
X81718750Y-110322500I243750J0D01*
G01*
G37*
G36*
G01*
X81718750Y-108747500D02*
X82281250Y-108747500D01*
G75*
G02*
X82525000Y-108991250I0J-243750D01*
G01*
X82525000Y-109478750D01*
G75*
G02*
X82281250Y-109722500I-243750J0D01*
G01*
X81718750Y-109722500D01*
G75*
G02*
X81475000Y-109478750I0J243750D01*
G01*
X81475000Y-108991250D01*
G75*
G02*
X81718750Y-108747500I243750J0D01*
G01*
G37*
G36*
G01*
X85038750Y-108777500D02*
X85601250Y-108777500D01*
G75*
G02*
X85845000Y-109021250I0J-243750D01*
G01*
X85845000Y-109508750D01*
G75*
G02*
X85601250Y-109752500I-243750J0D01*
G01*
X85038750Y-109752500D01*
G75*
G02*
X84795000Y-109508750I0J243750D01*
G01*
X84795000Y-109021250D01*
G75*
G02*
X85038750Y-108777500I243750J0D01*
G01*
G37*
G36*
G01*
X85038750Y-110352500D02*
X85601250Y-110352500D01*
G75*
G02*
X85845000Y-110596250I0J-243750D01*
G01*
X85845000Y-111083750D01*
G75*
G02*
X85601250Y-111327500I-243750J0D01*
G01*
X85038750Y-111327500D01*
G75*
G02*
X84795000Y-111083750I0J243750D01*
G01*
X84795000Y-110596250D01*
G75*
G02*
X85038750Y-110352500I243750J0D01*
G01*
G37*
G36*
G01*
X83378750Y-110352500D02*
X83941250Y-110352500D01*
G75*
G02*
X84185000Y-110596250I0J-243750D01*
G01*
X84185000Y-111083750D01*
G75*
G02*
X83941250Y-111327500I-243750J0D01*
G01*
X83378750Y-111327500D01*
G75*
G02*
X83135000Y-111083750I0J243750D01*
G01*
X83135000Y-110596250D01*
G75*
G02*
X83378750Y-110352500I243750J0D01*
G01*
G37*
G36*
G01*
X83378750Y-108777500D02*
X83941250Y-108777500D01*
G75*
G02*
X84185000Y-109021250I0J-243750D01*
G01*
X84185000Y-109508750D01*
G75*
G02*
X83941250Y-109752500I-243750J0D01*
G01*
X83378750Y-109752500D01*
G75*
G02*
X83135000Y-109508750I0J243750D01*
G01*
X83135000Y-109021250D01*
G75*
G02*
X83378750Y-108777500I243750J0D01*
G01*
G37*
G36*
G01*
X86728750Y-108767500D02*
X87291250Y-108767500D01*
G75*
G02*
X87535000Y-109011250I0J-243750D01*
G01*
X87535000Y-109498750D01*
G75*
G02*
X87291250Y-109742500I-243750J0D01*
G01*
X86728750Y-109742500D01*
G75*
G02*
X86485000Y-109498750I0J243750D01*
G01*
X86485000Y-109011250D01*
G75*
G02*
X86728750Y-108767500I243750J0D01*
G01*
G37*
G36*
G01*
X86728750Y-110342500D02*
X87291250Y-110342500D01*
G75*
G02*
X87535000Y-110586250I0J-243750D01*
G01*
X87535000Y-111073750D01*
G75*
G02*
X87291250Y-111317500I-243750J0D01*
G01*
X86728750Y-111317500D01*
G75*
G02*
X86485000Y-111073750I0J243750D01*
G01*
X86485000Y-110586250D01*
G75*
G02*
X86728750Y-110342500I243750J0D01*
G01*
G37*
G36*
G01*
X84211250Y-68090000D02*
X83648750Y-68090000D01*
G75*
G02*
X83405000Y-67846250I0J243750D01*
G01*
X83405000Y-67358750D01*
G75*
G02*
X83648750Y-67115000I243750J0D01*
G01*
X84211250Y-67115000D01*
G75*
G02*
X84455000Y-67358750I0J-243750D01*
G01*
X84455000Y-67846250D01*
G75*
G02*
X84211250Y-68090000I-243750J0D01*
G01*
G37*
G36*
G01*
X84211250Y-69665000D02*
X83648750Y-69665000D01*
G75*
G02*
X83405000Y-69421250I0J243750D01*
G01*
X83405000Y-68933750D01*
G75*
G02*
X83648750Y-68690000I243750J0D01*
G01*
X84211250Y-68690000D01*
G75*
G02*
X84455000Y-68933750I0J-243750D01*
G01*
X84455000Y-69421250D01*
G75*
G02*
X84211250Y-69665000I-243750J0D01*
G01*
G37*
G36*
G01*
X156391560Y-99510770D02*
X156391560Y-98548270D01*
G75*
G02*
X156660310Y-98279520I268750J0D01*
G01*
X157197810Y-98279520D01*
G75*
G02*
X157466560Y-98548270I0J-268750D01*
G01*
X157466560Y-99510770D01*
G75*
G02*
X157197810Y-99779520I-268750J0D01*
G01*
X156660310Y-99779520D01*
G75*
G02*
X156391560Y-99510770I0J268750D01*
G01*
G37*
G36*
G01*
X154516560Y-99510770D02*
X154516560Y-98548270D01*
G75*
G02*
X154785310Y-98279520I268750J0D01*
G01*
X155322810Y-98279520D01*
G75*
G02*
X155591560Y-98548270I0J-268750D01*
G01*
X155591560Y-99510770D01*
G75*
G02*
X155322810Y-99779520I-268750J0D01*
G01*
X154785310Y-99779520D01*
G75*
G02*
X154516560Y-99510770I0J268750D01*
G01*
G37*
G36*
G01*
X154135560Y-102746730D02*
X154135560Y-101784230D01*
G75*
G02*
X154404310Y-101515480I268750J0D01*
G01*
X154941810Y-101515480D01*
G75*
G02*
X155210560Y-101784230I0J-268750D01*
G01*
X155210560Y-102746730D01*
G75*
G02*
X154941810Y-103015480I-268750J0D01*
G01*
X154404310Y-103015480D01*
G75*
G02*
X154135560Y-102746730I0J268750D01*
G01*
G37*
G36*
G01*
X156010560Y-102746730D02*
X156010560Y-101784230D01*
G75*
G02*
X156279310Y-101515480I268750J0D01*
G01*
X156816810Y-101515480D01*
G75*
G02*
X157085560Y-101784230I0J-268750D01*
G01*
X157085560Y-102746730D01*
G75*
G02*
X156816810Y-103015480I-268750J0D01*
G01*
X156279310Y-103015480D01*
G75*
G02*
X156010560Y-102746730I0J268750D01*
G01*
G37*
D21*
X150703280Y-110058200D03*
X150510240Y-68742560D03*
X166400480Y-110042960D03*
X166364920Y-68737480D03*
X173868080Y-68722240D03*
X173908720Y-110058200D03*
X158190000Y-110040000D03*
X158020000Y-68750000D03*
D22*
X109950000Y-84260000D03*
X112490000Y-84260000D03*
X115030000Y-84260000D03*
D23*
X117570000Y-84260000D03*
D22*
X81445100Y-94576900D03*
X83985100Y-94576900D03*
X81445100Y-97116900D03*
X83985100Y-97116900D03*
X81445100Y-99656900D03*
D23*
X83985100Y-99656900D03*
D24*
X142860000Y-93190000D03*
X142860000Y-90650000D03*
X142860000Y-88110000D03*
X142860000Y-85570000D03*
D12*
X143360000Y-99380000D03*
X143360000Y-79380000D03*
X166360000Y-79380000D03*
X166360000Y-99380000D03*
D22*
X116550000Y-112100000D03*
X119090000Y-112100000D03*
X121630000Y-112100000D03*
D23*
X124170000Y-112100000D03*
X114990880Y-87050880D03*
D22*
X112450880Y-87050880D03*
X109910880Y-87050880D03*
X135686800Y-91516200D03*
X138226800Y-91516200D03*
X135686800Y-94056200D03*
X138226800Y-94056200D03*
X135686800Y-96596200D03*
X138226800Y-96596200D03*
X135686800Y-99136200D03*
D23*
X138226800Y-99136200D03*
D22*
X116580000Y-109500000D03*
X119120000Y-109500000D03*
X121660000Y-109500000D03*
X124200000Y-109500000D03*
X126740000Y-109500000D03*
D23*
X129280000Y-109500000D03*
X133101080Y-80848200D03*
D22*
X135641080Y-80848200D03*
X138181080Y-80848200D03*
D23*
X133101080Y-86166960D03*
D22*
X135641080Y-86166960D03*
X138181080Y-86166960D03*
X126842520Y-112100360D03*
X129382520Y-112100360D03*
X131922520Y-112100360D03*
X134462520Y-112100360D03*
X137002520Y-112100360D03*
D23*
X139542520Y-112100360D03*
D22*
X133035040Y-99115880D03*
X133035040Y-96575880D03*
X133035040Y-94035880D03*
D23*
X133035040Y-91495880D03*
D22*
X138186160Y-83510120D03*
X135646160Y-83510120D03*
D23*
X133106160Y-83510120D03*
D22*
X138176000Y-88828880D03*
X135636000Y-88828880D03*
D23*
X133096000Y-88828880D03*
D25*
X90880000Y-71170000D03*
D26*
X93420000Y-68630000D03*
X88340000Y-68630000D03*
X88340000Y-73710000D03*
X93420000Y-73710000D03*
D27*
X177620000Y-93290000D03*
D28*
X177620000Y-86090000D03*
G36*
G01*
X111687500Y-100760000D02*
X111292500Y-100760000D01*
G75*
G02*
X111120000Y-100587500I0J172500D01*
G01*
X111120000Y-100242500D01*
G75*
G02*
X111292500Y-100070000I172500J0D01*
G01*
X111687500Y-100070000D01*
G75*
G02*
X111860000Y-100242500I0J-172500D01*
G01*
X111860000Y-100587500D01*
G75*
G02*
X111687500Y-100760000I-172500J0D01*
G01*
G37*
G36*
G01*
X111687500Y-101730000D02*
X111292500Y-101730000D01*
G75*
G02*
X111120000Y-101557500I0J172500D01*
G01*
X111120000Y-101212500D01*
G75*
G02*
X111292500Y-101040000I172500J0D01*
G01*
X111687500Y-101040000D01*
G75*
G02*
X111860000Y-101212500I0J-172500D01*
G01*
X111860000Y-101557500D01*
G75*
G02*
X111687500Y-101730000I-172500J0D01*
G01*
G37*
G36*
G01*
X101707500Y-68735000D02*
X101312500Y-68735000D01*
G75*
G02*
X101140000Y-68562500I0J172500D01*
G01*
X101140000Y-68217500D01*
G75*
G02*
X101312500Y-68045000I172500J0D01*
G01*
X101707500Y-68045000D01*
G75*
G02*
X101880000Y-68217500I0J-172500D01*
G01*
X101880000Y-68562500D01*
G75*
G02*
X101707500Y-68735000I-172500J0D01*
G01*
G37*
G36*
G01*
X101707500Y-69705000D02*
X101312500Y-69705000D01*
G75*
G02*
X101140000Y-69532500I0J172500D01*
G01*
X101140000Y-69187500D01*
G75*
G02*
X101312500Y-69015000I172500J0D01*
G01*
X101707500Y-69015000D01*
G75*
G02*
X101880000Y-69187500I0J-172500D01*
G01*
X101880000Y-69532500D01*
G75*
G02*
X101707500Y-69705000I-172500J0D01*
G01*
G37*
G36*
G01*
X101135000Y-70637500D02*
X101135000Y-70242500D01*
G75*
G02*
X101307500Y-70070000I172500J0D01*
G01*
X101652500Y-70070000D01*
G75*
G02*
X101825000Y-70242500I0J-172500D01*
G01*
X101825000Y-70637500D01*
G75*
G02*
X101652500Y-70810000I-172500J0D01*
G01*
X101307500Y-70810000D01*
G75*
G02*
X101135000Y-70637500I0J172500D01*
G01*
G37*
G36*
G01*
X102105000Y-70637500D02*
X102105000Y-70242500D01*
G75*
G02*
X102277500Y-70070000I172500J0D01*
G01*
X102622500Y-70070000D01*
G75*
G02*
X102795000Y-70242500I0J-172500D01*
G01*
X102795000Y-70637500D01*
G75*
G02*
X102622500Y-70810000I-172500J0D01*
G01*
X102277500Y-70810000D01*
G75*
G02*
X102105000Y-70637500I0J172500D01*
G01*
G37*
G36*
G01*
X102737500Y-69715000D02*
X102342500Y-69715000D01*
G75*
G02*
X102170000Y-69542500I0J172500D01*
G01*
X102170000Y-69197500D01*
G75*
G02*
X102342500Y-69025000I172500J0D01*
G01*
X102737500Y-69025000D01*
G75*
G02*
X102910000Y-69197500I0J-172500D01*
G01*
X102910000Y-69542500D01*
G75*
G02*
X102737500Y-69715000I-172500J0D01*
G01*
G37*
G36*
G01*
X102737500Y-68745000D02*
X102342500Y-68745000D01*
G75*
G02*
X102170000Y-68572500I0J172500D01*
G01*
X102170000Y-68227500D01*
G75*
G02*
X102342500Y-68055000I172500J0D01*
G01*
X102737500Y-68055000D01*
G75*
G02*
X102910000Y-68227500I0J-172500D01*
G01*
X102910000Y-68572500D01*
G75*
G02*
X102737500Y-68745000I-172500J0D01*
G01*
G37*
G36*
G01*
X96022600Y-110580820D02*
X96022600Y-110185820D01*
G75*
G02*
X96195100Y-110013320I172500J0D01*
G01*
X96540100Y-110013320D01*
G75*
G02*
X96712600Y-110185820I0J-172500D01*
G01*
X96712600Y-110580820D01*
G75*
G02*
X96540100Y-110753320I-172500J0D01*
G01*
X96195100Y-110753320D01*
G75*
G02*
X96022600Y-110580820I0J172500D01*
G01*
G37*
G36*
G01*
X95052600Y-110580820D02*
X95052600Y-110185820D01*
G75*
G02*
X95225100Y-110013320I172500J0D01*
G01*
X95570100Y-110013320D01*
G75*
G02*
X95742600Y-110185820I0J-172500D01*
G01*
X95742600Y-110580820D01*
G75*
G02*
X95570100Y-110753320I-172500J0D01*
G01*
X95225100Y-110753320D01*
G75*
G02*
X95052600Y-110580820I0J172500D01*
G01*
G37*
G36*
G01*
X95994800Y-109503860D02*
X95994800Y-109108860D01*
G75*
G02*
X96167300Y-108936360I172500J0D01*
G01*
X96512300Y-108936360D01*
G75*
G02*
X96684800Y-109108860I0J-172500D01*
G01*
X96684800Y-109503860D01*
G75*
G02*
X96512300Y-109676360I-172500J0D01*
G01*
X96167300Y-109676360D01*
G75*
G02*
X95994800Y-109503860I0J172500D01*
G01*
G37*
G36*
G01*
X96964800Y-109503860D02*
X96964800Y-109108860D01*
G75*
G02*
X97137300Y-108936360I172500J0D01*
G01*
X97482300Y-108936360D01*
G75*
G02*
X97654800Y-109108860I0J-172500D01*
G01*
X97654800Y-109503860D01*
G75*
G02*
X97482300Y-109676360I-172500J0D01*
G01*
X97137300Y-109676360D01*
G75*
G02*
X96964800Y-109503860I0J172500D01*
G01*
G37*
G36*
G01*
X113437020Y-104246840D02*
X113832020Y-104246840D01*
G75*
G02*
X114004520Y-104419340I0J-172500D01*
G01*
X114004520Y-104764340D01*
G75*
G02*
X113832020Y-104936840I-172500J0D01*
G01*
X113437020Y-104936840D01*
G75*
G02*
X113264520Y-104764340I0J172500D01*
G01*
X113264520Y-104419340D01*
G75*
G02*
X113437020Y-104246840I172500J0D01*
G01*
G37*
G36*
G01*
X113437020Y-103276840D02*
X113832020Y-103276840D01*
G75*
G02*
X114004520Y-103449340I0J-172500D01*
G01*
X114004520Y-103794340D01*
G75*
G02*
X113832020Y-103966840I-172500J0D01*
G01*
X113437020Y-103966840D01*
G75*
G02*
X113264520Y-103794340I0J172500D01*
G01*
X113264520Y-103449340D01*
G75*
G02*
X113437020Y-103276840I172500J0D01*
G01*
G37*
G36*
G01*
X142715560Y-104342580D02*
X142715560Y-103947580D01*
G75*
G02*
X142888060Y-103775080I172500J0D01*
G01*
X143233060Y-103775080D01*
G75*
G02*
X143405560Y-103947580I0J-172500D01*
G01*
X143405560Y-104342580D01*
G75*
G02*
X143233060Y-104515080I-172500J0D01*
G01*
X142888060Y-104515080D01*
G75*
G02*
X142715560Y-104342580I0J172500D01*
G01*
G37*
G36*
G01*
X143685560Y-104342580D02*
X143685560Y-103947580D01*
G75*
G02*
X143858060Y-103775080I172500J0D01*
G01*
X144203060Y-103775080D01*
G75*
G02*
X144375560Y-103947580I0J-172500D01*
G01*
X144375560Y-104342580D01*
G75*
G02*
X144203060Y-104515080I-172500J0D01*
G01*
X143858060Y-104515080D01*
G75*
G02*
X143685560Y-104342580I0J172500D01*
G01*
G37*
G36*
G01*
X104010000Y-113237500D02*
X104010000Y-112842500D01*
G75*
G02*
X104182500Y-112670000I172500J0D01*
G01*
X104527500Y-112670000D01*
G75*
G02*
X104700000Y-112842500I0J-172500D01*
G01*
X104700000Y-113237500D01*
G75*
G02*
X104527500Y-113410000I-172500J0D01*
G01*
X104182500Y-113410000D01*
G75*
G02*
X104010000Y-113237500I0J172500D01*
G01*
G37*
G36*
G01*
X103040000Y-113237500D02*
X103040000Y-112842500D01*
G75*
G02*
X103212500Y-112670000I172500J0D01*
G01*
X103557500Y-112670000D01*
G75*
G02*
X103730000Y-112842500I0J-172500D01*
G01*
X103730000Y-113237500D01*
G75*
G02*
X103557500Y-113410000I-172500J0D01*
G01*
X103212500Y-113410000D01*
G75*
G02*
X103040000Y-113237500I0J172500D01*
G01*
G37*
G36*
G01*
X132441300Y-76208200D02*
X132836300Y-76208200D01*
G75*
G02*
X133008800Y-76380700I0J-172500D01*
G01*
X133008800Y-76725700D01*
G75*
G02*
X132836300Y-76898200I-172500J0D01*
G01*
X132441300Y-76898200D01*
G75*
G02*
X132268800Y-76725700I0J172500D01*
G01*
X132268800Y-76380700D01*
G75*
G02*
X132441300Y-76208200I172500J0D01*
G01*
G37*
G36*
G01*
X132441300Y-77178200D02*
X132836300Y-77178200D01*
G75*
G02*
X133008800Y-77350700I0J-172500D01*
G01*
X133008800Y-77695700D01*
G75*
G02*
X132836300Y-77868200I-172500J0D01*
G01*
X132441300Y-77868200D01*
G75*
G02*
X132268800Y-77695700I0J172500D01*
G01*
X132268800Y-77350700D01*
G75*
G02*
X132441300Y-77178200I172500J0D01*
G01*
G37*
G36*
G01*
X104567500Y-111195000D02*
X104172500Y-111195000D01*
G75*
G02*
X104000000Y-111022500I0J172500D01*
G01*
X104000000Y-110677500D01*
G75*
G02*
X104172500Y-110505000I172500J0D01*
G01*
X104567500Y-110505000D01*
G75*
G02*
X104740000Y-110677500I0J-172500D01*
G01*
X104740000Y-111022500D01*
G75*
G02*
X104567500Y-111195000I-172500J0D01*
G01*
G37*
G36*
G01*
X104567500Y-110225000D02*
X104172500Y-110225000D01*
G75*
G02*
X104000000Y-110052500I0J172500D01*
G01*
X104000000Y-109707500D01*
G75*
G02*
X104172500Y-109535000I172500J0D01*
G01*
X104567500Y-109535000D01*
G75*
G02*
X104740000Y-109707500I0J-172500D01*
G01*
X104740000Y-110052500D01*
G75*
G02*
X104567500Y-110225000I-172500J0D01*
G01*
G37*
G36*
G01*
X87631250Y-107572500D02*
X87068750Y-107572500D01*
G75*
G02*
X86825000Y-107328750I0J243750D01*
G01*
X86825000Y-106841250D01*
G75*
G02*
X87068750Y-106597500I243750J0D01*
G01*
X87631250Y-106597500D01*
G75*
G02*
X87875000Y-106841250I0J-243750D01*
G01*
X87875000Y-107328750D01*
G75*
G02*
X87631250Y-107572500I-243750J0D01*
G01*
G37*
G36*
G01*
X87631250Y-105997500D02*
X87068750Y-105997500D01*
G75*
G02*
X86825000Y-105753750I0J243750D01*
G01*
X86825000Y-105266250D01*
G75*
G02*
X87068750Y-105022500I243750J0D01*
G01*
X87631250Y-105022500D01*
G75*
G02*
X87875000Y-105266250I0J-243750D01*
G01*
X87875000Y-105753750D01*
G75*
G02*
X87631250Y-105997500I-243750J0D01*
G01*
G37*
G36*
G01*
X89821250Y-108197500D02*
X89258750Y-108197500D01*
G75*
G02*
X89015000Y-107953750I0J243750D01*
G01*
X89015000Y-107466250D01*
G75*
G02*
X89258750Y-107222500I243750J0D01*
G01*
X89821250Y-107222500D01*
G75*
G02*
X90065000Y-107466250I0J-243750D01*
G01*
X90065000Y-107953750D01*
G75*
G02*
X89821250Y-108197500I-243750J0D01*
G01*
G37*
G36*
G01*
X89821250Y-109772500D02*
X89258750Y-109772500D01*
G75*
G02*
X89015000Y-109528750I0J243750D01*
G01*
X89015000Y-109041250D01*
G75*
G02*
X89258750Y-108797500I243750J0D01*
G01*
X89821250Y-108797500D01*
G75*
G02*
X90065000Y-109041250I0J-243750D01*
G01*
X90065000Y-109528750D01*
G75*
G02*
X89821250Y-109772500I-243750J0D01*
G01*
G37*
G36*
G01*
X91461250Y-110187500D02*
X90898750Y-110187500D01*
G75*
G02*
X90655000Y-109943750I0J243750D01*
G01*
X90655000Y-109456250D01*
G75*
G02*
X90898750Y-109212500I243750J0D01*
G01*
X91461250Y-109212500D01*
G75*
G02*
X91705000Y-109456250I0J-243750D01*
G01*
X91705000Y-109943750D01*
G75*
G02*
X91461250Y-110187500I-243750J0D01*
G01*
G37*
G36*
G01*
X91461250Y-111762500D02*
X90898750Y-111762500D01*
G75*
G02*
X90655000Y-111518750I0J243750D01*
G01*
X90655000Y-111031250D01*
G75*
G02*
X90898750Y-110787500I243750J0D01*
G01*
X91461250Y-110787500D01*
G75*
G02*
X91705000Y-111031250I0J-243750D01*
G01*
X91705000Y-111518750D01*
G75*
G02*
X91461250Y-111762500I-243750J0D01*
G01*
G37*
G36*
G01*
X93061250Y-111765000D02*
X92498750Y-111765000D01*
G75*
G02*
X92255000Y-111521250I0J243750D01*
G01*
X92255000Y-111033750D01*
G75*
G02*
X92498750Y-110790000I243750J0D01*
G01*
X93061250Y-110790000D01*
G75*
G02*
X93305000Y-111033750I0J-243750D01*
G01*
X93305000Y-111521250D01*
G75*
G02*
X93061250Y-111765000I-243750J0D01*
G01*
G37*
G36*
G01*
X93061250Y-110190000D02*
X92498750Y-110190000D01*
G75*
G02*
X92255000Y-109946250I0J243750D01*
G01*
X92255000Y-109458750D01*
G75*
G02*
X92498750Y-109215000I243750J0D01*
G01*
X93061250Y-109215000D01*
G75*
G02*
X93305000Y-109458750I0J-243750D01*
G01*
X93305000Y-109946250D01*
G75*
G02*
X93061250Y-110190000I-243750J0D01*
G01*
G37*
G36*
G01*
X120863030Y-66215720D02*
X121425530Y-66215720D01*
G75*
G02*
X121669280Y-66459470I0J-243750D01*
G01*
X121669280Y-66946970D01*
G75*
G02*
X121425530Y-67190720I-243750J0D01*
G01*
X120863030Y-67190720D01*
G75*
G02*
X120619280Y-66946970I0J243750D01*
G01*
X120619280Y-66459470D01*
G75*
G02*
X120863030Y-66215720I243750J0D01*
G01*
G37*
G36*
G01*
X120863030Y-67790720D02*
X121425530Y-67790720D01*
G75*
G02*
X121669280Y-68034470I0J-243750D01*
G01*
X121669280Y-68521970D01*
G75*
G02*
X121425530Y-68765720I-243750J0D01*
G01*
X120863030Y-68765720D01*
G75*
G02*
X120619280Y-68521970I0J243750D01*
G01*
X120619280Y-68034470D01*
G75*
G02*
X120863030Y-67790720I243750J0D01*
G01*
G37*
G36*
G01*
X148168980Y-82187360D02*
X148563980Y-82187360D01*
G75*
G02*
X148736480Y-82359860I0J-172500D01*
G01*
X148736480Y-82704860D01*
G75*
G02*
X148563980Y-82877360I-172500J0D01*
G01*
X148168980Y-82877360D01*
G75*
G02*
X147996480Y-82704860I0J172500D01*
G01*
X147996480Y-82359860D01*
G75*
G02*
X148168980Y-82187360I172500J0D01*
G01*
G37*
G36*
G01*
X148168980Y-83157360D02*
X148563980Y-83157360D01*
G75*
G02*
X148736480Y-83329860I0J-172500D01*
G01*
X148736480Y-83674860D01*
G75*
G02*
X148563980Y-83847360I-172500J0D01*
G01*
X148168980Y-83847360D01*
G75*
G02*
X147996480Y-83674860I0J172500D01*
G01*
X147996480Y-83329860D01*
G75*
G02*
X148168980Y-83157360I172500J0D01*
G01*
G37*
G36*
G01*
X146455780Y-83456480D02*
X146060780Y-83456480D01*
G75*
G02*
X145888280Y-83283980I0J172500D01*
G01*
X145888280Y-82938980D01*
G75*
G02*
X146060780Y-82766480I172500J0D01*
G01*
X146455780Y-82766480D01*
G75*
G02*
X146628280Y-82938980I0J-172500D01*
G01*
X146628280Y-83283980D01*
G75*
G02*
X146455780Y-83456480I-172500J0D01*
G01*
G37*
G36*
G01*
X146455780Y-84426480D02*
X146060780Y-84426480D01*
G75*
G02*
X145888280Y-84253980I0J172500D01*
G01*
X145888280Y-83908980D01*
G75*
G02*
X146060780Y-83736480I172500J0D01*
G01*
X146455780Y-83736480D01*
G75*
G02*
X146628280Y-83908980I0J-172500D01*
G01*
X146628280Y-84253980D01*
G75*
G02*
X146455780Y-84426480I-172500J0D01*
G01*
G37*
G36*
G01*
X121955000Y-88602500D02*
X121955000Y-88997500D01*
G75*
G02*
X121782500Y-89170000I-172500J0D01*
G01*
X121437500Y-89170000D01*
G75*
G02*
X121265000Y-88997500I0J172500D01*
G01*
X121265000Y-88602500D01*
G75*
G02*
X121437500Y-88430000I172500J0D01*
G01*
X121782500Y-88430000D01*
G75*
G02*
X121955000Y-88602500I0J-172500D01*
G01*
G37*
G36*
G01*
X122925000Y-88602500D02*
X122925000Y-88997500D01*
G75*
G02*
X122752500Y-89170000I-172500J0D01*
G01*
X122407500Y-89170000D01*
G75*
G02*
X122235000Y-88997500I0J172500D01*
G01*
X122235000Y-88602500D01*
G75*
G02*
X122407500Y-88430000I172500J0D01*
G01*
X122752500Y-88430000D01*
G75*
G02*
X122925000Y-88602500I0J-172500D01*
G01*
G37*
G36*
G01*
X121270000Y-87927500D02*
X121270000Y-87532500D01*
G75*
G02*
X121442500Y-87360000I172500J0D01*
G01*
X121787500Y-87360000D01*
G75*
G02*
X121960000Y-87532500I0J-172500D01*
G01*
X121960000Y-87927500D01*
G75*
G02*
X121787500Y-88100000I-172500J0D01*
G01*
X121442500Y-88100000D01*
G75*
G02*
X121270000Y-87927500I0J172500D01*
G01*
G37*
G36*
G01*
X122240000Y-87927500D02*
X122240000Y-87532500D01*
G75*
G02*
X122412500Y-87360000I172500J0D01*
G01*
X122757500Y-87360000D01*
G75*
G02*
X122930000Y-87532500I0J-172500D01*
G01*
X122930000Y-87927500D01*
G75*
G02*
X122757500Y-88100000I-172500J0D01*
G01*
X122412500Y-88100000D01*
G75*
G02*
X122240000Y-87927500I0J172500D01*
G01*
G37*
G36*
G01*
X101524100Y-93161500D02*
X101524100Y-92766500D01*
G75*
G02*
X101696600Y-92594000I172500J0D01*
G01*
X102041600Y-92594000D01*
G75*
G02*
X102214100Y-92766500I0J-172500D01*
G01*
X102214100Y-93161500D01*
G75*
G02*
X102041600Y-93334000I-172500J0D01*
G01*
X101696600Y-93334000D01*
G75*
G02*
X101524100Y-93161500I0J172500D01*
G01*
G37*
G36*
G01*
X100554100Y-93161500D02*
X100554100Y-92766500D01*
G75*
G02*
X100726600Y-92594000I172500J0D01*
G01*
X101071600Y-92594000D01*
G75*
G02*
X101244100Y-92766500I0J-172500D01*
G01*
X101244100Y-93161500D01*
G75*
G02*
X101071600Y-93334000I-172500J0D01*
G01*
X100726600Y-93334000D01*
G75*
G02*
X100554100Y-93161500I0J172500D01*
G01*
G37*
G36*
G01*
X103626300Y-93293900D02*
X103231300Y-93293900D01*
G75*
G02*
X103058800Y-93121400I0J172500D01*
G01*
X103058800Y-92776400D01*
G75*
G02*
X103231300Y-92603900I172500J0D01*
G01*
X103626300Y-92603900D01*
G75*
G02*
X103798800Y-92776400I0J-172500D01*
G01*
X103798800Y-93121400D01*
G75*
G02*
X103626300Y-93293900I-172500J0D01*
G01*
G37*
G36*
G01*
X103626300Y-94263900D02*
X103231300Y-94263900D01*
G75*
G02*
X103058800Y-94091400I0J172500D01*
G01*
X103058800Y-93746400D01*
G75*
G02*
X103231300Y-93573900I172500J0D01*
G01*
X103626300Y-93573900D01*
G75*
G02*
X103798800Y-93746400I0J-172500D01*
G01*
X103798800Y-94091400D01*
G75*
G02*
X103626300Y-94263900I-172500J0D01*
G01*
G37*
G36*
G01*
X118656400Y-87893540D02*
X118656400Y-87498540D01*
G75*
G02*
X118828900Y-87326040I172500J0D01*
G01*
X119173900Y-87326040D01*
G75*
G02*
X119346400Y-87498540I0J-172500D01*
G01*
X119346400Y-87893540D01*
G75*
G02*
X119173900Y-88066040I-172500J0D01*
G01*
X118828900Y-88066040D01*
G75*
G02*
X118656400Y-87893540I0J172500D01*
G01*
G37*
G36*
G01*
X117686400Y-87893540D02*
X117686400Y-87498540D01*
G75*
G02*
X117858900Y-87326040I172500J0D01*
G01*
X118203900Y-87326040D01*
G75*
G02*
X118376400Y-87498540I0J-172500D01*
G01*
X118376400Y-87893540D01*
G75*
G02*
X118203900Y-88066040I-172500J0D01*
G01*
X117858900Y-88066040D01*
G75*
G02*
X117686400Y-87893540I0J172500D01*
G01*
G37*
G36*
G01*
X104336300Y-93148800D02*
X104336300Y-92753800D01*
G75*
G02*
X104508800Y-92581300I172500J0D01*
G01*
X104853800Y-92581300D01*
G75*
G02*
X105026300Y-92753800I0J-172500D01*
G01*
X105026300Y-93148800D01*
G75*
G02*
X104853800Y-93321300I-172500J0D01*
G01*
X104508800Y-93321300D01*
G75*
G02*
X104336300Y-93148800I0J172500D01*
G01*
G37*
G36*
G01*
X105306300Y-93148800D02*
X105306300Y-92753800D01*
G75*
G02*
X105478800Y-92581300I172500J0D01*
G01*
X105823800Y-92581300D01*
G75*
G02*
X105996300Y-92753800I0J-172500D01*
G01*
X105996300Y-93148800D01*
G75*
G02*
X105823800Y-93321300I-172500J0D01*
G01*
X105478800Y-93321300D01*
G75*
G02*
X105306300Y-93148800I0J172500D01*
G01*
G37*
G36*
G01*
X97239400Y-73095500D02*
X97239400Y-72700500D01*
G75*
G02*
X97411900Y-72528000I172500J0D01*
G01*
X97756900Y-72528000D01*
G75*
G02*
X97929400Y-72700500I0J-172500D01*
G01*
X97929400Y-73095500D01*
G75*
G02*
X97756900Y-73268000I-172500J0D01*
G01*
X97411900Y-73268000D01*
G75*
G02*
X97239400Y-73095500I0J172500D01*
G01*
G37*
G36*
G01*
X98209400Y-73095500D02*
X98209400Y-72700500D01*
G75*
G02*
X98381900Y-72528000I172500J0D01*
G01*
X98726900Y-72528000D01*
G75*
G02*
X98899400Y-72700500I0J-172500D01*
G01*
X98899400Y-73095500D01*
G75*
G02*
X98726900Y-73268000I-172500J0D01*
G01*
X98381900Y-73268000D01*
G75*
G02*
X98209400Y-73095500I0J172500D01*
G01*
G37*
G36*
G01*
X104862500Y-73595000D02*
X105257500Y-73595000D01*
G75*
G02*
X105430000Y-73767500I0J-172500D01*
G01*
X105430000Y-74112500D01*
G75*
G02*
X105257500Y-74285000I-172500J0D01*
G01*
X104862500Y-74285000D01*
G75*
G02*
X104690000Y-74112500I0J172500D01*
G01*
X104690000Y-73767500D01*
G75*
G02*
X104862500Y-73595000I172500J0D01*
G01*
G37*
G36*
G01*
X104862500Y-72625000D02*
X105257500Y-72625000D01*
G75*
G02*
X105430000Y-72797500I0J-172500D01*
G01*
X105430000Y-73142500D01*
G75*
G02*
X105257500Y-73315000I-172500J0D01*
G01*
X104862500Y-73315000D01*
G75*
G02*
X104690000Y-73142500I0J172500D01*
G01*
X104690000Y-72797500D01*
G75*
G02*
X104862500Y-72625000I172500J0D01*
G01*
G37*
G36*
G01*
X158388540Y-82319040D02*
X157993540Y-82319040D01*
G75*
G02*
X157821040Y-82146540I0J172500D01*
G01*
X157821040Y-81801540D01*
G75*
G02*
X157993540Y-81629040I172500J0D01*
G01*
X158388540Y-81629040D01*
G75*
G02*
X158561040Y-81801540I0J-172500D01*
G01*
X158561040Y-82146540D01*
G75*
G02*
X158388540Y-82319040I-172500J0D01*
G01*
G37*
G36*
G01*
X158388540Y-81349040D02*
X157993540Y-81349040D01*
G75*
G02*
X157821040Y-81176540I0J172500D01*
G01*
X157821040Y-80831540D01*
G75*
G02*
X157993540Y-80659040I172500J0D01*
G01*
X158388540Y-80659040D01*
G75*
G02*
X158561040Y-80831540I0J-172500D01*
G01*
X158561040Y-81176540D01*
G75*
G02*
X158388540Y-81349040I-172500J0D01*
G01*
G37*
D29*
X111180000Y-105930000D03*
X111180000Y-112430000D03*
X107447080Y-105949680D03*
X107447080Y-112449680D03*
X144030000Y-105880000D03*
X144030000Y-112380000D03*
D30*
X150204800Y-75133200D03*
X152704800Y-75133200D03*
D16*
X155204800Y-75133200D03*
D31*
X97030000Y-107680000D03*
X96230000Y-107680000D03*
X95430000Y-107680000D03*
X94630000Y-107680000D03*
X93830000Y-107680000D03*
X93030000Y-107680000D03*
X92230000Y-107680000D03*
X91430000Y-107680000D03*
D32*
X90030000Y-106280000D03*
X90030000Y-105480000D03*
X90030000Y-104680000D03*
X90030000Y-103880000D03*
X90030000Y-103080000D03*
X90030000Y-102280000D03*
X90030000Y-101480000D03*
X90030000Y-100680000D03*
D31*
X91430000Y-99280000D03*
X92230000Y-99280000D03*
X93030000Y-99280000D03*
X93830000Y-99280000D03*
X94630000Y-99280000D03*
X95430000Y-99280000D03*
X96230000Y-99280000D03*
D32*
X98430000Y-100680000D03*
X98430000Y-101480000D03*
X98430000Y-102280000D03*
X98430000Y-103080000D03*
X98430000Y-103880000D03*
X98430000Y-104680000D03*
X98430000Y-105480000D03*
X98430000Y-106280000D03*
D31*
X97030000Y-99280000D03*
D33*
X128820000Y-78495000D03*
X123920000Y-81035000D03*
X123920000Y-79765000D03*
X123920000Y-78495000D03*
X123920000Y-77225000D03*
X128820000Y-77225000D03*
X128820000Y-79765000D03*
X128820000Y-81035000D03*
D34*
X101770000Y-74820000D03*
G36*
G01*
X100207500Y-75995000D02*
X99457500Y-75995000D01*
G75*
G02*
X99370000Y-75907500I0J87500D01*
G01*
X99370000Y-75732500D01*
G75*
G02*
X99457500Y-75645000I87500J0D01*
G01*
X100207500Y-75645000D01*
G75*
G02*
X100295000Y-75732500I0J-87500D01*
G01*
X100295000Y-75907500D01*
G75*
G02*
X100207500Y-75995000I-87500J0D01*
G01*
G37*
G36*
G01*
X100207500Y-75495000D02*
X99457500Y-75495000D01*
G75*
G02*
X99370000Y-75407500I0J87500D01*
G01*
X99370000Y-75232500D01*
G75*
G02*
X99457500Y-75145000I87500J0D01*
G01*
X100207500Y-75145000D01*
G75*
G02*
X100295000Y-75232500I0J-87500D01*
G01*
X100295000Y-75407500D01*
G75*
G02*
X100207500Y-75495000I-87500J0D01*
G01*
G37*
G36*
G01*
X100207500Y-74995000D02*
X99457500Y-74995000D01*
G75*
G02*
X99370000Y-74907500I0J87500D01*
G01*
X99370000Y-74732500D01*
G75*
G02*
X99457500Y-74645000I87500J0D01*
G01*
X100207500Y-74645000D01*
G75*
G02*
X100295000Y-74732500I0J-87500D01*
G01*
X100295000Y-74907500D01*
G75*
G02*
X100207500Y-74995000I-87500J0D01*
G01*
G37*
G36*
G01*
X100207500Y-74495000D02*
X99457500Y-74495000D01*
G75*
G02*
X99370000Y-74407500I0J87500D01*
G01*
X99370000Y-74232500D01*
G75*
G02*
X99457500Y-74145000I87500J0D01*
G01*
X100207500Y-74145000D01*
G75*
G02*
X100295000Y-74232500I0J-87500D01*
G01*
X100295000Y-74407500D01*
G75*
G02*
X100207500Y-74495000I-87500J0D01*
G01*
G37*
G36*
G01*
X100207500Y-73995000D02*
X99457500Y-73995000D01*
G75*
G02*
X99370000Y-73907500I0J87500D01*
G01*
X99370000Y-73732500D01*
G75*
G02*
X99457500Y-73645000I87500J0D01*
G01*
X100207500Y-73645000D01*
G75*
G02*
X100295000Y-73732500I0J-87500D01*
G01*
X100295000Y-73907500D01*
G75*
G02*
X100207500Y-73995000I-87500J0D01*
G01*
G37*
G36*
G01*
X100857500Y-73345000D02*
X100682500Y-73345000D01*
G75*
G02*
X100595000Y-73257500I0J87500D01*
G01*
X100595000Y-72507500D01*
G75*
G02*
X100682500Y-72420000I87500J0D01*
G01*
X100857500Y-72420000D01*
G75*
G02*
X100945000Y-72507500I0J-87500D01*
G01*
X100945000Y-73257500D01*
G75*
G02*
X100857500Y-73345000I-87500J0D01*
G01*
G37*
G36*
G01*
X101357500Y-73345000D02*
X101182500Y-73345000D01*
G75*
G02*
X101095000Y-73257500I0J87500D01*
G01*
X101095000Y-72507500D01*
G75*
G02*
X101182500Y-72420000I87500J0D01*
G01*
X101357500Y-72420000D01*
G75*
G02*
X101445000Y-72507500I0J-87500D01*
G01*
X101445000Y-73257500D01*
G75*
G02*
X101357500Y-73345000I-87500J0D01*
G01*
G37*
G36*
G01*
X101857500Y-73345000D02*
X101682500Y-73345000D01*
G75*
G02*
X101595000Y-73257500I0J87500D01*
G01*
X101595000Y-72507500D01*
G75*
G02*
X101682500Y-72420000I87500J0D01*
G01*
X101857500Y-72420000D01*
G75*
G02*
X101945000Y-72507500I0J-87500D01*
G01*
X101945000Y-73257500D01*
G75*
G02*
X101857500Y-73345000I-87500J0D01*
G01*
G37*
G36*
G01*
X102357500Y-73345000D02*
X102182500Y-73345000D01*
G75*
G02*
X102095000Y-73257500I0J87500D01*
G01*
X102095000Y-72507500D01*
G75*
G02*
X102182500Y-72420000I87500J0D01*
G01*
X102357500Y-72420000D01*
G75*
G02*
X102445000Y-72507500I0J-87500D01*
G01*
X102445000Y-73257500D01*
G75*
G02*
X102357500Y-73345000I-87500J0D01*
G01*
G37*
G36*
G01*
X102857500Y-73345000D02*
X102682500Y-73345000D01*
G75*
G02*
X102595000Y-73257500I0J87500D01*
G01*
X102595000Y-72507500D01*
G75*
G02*
X102682500Y-72420000I87500J0D01*
G01*
X102857500Y-72420000D01*
G75*
G02*
X102945000Y-72507500I0J-87500D01*
G01*
X102945000Y-73257500D01*
G75*
G02*
X102857500Y-73345000I-87500J0D01*
G01*
G37*
G36*
G01*
X104082500Y-73995000D02*
X103332500Y-73995000D01*
G75*
G02*
X103245000Y-73907500I0J87500D01*
G01*
X103245000Y-73732500D01*
G75*
G02*
X103332500Y-73645000I87500J0D01*
G01*
X104082500Y-73645000D01*
G75*
G02*
X104170000Y-73732500I0J-87500D01*
G01*
X104170000Y-73907500D01*
G75*
G02*
X104082500Y-73995000I-87500J0D01*
G01*
G37*
G36*
G01*
X104082500Y-74495000D02*
X103332500Y-74495000D01*
G75*
G02*
X103245000Y-74407500I0J87500D01*
G01*
X103245000Y-74232500D01*
G75*
G02*
X103332500Y-74145000I87500J0D01*
G01*
X104082500Y-74145000D01*
G75*
G02*
X104170000Y-74232500I0J-87500D01*
G01*
X104170000Y-74407500D01*
G75*
G02*
X104082500Y-74495000I-87500J0D01*
G01*
G37*
G36*
G01*
X104082500Y-74995000D02*
X103332500Y-74995000D01*
G75*
G02*
X103245000Y-74907500I0J87500D01*
G01*
X103245000Y-74732500D01*
G75*
G02*
X103332500Y-74645000I87500J0D01*
G01*
X104082500Y-74645000D01*
G75*
G02*
X104170000Y-74732500I0J-87500D01*
G01*
X104170000Y-74907500D01*
G75*
G02*
X104082500Y-74995000I-87500J0D01*
G01*
G37*
G36*
G01*
X104082500Y-75495000D02*
X103332500Y-75495000D01*
G75*
G02*
X103245000Y-75407500I0J87500D01*
G01*
X103245000Y-75232500D01*
G75*
G02*
X103332500Y-75145000I87500J0D01*
G01*
X104082500Y-75145000D01*
G75*
G02*
X104170000Y-75232500I0J-87500D01*
G01*
X104170000Y-75407500D01*
G75*
G02*
X104082500Y-75495000I-87500J0D01*
G01*
G37*
G36*
G01*
X104082500Y-75995000D02*
X103332500Y-75995000D01*
G75*
G02*
X103245000Y-75907500I0J87500D01*
G01*
X103245000Y-75732500D01*
G75*
G02*
X103332500Y-75645000I87500J0D01*
G01*
X104082500Y-75645000D01*
G75*
G02*
X104170000Y-75732500I0J-87500D01*
G01*
X104170000Y-75907500D01*
G75*
G02*
X104082500Y-75995000I-87500J0D01*
G01*
G37*
G36*
G01*
X102857500Y-77220000D02*
X102682500Y-77220000D01*
G75*
G02*
X102595000Y-77132500I0J87500D01*
G01*
X102595000Y-76382500D01*
G75*
G02*
X102682500Y-76295000I87500J0D01*
G01*
X102857500Y-76295000D01*
G75*
G02*
X102945000Y-76382500I0J-87500D01*
G01*
X102945000Y-77132500D01*
G75*
G02*
X102857500Y-77220000I-87500J0D01*
G01*
G37*
G36*
G01*
X102357500Y-77220000D02*
X102182500Y-77220000D01*
G75*
G02*
X102095000Y-77132500I0J87500D01*
G01*
X102095000Y-76382500D01*
G75*
G02*
X102182500Y-76295000I87500J0D01*
G01*
X102357500Y-76295000D01*
G75*
G02*
X102445000Y-76382500I0J-87500D01*
G01*
X102445000Y-77132500D01*
G75*
G02*
X102357500Y-77220000I-87500J0D01*
G01*
G37*
G36*
G01*
X101857500Y-77220000D02*
X101682500Y-77220000D01*
G75*
G02*
X101595000Y-77132500I0J87500D01*
G01*
X101595000Y-76382500D01*
G75*
G02*
X101682500Y-76295000I87500J0D01*
G01*
X101857500Y-76295000D01*
G75*
G02*
X101945000Y-76382500I0J-87500D01*
G01*
X101945000Y-77132500D01*
G75*
G02*
X101857500Y-77220000I-87500J0D01*
G01*
G37*
G36*
G01*
X101357500Y-77220000D02*
X101182500Y-77220000D01*
G75*
G02*
X101095000Y-77132500I0J87500D01*
G01*
X101095000Y-76382500D01*
G75*
G02*
X101182500Y-76295000I87500J0D01*
G01*
X101357500Y-76295000D01*
G75*
G02*
X101445000Y-76382500I0J-87500D01*
G01*
X101445000Y-77132500D01*
G75*
G02*
X101357500Y-77220000I-87500J0D01*
G01*
G37*
G36*
G01*
X100857500Y-77220000D02*
X100682500Y-77220000D01*
G75*
G02*
X100595000Y-77132500I0J87500D01*
G01*
X100595000Y-76382500D01*
G75*
G02*
X100682500Y-76295000I87500J0D01*
G01*
X100857500Y-76295000D01*
G75*
G02*
X100945000Y-76382500I0J-87500D01*
G01*
X100945000Y-77132500D01*
G75*
G02*
X100857500Y-77220000I-87500J0D01*
G01*
G37*
G36*
G01*
X97535000Y-90850000D02*
X97535000Y-91200000D01*
G75*
G02*
X97360000Y-91375000I-175000J0D01*
G01*
X95560000Y-91375000D01*
G75*
G02*
X95385000Y-91200000I0J175000D01*
G01*
X95385000Y-90850000D01*
G75*
G02*
X95560000Y-90675000I175000J0D01*
G01*
X97360000Y-90675000D01*
G75*
G02*
X97535000Y-90850000I0J-175000D01*
G01*
G37*
G36*
G01*
X97535000Y-89580000D02*
X97535000Y-89930000D01*
G75*
G02*
X97360000Y-90105000I-175000J0D01*
G01*
X95560000Y-90105000D01*
G75*
G02*
X95385000Y-89930000I0J175000D01*
G01*
X95385000Y-89580000D01*
G75*
G02*
X95560000Y-89405000I175000J0D01*
G01*
X97360000Y-89405000D01*
G75*
G02*
X97535000Y-89580000I0J-175000D01*
G01*
G37*
G36*
G01*
X97535000Y-88310000D02*
X97535000Y-88660000D01*
G75*
G02*
X97360000Y-88835000I-175000J0D01*
G01*
X95560000Y-88835000D01*
G75*
G02*
X95385000Y-88660000I0J175000D01*
G01*
X95385000Y-88310000D01*
G75*
G02*
X95560000Y-88135000I175000J0D01*
G01*
X97360000Y-88135000D01*
G75*
G02*
X97535000Y-88310000I0J-175000D01*
G01*
G37*
G36*
G01*
X97535000Y-87040000D02*
X97535000Y-87390000D01*
G75*
G02*
X97360000Y-87565000I-175000J0D01*
G01*
X95560000Y-87565000D01*
G75*
G02*
X95385000Y-87390000I0J175000D01*
G01*
X95385000Y-87040000D01*
G75*
G02*
X95560000Y-86865000I175000J0D01*
G01*
X97360000Y-86865000D01*
G75*
G02*
X97535000Y-87040000I0J-175000D01*
G01*
G37*
G36*
G01*
X97535000Y-85770000D02*
X97535000Y-86120000D01*
G75*
G02*
X97360000Y-86295000I-175000J0D01*
G01*
X95560000Y-86295000D01*
G75*
G02*
X95385000Y-86120000I0J175000D01*
G01*
X95385000Y-85770000D01*
G75*
G02*
X95560000Y-85595000I175000J0D01*
G01*
X97360000Y-85595000D01*
G75*
G02*
X97535000Y-85770000I0J-175000D01*
G01*
G37*
G36*
G01*
X97535000Y-84500000D02*
X97535000Y-84850000D01*
G75*
G02*
X97360000Y-85025000I-175000J0D01*
G01*
X95560000Y-85025000D01*
G75*
G02*
X95385000Y-84850000I0J175000D01*
G01*
X95385000Y-84500000D01*
G75*
G02*
X95560000Y-84325000I175000J0D01*
G01*
X97360000Y-84325000D01*
G75*
G02*
X97535000Y-84500000I0J-175000D01*
G01*
G37*
G36*
G01*
X97535000Y-83230000D02*
X97535000Y-83580000D01*
G75*
G02*
X97360000Y-83755000I-175000J0D01*
G01*
X95560000Y-83755000D01*
G75*
G02*
X95385000Y-83580000I0J175000D01*
G01*
X95385000Y-83230000D01*
G75*
G02*
X95560000Y-83055000I175000J0D01*
G01*
X97360000Y-83055000D01*
G75*
G02*
X97535000Y-83230000I0J-175000D01*
G01*
G37*
G36*
G01*
X97535000Y-81960000D02*
X97535000Y-82310000D01*
G75*
G02*
X97360000Y-82485000I-175000J0D01*
G01*
X95560000Y-82485000D01*
G75*
G02*
X95385000Y-82310000I0J175000D01*
G01*
X95385000Y-81960000D01*
G75*
G02*
X95560000Y-81785000I175000J0D01*
G01*
X97360000Y-81785000D01*
G75*
G02*
X97535000Y-81960000I0J-175000D01*
G01*
G37*
G36*
G01*
X97535000Y-80690000D02*
X97535000Y-81040000D01*
G75*
G02*
X97360000Y-81215000I-175000J0D01*
G01*
X95560000Y-81215000D01*
G75*
G02*
X95385000Y-81040000I0J175000D01*
G01*
X95385000Y-80690000D01*
G75*
G02*
X95560000Y-80515000I175000J0D01*
G01*
X97360000Y-80515000D01*
G75*
G02*
X97535000Y-80690000I0J-175000D01*
G01*
G37*
G36*
G01*
X97535000Y-79420000D02*
X97535000Y-79770000D01*
G75*
G02*
X97360000Y-79945000I-175000J0D01*
G01*
X95560000Y-79945000D01*
G75*
G02*
X95385000Y-79770000I0J175000D01*
G01*
X95385000Y-79420000D01*
G75*
G02*
X95560000Y-79245000I175000J0D01*
G01*
X97360000Y-79245000D01*
G75*
G02*
X97535000Y-79420000I0J-175000D01*
G01*
G37*
G36*
G01*
X106835000Y-79420000D02*
X106835000Y-79770000D01*
G75*
G02*
X106660000Y-79945000I-175000J0D01*
G01*
X104860000Y-79945000D01*
G75*
G02*
X104685000Y-79770000I0J175000D01*
G01*
X104685000Y-79420000D01*
G75*
G02*
X104860000Y-79245000I175000J0D01*
G01*
X106660000Y-79245000D01*
G75*
G02*
X106835000Y-79420000I0J-175000D01*
G01*
G37*
G36*
G01*
X106835000Y-80690000D02*
X106835000Y-81040000D01*
G75*
G02*
X106660000Y-81215000I-175000J0D01*
G01*
X104860000Y-81215000D01*
G75*
G02*
X104685000Y-81040000I0J175000D01*
G01*
X104685000Y-80690000D01*
G75*
G02*
X104860000Y-80515000I175000J0D01*
G01*
X106660000Y-80515000D01*
G75*
G02*
X106835000Y-80690000I0J-175000D01*
G01*
G37*
G36*
G01*
X106835000Y-81960000D02*
X106835000Y-82310000D01*
G75*
G02*
X106660000Y-82485000I-175000J0D01*
G01*
X104860000Y-82485000D01*
G75*
G02*
X104685000Y-82310000I0J175000D01*
G01*
X104685000Y-81960000D01*
G75*
G02*
X104860000Y-81785000I175000J0D01*
G01*
X106660000Y-81785000D01*
G75*
G02*
X106835000Y-81960000I0J-175000D01*
G01*
G37*
G36*
G01*
X106835000Y-83230000D02*
X106835000Y-83580000D01*
G75*
G02*
X106660000Y-83755000I-175000J0D01*
G01*
X104860000Y-83755000D01*
G75*
G02*
X104685000Y-83580000I0J175000D01*
G01*
X104685000Y-83230000D01*
G75*
G02*
X104860000Y-83055000I175000J0D01*
G01*
X106660000Y-83055000D01*
G75*
G02*
X106835000Y-83230000I0J-175000D01*
G01*
G37*
G36*
G01*
X106835000Y-84500000D02*
X106835000Y-84850000D01*
G75*
G02*
X106660000Y-85025000I-175000J0D01*
G01*
X104860000Y-85025000D01*
G75*
G02*
X104685000Y-84850000I0J175000D01*
G01*
X104685000Y-84500000D01*
G75*
G02*
X104860000Y-84325000I175000J0D01*
G01*
X106660000Y-84325000D01*
G75*
G02*
X106835000Y-84500000I0J-175000D01*
G01*
G37*
G36*
G01*
X106835000Y-85770000D02*
X106835000Y-86120000D01*
G75*
G02*
X106660000Y-86295000I-175000J0D01*
G01*
X104860000Y-86295000D01*
G75*
G02*
X104685000Y-86120000I0J175000D01*
G01*
X104685000Y-85770000D01*
G75*
G02*
X104860000Y-85595000I175000J0D01*
G01*
X106660000Y-85595000D01*
G75*
G02*
X106835000Y-85770000I0J-175000D01*
G01*
G37*
G36*
G01*
X106835000Y-87040000D02*
X106835000Y-87390000D01*
G75*
G02*
X106660000Y-87565000I-175000J0D01*
G01*
X104860000Y-87565000D01*
G75*
G02*
X104685000Y-87390000I0J175000D01*
G01*
X104685000Y-87040000D01*
G75*
G02*
X104860000Y-86865000I175000J0D01*
G01*
X106660000Y-86865000D01*
G75*
G02*
X106835000Y-87040000I0J-175000D01*
G01*
G37*
G36*
G01*
X106835000Y-88310000D02*
X106835000Y-88660000D01*
G75*
G02*
X106660000Y-88835000I-175000J0D01*
G01*
X104860000Y-88835000D01*
G75*
G02*
X104685000Y-88660000I0J175000D01*
G01*
X104685000Y-88310000D01*
G75*
G02*
X104860000Y-88135000I175000J0D01*
G01*
X106660000Y-88135000D01*
G75*
G02*
X106835000Y-88310000I0J-175000D01*
G01*
G37*
G36*
G01*
X106835000Y-89580000D02*
X106835000Y-89930000D01*
G75*
G02*
X106660000Y-90105000I-175000J0D01*
G01*
X104860000Y-90105000D01*
G75*
G02*
X104685000Y-89930000I0J175000D01*
G01*
X104685000Y-89580000D01*
G75*
G02*
X104860000Y-89405000I175000J0D01*
G01*
X106660000Y-89405000D01*
G75*
G02*
X106835000Y-89580000I0J-175000D01*
G01*
G37*
G36*
G01*
X106835000Y-90850000D02*
X106835000Y-91200000D01*
G75*
G02*
X106660000Y-91375000I-175000J0D01*
G01*
X104860000Y-91375000D01*
G75*
G02*
X104685000Y-91200000I0J175000D01*
G01*
X104685000Y-90850000D01*
G75*
G02*
X104860000Y-90675000I175000J0D01*
G01*
X106660000Y-90675000D01*
G75*
G02*
X106835000Y-90850000I0J-175000D01*
G01*
G37*
D35*
X133000000Y-74070000D03*
X133000000Y-75020000D03*
X133000000Y-73120000D03*
X135200000Y-73120000D03*
X135200000Y-74070000D03*
X135200000Y-75020000D03*
D36*
X90560000Y-95110000D03*
X90560000Y-96410000D03*
X88660000Y-95760000D03*
X88660000Y-96410000D03*
X88660000Y-95110000D03*
D37*
X149730000Y-96860000D03*
X149730000Y-99400000D03*
D38*
X149730000Y-101940000D03*
D39*
X166390000Y-99400000D03*
D40*
X155050000Y-91920000D03*
X155050000Y-96520000D03*
X155050000Y-94220000D03*
D41*
X161350000Y-94220000D03*
D42*
X102370000Y-100150000D03*
X102370000Y-97950000D03*
X100670000Y-97950000D03*
X100670000Y-100150000D03*
D43*
X112710000Y-92000000D03*
X112710000Y-90600000D03*
D42*
X108230000Y-72110000D03*
X108230000Y-74310000D03*
X106530000Y-74310000D03*
X106530000Y-72110000D03*
G36*
G01*
X122532830Y-67795320D02*
X123095330Y-67795320D01*
G75*
G02*
X123339080Y-68039070I0J-243750D01*
G01*
X123339080Y-68526570D01*
G75*
G02*
X123095330Y-68770320I-243750J0D01*
G01*
X122532830Y-68770320D01*
G75*
G02*
X122289080Y-68526570I0J243750D01*
G01*
X122289080Y-68039070D01*
G75*
G02*
X122532830Y-67795320I243750J0D01*
G01*
G37*
G36*
G01*
X122532830Y-66220320D02*
X123095330Y-66220320D01*
G75*
G02*
X123339080Y-66464070I0J-243750D01*
G01*
X123339080Y-66951570D01*
G75*
G02*
X123095330Y-67195320I-243750J0D01*
G01*
X122532830Y-67195320D01*
G75*
G02*
X122289080Y-66951570I0J243750D01*
G01*
X122289080Y-66464070D01*
G75*
G02*
X122532830Y-66220320I243750J0D01*
G01*
G37*
G36*
G01*
X128311020Y-74367970D02*
X128311020Y-73805470D01*
G75*
G02*
X128554770Y-73561720I243750J0D01*
G01*
X129042270Y-73561720D01*
G75*
G02*
X129286020Y-73805470I0J-243750D01*
G01*
X129286020Y-74367970D01*
G75*
G02*
X129042270Y-74611720I-243750J0D01*
G01*
X128554770Y-74611720D01*
G75*
G02*
X128311020Y-74367970I0J243750D01*
G01*
G37*
G36*
G01*
X126736020Y-74367970D02*
X126736020Y-73805470D01*
G75*
G02*
X126979770Y-73561720I243750J0D01*
G01*
X127467270Y-73561720D01*
G75*
G02*
X127711020Y-73805470I0J-243750D01*
G01*
X127711020Y-74367970D01*
G75*
G02*
X127467270Y-74611720I-243750J0D01*
G01*
X126979770Y-74611720D01*
G75*
G02*
X126736020Y-74367970I0J243750D01*
G01*
G37*
G36*
G01*
X126741100Y-73011610D02*
X126741100Y-72449110D01*
G75*
G02*
X126984850Y-72205360I243750J0D01*
G01*
X127472350Y-72205360D01*
G75*
G02*
X127716100Y-72449110I0J-243750D01*
G01*
X127716100Y-73011610D01*
G75*
G02*
X127472350Y-73255360I-243750J0D01*
G01*
X126984850Y-73255360D01*
G75*
G02*
X126741100Y-73011610I0J243750D01*
G01*
G37*
G36*
G01*
X128316100Y-73011610D02*
X128316100Y-72449110D01*
G75*
G02*
X128559850Y-72205360I243750J0D01*
G01*
X129047350Y-72205360D01*
G75*
G02*
X129291100Y-72449110I0J-243750D01*
G01*
X129291100Y-73011610D01*
G75*
G02*
X129047350Y-73255360I-243750J0D01*
G01*
X128559850Y-73255360D01*
G75*
G02*
X128316100Y-73011610I0J243750D01*
G01*
G37*
G36*
G01*
X139545750Y-73566300D02*
X140108250Y-73566300D01*
G75*
G02*
X140352000Y-73810050I0J-243750D01*
G01*
X140352000Y-74297550D01*
G75*
G02*
X140108250Y-74541300I-243750J0D01*
G01*
X139545750Y-74541300D01*
G75*
G02*
X139302000Y-74297550I0J243750D01*
G01*
X139302000Y-73810050D01*
G75*
G02*
X139545750Y-73566300I243750J0D01*
G01*
G37*
G36*
G01*
X139545750Y-71991300D02*
X140108250Y-71991300D01*
G75*
G02*
X140352000Y-72235050I0J-243750D01*
G01*
X140352000Y-72722550D01*
G75*
G02*
X140108250Y-72966300I-243750J0D01*
G01*
X139545750Y-72966300D01*
G75*
G02*
X139302000Y-72722550I0J243750D01*
G01*
X139302000Y-72235050D01*
G75*
G02*
X139545750Y-71991300I243750J0D01*
G01*
G37*
G36*
G01*
X137907450Y-71991400D02*
X138469950Y-71991400D01*
G75*
G02*
X138713700Y-72235150I0J-243750D01*
G01*
X138713700Y-72722650D01*
G75*
G02*
X138469950Y-72966400I-243750J0D01*
G01*
X137907450Y-72966400D01*
G75*
G02*
X137663700Y-72722650I0J243750D01*
G01*
X137663700Y-72235150D01*
G75*
G02*
X137907450Y-71991400I243750J0D01*
G01*
G37*
G36*
G01*
X137907450Y-73566400D02*
X138469950Y-73566400D01*
G75*
G02*
X138713700Y-73810150I0J-243750D01*
G01*
X138713700Y-74297650D01*
G75*
G02*
X138469950Y-74541400I-243750J0D01*
G01*
X137907450Y-74541400D01*
G75*
G02*
X137663700Y-74297650I0J243750D01*
G01*
X137663700Y-73810150D01*
G75*
G02*
X137907450Y-73566400I243750J0D01*
G01*
G37*
G36*
G01*
X107294600Y-102522710D02*
X107294600Y-103085210D01*
G75*
G02*
X107050850Y-103328960I-243750J0D01*
G01*
X106563350Y-103328960D01*
G75*
G02*
X106319600Y-103085210I0J243750D01*
G01*
X106319600Y-102522710D01*
G75*
G02*
X106563350Y-102278960I243750J0D01*
G01*
X107050850Y-102278960D01*
G75*
G02*
X107294600Y-102522710I0J-243750D01*
G01*
G37*
G36*
G01*
X105719600Y-102522710D02*
X105719600Y-103085210D01*
G75*
G02*
X105475850Y-103328960I-243750J0D01*
G01*
X104988350Y-103328960D01*
G75*
G02*
X104744600Y-103085210I0J243750D01*
G01*
X104744600Y-102522710D01*
G75*
G02*
X104988350Y-102278960I243750J0D01*
G01*
X105475850Y-102278960D01*
G75*
G02*
X105719600Y-102522710I0J-243750D01*
G01*
G37*
G36*
G01*
X119338920Y-103327820D02*
X119338920Y-103722820D01*
G75*
G02*
X119166420Y-103895320I-172500J0D01*
G01*
X118821420Y-103895320D01*
G75*
G02*
X118648920Y-103722820I0J172500D01*
G01*
X118648920Y-103327820D01*
G75*
G02*
X118821420Y-103155320I172500J0D01*
G01*
X119166420Y-103155320D01*
G75*
G02*
X119338920Y-103327820I0J-172500D01*
G01*
G37*
G36*
G01*
X118368920Y-103327820D02*
X118368920Y-103722820D01*
G75*
G02*
X118196420Y-103895320I-172500J0D01*
G01*
X117851420Y-103895320D01*
G75*
G02*
X117678920Y-103722820I0J172500D01*
G01*
X117678920Y-103327820D01*
G75*
G02*
X117851420Y-103155320I172500J0D01*
G01*
X118196420Y-103155320D01*
G75*
G02*
X118368920Y-103327820I0J-172500D01*
G01*
G37*
G36*
G01*
X126380860Y-102725520D02*
X126775860Y-102725520D01*
G75*
G02*
X126948360Y-102898020I0J-172500D01*
G01*
X126948360Y-103243020D01*
G75*
G02*
X126775860Y-103415520I-172500J0D01*
G01*
X126380860Y-103415520D01*
G75*
G02*
X126208360Y-103243020I0J172500D01*
G01*
X126208360Y-102898020D01*
G75*
G02*
X126380860Y-102725520I172500J0D01*
G01*
G37*
G36*
G01*
X126380860Y-101755520D02*
X126775860Y-101755520D01*
G75*
G02*
X126948360Y-101928020I0J-172500D01*
G01*
X126948360Y-102273020D01*
G75*
G02*
X126775860Y-102445520I-172500J0D01*
G01*
X126380860Y-102445520D01*
G75*
G02*
X126208360Y-102273020I0J172500D01*
G01*
X126208360Y-101928020D01*
G75*
G02*
X126380860Y-101755520I172500J0D01*
G01*
G37*
G36*
G01*
X127837580Y-103415520D02*
X127442580Y-103415520D01*
G75*
G02*
X127270080Y-103243020I0J172500D01*
G01*
X127270080Y-102898020D01*
G75*
G02*
X127442580Y-102725520I172500J0D01*
G01*
X127837580Y-102725520D01*
G75*
G02*
X128010080Y-102898020I0J-172500D01*
G01*
X128010080Y-103243020D01*
G75*
G02*
X127837580Y-103415520I-172500J0D01*
G01*
G37*
G36*
G01*
X127837580Y-102445520D02*
X127442580Y-102445520D01*
G75*
G02*
X127270080Y-102273020I0J172500D01*
G01*
X127270080Y-101928020D01*
G75*
G02*
X127442580Y-101755520I172500J0D01*
G01*
X127837580Y-101755520D01*
G75*
G02*
X128010080Y-101928020I0J-172500D01*
G01*
X128010080Y-102273020D01*
G75*
G02*
X127837580Y-102445520I-172500J0D01*
G01*
G37*
G36*
G01*
X132240710Y-104119760D02*
X132803210Y-104119760D01*
G75*
G02*
X133046960Y-104363510I0J-243750D01*
G01*
X133046960Y-104851010D01*
G75*
G02*
X132803210Y-105094760I-243750J0D01*
G01*
X132240710Y-105094760D01*
G75*
G02*
X131996960Y-104851010I0J243750D01*
G01*
X131996960Y-104363510D01*
G75*
G02*
X132240710Y-104119760I243750J0D01*
G01*
G37*
G36*
G01*
X132240710Y-105694760D02*
X132803210Y-105694760D01*
G75*
G02*
X133046960Y-105938510I0J-243750D01*
G01*
X133046960Y-106426010D01*
G75*
G02*
X132803210Y-106669760I-243750J0D01*
G01*
X132240710Y-106669760D01*
G75*
G02*
X131996960Y-106426010I0J243750D01*
G01*
X131996960Y-105938510D01*
G75*
G02*
X132240710Y-105694760I243750J0D01*
G01*
G37*
G36*
G01*
X133851070Y-105694760D02*
X134413570Y-105694760D01*
G75*
G02*
X134657320Y-105938510I0J-243750D01*
G01*
X134657320Y-106426010D01*
G75*
G02*
X134413570Y-106669760I-243750J0D01*
G01*
X133851070Y-106669760D01*
G75*
G02*
X133607320Y-106426010I0J243750D01*
G01*
X133607320Y-105938510D01*
G75*
G02*
X133851070Y-105694760I243750J0D01*
G01*
G37*
G36*
G01*
X133851070Y-104119760D02*
X134413570Y-104119760D01*
G75*
G02*
X134657320Y-104363510I0J-243750D01*
G01*
X134657320Y-104851010D01*
G75*
G02*
X134413570Y-105094760I-243750J0D01*
G01*
X133851070Y-105094760D01*
G75*
G02*
X133607320Y-104851010I0J243750D01*
G01*
X133607320Y-104363510D01*
G75*
G02*
X133851070Y-104119760I243750J0D01*
G01*
G37*
G36*
G01*
X135486830Y-104119660D02*
X136049330Y-104119660D01*
G75*
G02*
X136293080Y-104363410I0J-243750D01*
G01*
X136293080Y-104850910D01*
G75*
G02*
X136049330Y-105094660I-243750J0D01*
G01*
X135486830Y-105094660D01*
G75*
G02*
X135243080Y-104850910I0J243750D01*
G01*
X135243080Y-104363410D01*
G75*
G02*
X135486830Y-104119660I243750J0D01*
G01*
G37*
G36*
G01*
X135486830Y-105694660D02*
X136049330Y-105694660D01*
G75*
G02*
X136293080Y-105938410I0J-243750D01*
G01*
X136293080Y-106425910D01*
G75*
G02*
X136049330Y-106669660I-243750J0D01*
G01*
X135486830Y-106669660D01*
G75*
G02*
X135243080Y-106425910I0J243750D01*
G01*
X135243080Y-105938410D01*
G75*
G02*
X135486830Y-105694660I243750J0D01*
G01*
G37*
G36*
G01*
X138687230Y-105664280D02*
X139249730Y-105664280D01*
G75*
G02*
X139493480Y-105908030I0J-243750D01*
G01*
X139493480Y-106395530D01*
G75*
G02*
X139249730Y-106639280I-243750J0D01*
G01*
X138687230Y-106639280D01*
G75*
G02*
X138443480Y-106395530I0J243750D01*
G01*
X138443480Y-105908030D01*
G75*
G02*
X138687230Y-105664280I243750J0D01*
G01*
G37*
G36*
G01*
X138687230Y-104089280D02*
X139249730Y-104089280D01*
G75*
G02*
X139493480Y-104333030I0J-243750D01*
G01*
X139493480Y-104820530D01*
G75*
G02*
X139249730Y-105064280I-243750J0D01*
G01*
X138687230Y-105064280D01*
G75*
G02*
X138443480Y-104820530I0J243750D01*
G01*
X138443480Y-104333030D01*
G75*
G02*
X138687230Y-104089280I243750J0D01*
G01*
G37*
G36*
G01*
X140287430Y-105679620D02*
X140849930Y-105679620D01*
G75*
G02*
X141093680Y-105923370I0J-243750D01*
G01*
X141093680Y-106410870D01*
G75*
G02*
X140849930Y-106654620I-243750J0D01*
G01*
X140287430Y-106654620D01*
G75*
G02*
X140043680Y-106410870I0J243750D01*
G01*
X140043680Y-105923370D01*
G75*
G02*
X140287430Y-105679620I243750J0D01*
G01*
G37*
G36*
G01*
X140287430Y-104104620D02*
X140849930Y-104104620D01*
G75*
G02*
X141093680Y-104348370I0J-243750D01*
G01*
X141093680Y-104835870D01*
G75*
G02*
X140849930Y-105079620I-243750J0D01*
G01*
X140287430Y-105079620D01*
G75*
G02*
X140043680Y-104835870I0J243750D01*
G01*
X140043680Y-104348370D01*
G75*
G02*
X140287430Y-104104620I243750J0D01*
G01*
G37*
G36*
G01*
X137097190Y-104094460D02*
X137659690Y-104094460D01*
G75*
G02*
X137903440Y-104338210I0J-243750D01*
G01*
X137903440Y-104825710D01*
G75*
G02*
X137659690Y-105069460I-243750J0D01*
G01*
X137097190Y-105069460D01*
G75*
G02*
X136853440Y-104825710I0J243750D01*
G01*
X136853440Y-104338210D01*
G75*
G02*
X137097190Y-104094460I243750J0D01*
G01*
G37*
G36*
G01*
X137097190Y-105669460D02*
X137659690Y-105669460D01*
G75*
G02*
X137903440Y-105913210I0J-243750D01*
G01*
X137903440Y-106400710D01*
G75*
G02*
X137659690Y-106644460I-243750J0D01*
G01*
X137097190Y-106644460D01*
G75*
G02*
X136853440Y-106400710I0J243750D01*
G01*
X136853440Y-105913210D01*
G75*
G02*
X137097190Y-105669460I243750J0D01*
G01*
G37*
G36*
G01*
X170890510Y-93728360D02*
X170328010Y-93728360D01*
G75*
G02*
X170084260Y-93484610I0J243750D01*
G01*
X170084260Y-92997110D01*
G75*
G02*
X170328010Y-92753360I243750J0D01*
G01*
X170890510Y-92753360D01*
G75*
G02*
X171134260Y-92997110I0J-243750D01*
G01*
X171134260Y-93484610D01*
G75*
G02*
X170890510Y-93728360I-243750J0D01*
G01*
G37*
G36*
G01*
X170890510Y-92153360D02*
X170328010Y-92153360D01*
G75*
G02*
X170084260Y-91909610I0J243750D01*
G01*
X170084260Y-91422110D01*
G75*
G02*
X170328010Y-91178360I243750J0D01*
G01*
X170890510Y-91178360D01*
G75*
G02*
X171134260Y-91422110I0J-243750D01*
G01*
X171134260Y-91909610D01*
G75*
G02*
X170890510Y-92153360I-243750J0D01*
G01*
G37*
G36*
G01*
X170890510Y-89125780D02*
X170328010Y-89125780D01*
G75*
G02*
X170084260Y-88882030I0J243750D01*
G01*
X170084260Y-88394530D01*
G75*
G02*
X170328010Y-88150780I243750J0D01*
G01*
X170890510Y-88150780D01*
G75*
G02*
X171134260Y-88394530I0J-243750D01*
G01*
X171134260Y-88882030D01*
G75*
G02*
X170890510Y-89125780I-243750J0D01*
G01*
G37*
G36*
G01*
X170890510Y-90700780D02*
X170328010Y-90700780D01*
G75*
G02*
X170084260Y-90457030I0J243750D01*
G01*
X170084260Y-89969530D01*
G75*
G02*
X170328010Y-89725780I243750J0D01*
G01*
X170890510Y-89725780D01*
G75*
G02*
X171134260Y-89969530I0J-243750D01*
G01*
X171134260Y-90457030D01*
G75*
G02*
X170890510Y-90700780I-243750J0D01*
G01*
G37*
G36*
G01*
X82471250Y-69682500D02*
X81908750Y-69682500D01*
G75*
G02*
X81665000Y-69438750I0J243750D01*
G01*
X81665000Y-68951250D01*
G75*
G02*
X81908750Y-68707500I243750J0D01*
G01*
X82471250Y-68707500D01*
G75*
G02*
X82715000Y-68951250I0J-243750D01*
G01*
X82715000Y-69438750D01*
G75*
G02*
X82471250Y-69682500I-243750J0D01*
G01*
G37*
G36*
G01*
X82471250Y-68107500D02*
X81908750Y-68107500D01*
G75*
G02*
X81665000Y-67863750I0J243750D01*
G01*
X81665000Y-67376250D01*
G75*
G02*
X81908750Y-67132500I243750J0D01*
G01*
X82471250Y-67132500D01*
G75*
G02*
X82715000Y-67376250I0J-243750D01*
G01*
X82715000Y-67863750D01*
G75*
G02*
X82471250Y-68107500I-243750J0D01*
G01*
G37*
D44*
X133410960Y-67270360D03*
X133410960Y-70570360D03*
X120690640Y-77883480D03*
X120690640Y-81183480D03*
X144292320Y-70509400D03*
X144292320Y-67209400D03*
M02*
