G04 #@! TF.GenerationSoftware,KiCad,Pcbnew,(5.1.6)-1*
G04 #@! TF.CreationDate,2022-01-03T12:18:26+01:00*
G04 #@! TF.ProjectId,CURSO_PCB_DRONE,43555253-4f5f-4504-9342-5f44524f4e45,rev?*
G04 #@! TF.SameCoordinates,Original*
G04 #@! TF.FileFunction,Legend,Bot*
G04 #@! TF.FilePolarity,Positive*
%FSLAX46Y46*%
G04 Gerber Fmt 4.6, Leading zero omitted, Abs format (unit mm)*
G04 Created by KiCad (PCBNEW (5.1.6)-1) date 2022-01-03 12:18:26*
%MOMM*%
%LPD*%
G01*
G04 APERTURE LIST*
%ADD10C,0.120000*%
%ADD11C,1.252000*%
%ADD12C,3.300000*%
%ADD13C,0.700000*%
%ADD14O,1.200000X2.500000*%
%ADD15C,5.600000*%
%ADD16O,1.800000X1.800000*%
%ADD17R,1.800000X1.800000*%
%ADD18C,1.600000*%
%ADD19C,2.462200*%
%ADD20C,2.652700*%
%ADD21C,5.616000*%
%ADD22R,5.616000X5.616000*%
%ADD23C,2.100000*%
%ADD24C,2.000000*%
%ADD25R,2.000000X2.000000*%
%ADD26O,2.100000X2.005000*%
%ADD27R,2.100000X2.005000*%
%ADD28O,3.600000X3.600000*%
G04 APERTURE END LIST*
D10*
X153420000Y-96860000D02*
X150880000Y-96860000D01*
X153420000Y-99400000D02*
X150880000Y-99400000D01*
X153420000Y-101940000D02*
X150880000Y-101940000D01*
X169310000Y-94280000D02*
X153420000Y-94280000D01*
X169310000Y-104520000D02*
X153420000Y-104520000D01*
X169310000Y-104520000D02*
X169310000Y-94280000D01*
X153420000Y-104520000D02*
X153420000Y-94280000D01*
%LPC*%
D11*
X85125560Y-71749920D03*
X84632800Y-102905560D03*
X179044600Y-69469000D03*
D12*
X143340240Y-99348360D03*
X143340240Y-79348360D03*
X179348240Y-104598360D03*
X179348240Y-74098360D03*
X82340240Y-73848360D03*
X82340240Y-104848360D03*
D13*
X136780000Y-69410000D03*
X140780000Y-69410000D03*
D14*
X135955000Y-67310000D03*
X141605000Y-67310000D03*
X130845000Y-67360000D03*
X125195000Y-67360000D03*
D13*
X130020000Y-69460000D03*
X126020000Y-69460000D03*
D15*
X150703280Y-110058200D03*
X150510240Y-68742560D03*
X166400480Y-110042960D03*
X166364920Y-68737480D03*
X173868080Y-68722240D03*
X173908720Y-110058200D03*
X158190000Y-110040000D03*
X158020000Y-68750000D03*
D16*
X109950000Y-84260000D03*
X112490000Y-84260000D03*
X115030000Y-84260000D03*
D17*
X117570000Y-84260000D03*
D16*
X81445100Y-94576900D03*
X83985100Y-94576900D03*
X81445100Y-97116900D03*
X83985100Y-97116900D03*
X81445100Y-99656900D03*
D17*
X83985100Y-99656900D03*
D18*
X142860000Y-93190000D03*
X142860000Y-90650000D03*
X142860000Y-88110000D03*
X142860000Y-85570000D03*
D12*
X143360000Y-99380000D03*
X143360000Y-79380000D03*
X166360000Y-79380000D03*
X166360000Y-99380000D03*
D16*
X116550000Y-112100000D03*
X119090000Y-112100000D03*
X121630000Y-112100000D03*
D17*
X124170000Y-112100000D03*
X114990880Y-87050880D03*
D16*
X112450880Y-87050880D03*
X109910880Y-87050880D03*
X135686800Y-91516200D03*
X138226800Y-91516200D03*
X135686800Y-94056200D03*
X138226800Y-94056200D03*
X135686800Y-96596200D03*
X138226800Y-96596200D03*
X135686800Y-99136200D03*
D17*
X138226800Y-99136200D03*
D16*
X116580000Y-109500000D03*
X119120000Y-109500000D03*
X121660000Y-109500000D03*
X124200000Y-109500000D03*
X126740000Y-109500000D03*
D17*
X129280000Y-109500000D03*
X133101080Y-80848200D03*
D16*
X135641080Y-80848200D03*
X138181080Y-80848200D03*
D17*
X133101080Y-86166960D03*
D16*
X135641080Y-86166960D03*
X138181080Y-86166960D03*
X126842520Y-112100360D03*
X129382520Y-112100360D03*
X131922520Y-112100360D03*
X134462520Y-112100360D03*
X137002520Y-112100360D03*
D17*
X139542520Y-112100360D03*
D16*
X133035040Y-99115880D03*
X133035040Y-96575880D03*
X133035040Y-94035880D03*
D17*
X133035040Y-91495880D03*
D16*
X138186160Y-83510120D03*
X135646160Y-83510120D03*
D17*
X133106160Y-83510120D03*
D16*
X138176000Y-88828880D03*
X135636000Y-88828880D03*
D17*
X133096000Y-88828880D03*
D19*
X90880000Y-71170000D03*
D20*
X93420000Y-68630000D03*
X88340000Y-68630000D03*
X88340000Y-73710000D03*
X93420000Y-73710000D03*
D21*
X177620000Y-93290000D03*
D22*
X177620000Y-86090000D03*
D23*
X111180000Y-105930000D03*
X111180000Y-112430000D03*
X107447080Y-105949680D03*
X107447080Y-112449680D03*
X144030000Y-105880000D03*
X144030000Y-112380000D03*
D24*
X150204800Y-75133200D03*
X152704800Y-75133200D03*
D25*
X155204800Y-75133200D03*
D26*
X149730000Y-96860000D03*
X149730000Y-99400000D03*
D27*
X149730000Y-101940000D03*
D28*
X166390000Y-99400000D03*
M02*
