M48
; DRILL file {KiCad (5.1.6)-1} date 01/03/22 12:18:29
; FORMAT={-:-/ absolute / metric / decimal}
; #@! TF.CreationDate,2022-01-03T12:18:29+01:00
; #@! TF.GenerationSoftware,Kicad,Pcbnew,(5.1.6)-1
; #@! TF.FileFunction,Plated,1,4,PTH
FMAT,2
METRIC
T1C0.300
T2C0.600
T3C0.900
T4C1.000
T5C1.100
T6C1.300
T7C1.575
T8C1.702
T9C3.500
T10C4.500
%
G90
G05
T1
X82.017Y-108.168
X82.199Y-69.957
X82.614Y-79.388
X82.614Y-91.084
X83.678Y-108.168
X83.942Y-70.216
X84.2Y-85.13
X84.24Y-82.91
X85.308Y-108.163
X85.382Y-77.964
X86.23Y-82.91
X86.25Y-85.14
X86.77Y-102.42
X86.79Y-101.25
X86.862Y-77.354
X86.863Y-78.064
X87.02Y-108.168
X87.452Y-104.102
X87.85Y-102.41
X87.89Y-101.27
X88.342Y-77.954
X89.25Y-96.41
X89.713Y-98.146
X90.856Y-73.711
X90.945Y-91.021
X90.957Y-79.438
X90.995Y-76.429
X91.02Y-103.89
X91.19Y-95.12
X91.351Y-100.673
X91.84Y-96.65
X92.36Y-98.139
X93.015Y-76.403
X93.04Y-108.742
X93.823Y-108.742
X94.63Y-112.166
X94.653Y-97.866
X95.123Y-72.276
X95.199Y-70.079
X95.313Y-75.248
X95.313Y-76.391
X95.514Y-93.223
X95.974Y-69.291
X96.253Y-72.034
X96.46Y-91.805
X96.761Y-66.739
X96.774Y-68.466
X96.81Y-73.97
X96.82Y-75.11
X97.003Y-72.911
X97.193Y-71.171
X97.353Y-110.383
X97.41Y-103.09
X97.43Y-104.68
X97.523Y-76.606
X97.752Y-89.764
X97.95Y-75.1
X97.98Y-73.97
X97.98Y-66.713
X98.006Y-68.389
X98.146Y-70.472
X98.247Y-88.506
X98.268Y-109.276
X98.512Y-99.82
X98.73Y-71.679
X99.46Y-102.28
X99.504Y-66.713
X99.54Y-103.88
X99.595Y-97.384
X99.598Y-95.54
X99.67Y-77.838
X99.822Y-106.274
X99.835Y-76.238
X99.962Y-72.517
X100.127Y-70.409
X100.533Y-77.889
X100.661Y-99.226
X101.079Y-66.7
X101.142Y-72.042
X101.625Y-96.901
X101.689Y-95.542
X101.977Y-92.389
X102.362Y-98.92
X102.464Y-66.675
X102.705Y-113.03
X102.811Y-101.328
X102.832Y-92.926
X103.351Y-99.166
X103.441Y-111.277
X103.746Y-85.954
X103.748Y-73.001
X103.797Y-95.542
X104.127Y-92.939
X104.457Y-83.388
X104.534Y-101.346
X104.55Y-74.8
X104.56Y-96.305
X104.56Y-97.7
X104.624Y-72.125
X104.915Y-77.14
X104.927Y-78.27
X105.169Y-68.402
X105.194Y-67.323
X105.372Y-71.374
X105.486Y-75.603
X105.613Y-70.218
X106.02Y-76.543
X106.502Y-75.209
X106.718Y-75.921
X107.099Y-79.566
X107.112Y-80.848
X107.277Y-77.114
X107.29Y-107.226
X107.4Y-69.79
X108.013Y-70.485
X108.242Y-73.063
X108.361Y-95.309
X108.361Y-96.613
X108.361Y-97.773
X108.361Y-89.936
X108.361Y-91.15
X108.361Y-92.365
X108.372Y-93.868
X108.372Y-99.278
X109.385Y-77.064
X109.398Y-72.898
X109.398Y-74.676
X109.398Y-76.213
X109.41Y-70.663
X109.677Y-90.602
X109.69Y-91.999
X109.804Y-93.154
X109.855Y-95.072
X109.88Y-96.837
X110.503Y-65.761
X110.503Y-67.081
X110.515Y-70.637
X110.515Y-74.701
X110.528Y-68.364
X110.528Y-69.621
X110.541Y-72.898
X110.541Y-75.857
X110.541Y-77.089
X110.579Y-71.819
X110.579Y-73.812
X110.579Y-89.954
X110.866Y-101.392
X111.023Y-99.285
X112.382Y-66.637
X112.49Y-79.67
X112.537Y-101.991
X112.979Y-65.954
X113.005Y-103.607
X113.122Y-99.285
X113.589Y-101.971
X113.614Y-96.296
X113.614Y-97.942
X113.83Y-79.94
X114.474Y-91.586
X114.483Y-89.916
X114.59Y-95.915
X114.595Y-105.004
X114.998Y-97.942
X115.7Y-89.86
X115.748Y-77.787
X115.77Y-92.01
X115.837Y-76.492
X116.154Y-79.032
X116.18Y-68.91
X116.38Y-89.34
X117.49Y-103.515
X117.59Y-90.31
X117.81Y-99.985
X117.818Y-67.92
X117.88Y-89.44
X118.54Y-91.64
X118.952Y-100.461
X119.385Y-89.134
X119.563Y-103.546
X119.649Y-93.843
X120.405Y-92.141
X120.465Y-99.804
X120.645Y-78.618
X120.665Y-77.16
X120.79Y-75.209
X120.919Y-100.432
X121.112Y-94.29
X121.129Y-95.051
X121.149Y-95.808
X121.153Y-72.527
X121.163Y-65.984
X121.165Y-96.57
X121.534Y-82.545
X122.094Y-99.051
X122.672Y-99.695
X122.801Y-65.997
X122.829Y-72.532
X123.16Y-87.727
X123.165Y-88.803
X124.878Y-96.267
X125.07Y-100.615
X125.395Y-97.0
X125.485Y-80.839
X125.679Y-78.473
X125.908Y-102.027
X125.978Y-93.762
X126.04Y-91.918
X126.238Y-70.383
X126.238Y-71.171
X126.335Y-92.949
X126.594Y-103.642
X126.975Y-79.756
X127.655Y-103.662
X127.69Y-92.04
X128.37Y-90.51
X128.816Y-76.657
X132.055Y-76.556
X132.22Y-74.079
X132.512Y-103.789
X132.522Y-110.226
X133.388Y-66.573
X133.401Y-67.945
X134.132Y-103.795
X134.132Y-110.226
X135.753Y-110.231
X135.768Y-103.795
X136.017Y-74.079
X136.982Y-71.158
X136.995Y-70.358
X137.378Y-103.789
X138.979Y-103.789
X139.258Y-93.015
X140.569Y-103.8
X140.58Y-96.083
X140.635Y-110.251
X142.484Y-104.15
X142.89Y-72.807
X142.89Y-73.802
X143.866Y-72.807
X143.866Y-73.782
X144.323Y-66.441
X144.323Y-67.991
X144.76Y-103.49
X146.248Y-82.545
X147.284Y-83.565
X148.366Y-81.956
X150.581Y-81.051
X151.298Y-93.828
X151.343Y-97.643
X151.576Y-80.961
X151.606Y-84.871
X152.456Y-92.903
X152.481Y-97.643
X153.335Y-89.306
X153.629Y-97.638
X153.751Y-91.907
X153.904Y-79.649
X154.275Y-88.148
X155.189Y-89.311
X155.476Y-80.261
X155.959Y-83.662
X156.103Y-82.085
X156.342Y-91.923
X156.931Y-87.925
X157.053Y-80.421
X157.516Y-93.02
X157.526Y-92.263
X157.668Y-87.925
X158.176Y-83.764
X158.191Y-80.427
X158.344Y-92.253
X158.344Y-93.02
X158.415Y-87.914
X159.126Y-87.899
X159.228Y-93.02
X159.243Y-92.253
X160.477Y-96.769
X161.214Y-96.769
X161.701Y-90.475
X161.742Y-88.153
X162.001Y-96.779
X162.611Y-89.301
X169.774Y-88.608
T3
X150.205Y-75.133
X152.705Y-75.133
X155.205Y-75.133
T4
X133.106Y-83.51
X135.646Y-83.51
X138.186Y-83.51
X142.86Y-85.57
X142.86Y-88.11
X142.86Y-90.65
X142.86Y-93.19
X133.096Y-88.829
X135.636Y-88.829
X138.176Y-88.829
X81.445Y-94.577
X81.445Y-97.117
X81.445Y-99.657
X83.985Y-94.577
X83.985Y-97.117
X83.985Y-99.657
X126.843Y-112.1
X129.383Y-112.1
X131.923Y-112.1
X134.463Y-112.1
X137.003Y-112.1
X139.543Y-112.1
X109.95Y-84.26
X112.49Y-84.26
X115.03Y-84.26
X117.57Y-84.26
X135.687Y-91.516
X135.687Y-94.056
X135.687Y-96.596
X135.687Y-99.136
X138.227Y-91.516
X138.227Y-94.056
X138.227Y-96.596
X138.227Y-99.136
X133.035Y-91.496
X133.035Y-94.036
X133.035Y-96.576
X133.035Y-99.116
X116.55Y-112.1
X119.09Y-112.1
X121.63Y-112.1
X124.17Y-112.1
X133.101Y-86.167
X135.641Y-86.167
X138.181Y-86.167
X133.101Y-80.848
X135.641Y-80.848
X138.181Y-80.848
X116.58Y-109.5
X119.12Y-109.5
X121.66Y-109.5
X124.2Y-109.5
X126.74Y-109.5
X129.28Y-109.5
X109.911Y-87.051
X112.451Y-87.051
X114.991Y-87.051
T5
X149.73Y-96.86
X149.73Y-99.4
X149.73Y-101.94
T6
X107.447Y-105.95
X107.447Y-112.45
X111.18Y-105.93
X111.18Y-112.43
X144.03Y-105.88
X144.03Y-112.38
T7
X90.88Y-71.17
T8
X88.34Y-68.63
X88.34Y-73.71
X93.42Y-68.63
X93.42Y-73.71
T9
X158.19Y-110.04
X166.4Y-110.043
X173.909Y-110.058
X150.703Y-110.058
X150.51Y-68.743
X158.02Y-68.75
X166.365Y-68.737
X173.868Y-68.722
T10
X177.62Y-86.09
X177.62Y-93.29
T2
X135.955Y-67.91G85X135.955Y-66.71
G05
X141.605Y-67.91G85X141.605Y-66.71
G05
X125.195Y-67.96G85X125.195Y-66.76
G05
X130.845Y-67.96G85X130.845Y-66.76
G05
T0
M30
